<?xml version="1.0" encoding="utf-8"?>
<!-- Generator: Adobe Illustrator 21.1.0, SVG Export Plug-In . SVG Version: 6.00 Build 0)  -->
<svg version="1.1" id="Layer_1" xmlns:sketch="http://www.bohemiancoding.com/sketch/ns"
	 xmlns="http://www.w3.org/2000/svg" xmlns:xlink="http://www.w3.org/1999/xlink" x="0px" y="0px" viewBox="0 0 25 25"
	 style="enable-background:new 0 0 25 25;" xml:space="preserve">
<style type="text/css">
	.st0{fill:#333333;}
</style>
<g>
	<path class="st0" d="M24.7,1c-0.1,0.1-0.1,0.2-0.1,0.3c-0.2,0.2-0.2,0.5-0.2,0.7c0,0.3,0.1,0.6,0.1,0.9c0,0.1,0,0.2,0,0.2
		c-0.1,0.3-0.1,0.6,0,0.9c0,0.2,0.1,0.4,0,0.6c0.2,0.2,0,0.4,0.1,0.6c0.1,0.2-0.1,0.4,0,0.7c0,0,0,0.1,0,0.1
		c-0.1,0.1-0.1,0.3-0.1,0.5c0,0.1,0.1,0.3,0,0.4c0,0,0,0.1,0,0.1c0.1,0.3,0.1,0.6,0.1,0.9c0,0.2,0,0.5,0,0.7
		c0.1,0.4,0.1,0.8,0.1,1.2c0,0.1,0,0.2,0,0.3c-0.1,0.2,0,0.4,0,0.6c0,0.2,0,0.4,0,0.5c0,0.1,0,0.2,0,0.3c0,0.1,0,0.3-0.1,0.4
		c-0.1,0.1-0.1,0.3,0,0.4c0.1,0.3,0.1,0.6,0.1,0.9c0,0.1,0,0.2,0,0.2c-0.2,0.4-0.1,0.8-0.1,1.3c0,0.4,0,0.8,0,1.2
		c0,0.3-0.1,0.5-0.1,0.7c0,0.2,0,0.5,0,0.7c0,0.2-0.1,0.4,0,0.6c-0.1,0.2,0,0.5,0,0.7c0,0.2,0,0.5,0,0.7c0,0.2,0.1,0.4,0,0.6
		c0,0,0,0.1,0,0.1c0.1,0.4,0.1,0.9,0.1,1.4c0.2,0.4,0.1,0.9,0.4,1.2c0.1,0,0.1,0.2,0,0.3c-0.1,0.2,0,0.4,0.1,0.6
		c0.1,0.3,0.1,0.5,0,0.9c-0.2,0.1-0.5,0-0.7,0c-0.2,0.1-0.4,0.2-0.6,0.3c-0.1,0-0.1,0-0.2,0c-0.4,0-0.8-0.1-1.1,0.1
		c-0.1,0-0.2,0-0.2,0c-0.2,0-0.3-0.1-0.5,0c-0.1,0-0.2,0-0.2,0c-0.3-0.1-0.6-0.1-0.9,0c-0.2,0-0.3,0.1-0.5,0c-0.2-0.1-0.5,0-0.7,0
		c-0.4,0.1-0.8,0-1.1,0c-0.2,0-0.4,0.1-0.6,0.1c-0.2,0-0.4-0.1-0.5-0.1c-0.5,0-0.9,0-1.4,0c-0.3,0-0.6,0-1-0.1c-0.4-0.1-0.8,0-1.2,0
		c-0.4,0.1-0.9,0-1.3,0c-0.2,0-0.5-0.1-0.7-0.1c-0.6,0-1.2,0-1.7-0.1c-0.1,0-0.2,0-0.2,0c-0.2-0.1-0.5-0.1-0.7,0c-0.2,0-0.5,0-0.7,0
		c-0.1,0-0.2,0-0.3,0c-0.4,0.1-0.7,0-1-0.1c-0.1,0-0.2-0.1-0.4,0c-0.2,0-0.3,0-0.5,0c-0.4,0-0.9-0.1-1.3-0.1c0,0-0.1,0-0.1,0
		c-0.2,0.2-0.4,0.1-0.7,0c-0.2,0-0.4,0-0.6,0c-0.3,0-0.7-0.1-1,0c-0.4,0.1-0.8,0-1.2-0.1c-0.4-0.1-0.6-0.4-0.5-0.8
		c0-0.1,0.1-0.1,0-0.2c-0.1-0.4,0-0.8-0.1-1.2c-0.1-0.4-0.2-0.9,0-1.3c0-0.1,0-0.2,0-0.3c-0.1-0.4,0-0.9-0.1-1.3c0-0.3-0.1-0.7,0-1
		c-0.1-0.2,0-0.4-0.1-0.5c0-0.1,0-0.2,0-0.3c0-0.2,0.1-0.4,0-0.6c0-0.1,0-0.2,0-0.3c0-0.1,0-0.2,0-0.3c0,0,0-0.1,0-0.1
		c0.1-0.1,0.1-0.3,0-0.4c0-0.1,0.1-0.2,0.2-0.2c-0.1-0.1-0.1-0.2-0.1-0.3c0-0.1,0-0.2,0.1-0.3c0-0.1,0.1-0.2,0.1-0.3
		c0-0.3,0-0.5,0.1-0.8c0.1-0.2,0-0.4,0-0.6c-0.1-0.4-0.1-0.8,0.1-1.2c-0.1-0.1-0.2-0.2-0.2-0.3c0.1-0.2,0.2-0.4,0.1-0.6
		c0-0.1,0-0.3,0-0.4c0-0.1,0-0.3,0-0.5c0-0.3,0-0.5,0-0.8C0.5,9,0.5,8.7,0.5,8.5c0-0.1,0-0.2,0-0.2C0.3,8.1,0.4,8,0.4,7.8
		c0-0.1,0-0.3,0-0.5c0-0.2-0.1-0.4,0-0.6c0-0.2,0-0.4-0.2-0.6c0-0.1,0-0.1,0-0.1c0.1-0.3,0.1-0.6,0.1-0.9c0,0,0-0.1,0-0.1
		c0-0.2,0.1-0.3,0.1-0.5c0-0.2-0.1-0.3,0-0.5c0-0.1,0-0.1,0-0.2c-0.1-0.2-0.1-0.4,0-0.5c0-0.2,0-0.3,0-0.5c0-0.1,0-0.2,0-0.4
		c0-0.2,0.1-0.3,0-0.5c0-0.1,0-0.3,0.1-0.4c0.1-0.2,0.2-0.5,0.3-0.8C0.7,0.6,0.9,0.6,1,0.6c0.1,0,0.2,0,0.3,0
		c0.3-0.2,0.6-0.1,0.9-0.2c0.1,0,0.3,0,0.4-0.1c0.1,0,0.2,0,0.3,0c0.2,0,0.4,0,0.6,0c0.4,0,0.7,0,1.1,0.1c0.1,0,0.3-0.2,0.4-0.1
		c0.1,0,0.2,0,0.3,0c0.1,0,0.3,0,0.4,0c0.1,0,0.2,0,0.3,0c0.1,0,0.2,0,0.4,0c0.1,0,0.6,0,0.7,0c0.2-0.1,0.5-0.1,0.7-0.1
		c0.4,0.1,0.7,0,1.1,0c0.2,0,0.4-0.1,0.6,0c0.2,0,0.5-0.1,0.7,0c0.1,0,0.3,0.1,0.4,0.1c0.2,0.1,0.4,0.1,0.6,0c0.2-0.1,0.5-0.1,0.7,0
		c0.1,0,0.3,0,0.5,0c0.2-0.1,0.5,0,0.7,0c0.2,0.1,0.4,0.1,0.5,0c0,0,0.1,0,0.1,0c0.4,0,0.8,0,1.1,0c0.2,0,0.4,0,0.6,0
		c0.3,0,0.7,0.1,1,0.1c0.3,0,0.7,0,1.1,0c0.3,0,0.5,0,0.8,0c0.2,0,0.5,0,0.7,0c0.2,0.1,0.5,0.1,0.7,0c0.3,0,0.5-0.1,0.8,0
		c0.2,0,0.4,0.1,0.5,0.1c0.1,0,0.2,0.1,0.4,0c0.2-0.1,0.4-0.1,0.5-0.1c0.2,0,0.4-0.1,0.5,0.1c0,0,0.1,0,0.2,0c0.1,0,0.2,0,0.3,0
		c0.4-0.2,0.8-0.1,1.2-0.1c0.1,0,0.2,0,0.3,0.1C24.5,0.7,24.6,0.9,24.7,1z M3.4,21.7c0.3,0,0.6,0,0.9,0.1c0.3,0,0.5,0,0.8,0.1
		c0.4,0.1,0.8,0.1,1.2,0c0.4-0.1,0.8-0.1,1.3-0.1c0.8,0,1.5,0.1,2.2-0.1c0.6-0.1,1.2-0.2,1.7-0.1c0.8,0.1,1.6-0.1,2.3,0.2
		c0.1,0,0.2,0,0.3,0c0.2-0.1,0.5,0,0.7,0.1c0.3,0.2,0.6,0.1,0.9,0c0.2-0.1,0.4-0.1,0.5-0.1c0.4,0.2,0.8,0.1,1.2,0
		c0.4-0.1,0.8-0.1,1.2-0.2c0.3,0,0.6,0.1,1,0.1c0.4,0,0.7-0.2,1.1-0.2c0.2,0,0.5,0,0.7,0.1c0.5,0.1,0.7,0.1,0.8-0.4
		c0.1-0.2,0-0.5,0.1-0.7c0-0.4,0-0.7,0.3-1c0.2-0.2,0.1-0.5,0-0.7c-0.2-0.2-0.3-0.5-0.3-0.8c0-0.3-0.1-0.7-0.1-1
		c0.1-0.6,0.1-1.1,0.1-1.7c0-0.2-0.1-0.4,0-0.6c0.1-0.5,0.1-1,0.1-1.5c0-0.2,0-0.4,0-0.5c0-0.3,0-0.7,0.1-1c0-0.6,0-1.3,0.1-1.9
		c0.1-0.4,0.1-0.8,0.1-1.2c-0.1-0.8-0.1-1.6,0-2.4c0.1-0.8,0-1.6,0-2.3c0-0.2-0.1-0.5-0.4-0.6c-0.5-0.1-1-0.3-1.5-0.4
		c-0.7-0.1-1.5,0-2.2-0.2c-0.1,0-0.1,0-0.2,0c-0.4,0.1-0.8,0.1-1.2,0c-0.5-0.1-1.1-0.1-1.6,0c-0.1,0-0.3,0-0.4,0
		c-0.8,0.2-1.7-0.3-2.6,0.1c-1.3,0-2.5,0-3.8,0c-0.4,0-0.9-0.1-1.3,0c-0.5,0.1-1,0.1-1.5,0.1C4.8,2.8,4,2.9,3.3,2.9
		C3.2,2.9,3.1,3,3,3.1C3,3.5,3,4,3,4.4C3,4.9,3,5.5,3.2,6c0.1,0.3,0.1,0.8,0.1,1.2c0,0.2,0,0.4,0,0.5c0,0.7,0,1.3,0.1,2
		c0,0.5,0,1,0.1,1.5c0,0.2,0.1,0.4,0,0.6c-0.1,0.3-0.1,0.6,0,0.9c0,0.2,0,0.4,0,0.5c-0.1,0.3-0.1,0.6-0.1,1c0,0.2-0.1,0.4-0.1,0.6
		c0,0.2-0.1,0.3-0.1,0.5C3,15.8,3,16.2,2.9,16.6c-0.2,0.6,0,1.2,0.1,1.9c0,0.4,0.1,0.7,0.2,1.1c0.1,0.4-0.3,0.7-0.4,1
		C2.9,20.9,3.1,21.2,3.4,21.7z M18.5,1.4c0.2,0.1,0.4,0.2,0.6,0.3c0.1,0,0.2-0.1,0.2-0.1c0.1,0,0.2,0,0.2-0.1c-0.1,0-0.3,0-0.4-0.1
		C18.9,1.3,18.7,1.3,18.5,1.4z M3.5,1.3c0.1,0,0.1,0,0.2,0c0,0,0-0.1,0-0.1c0,0-0.1,0-0.1,0C3.5,1.2,3.5,1.3,3.5,1.3z M0.9,16.7
		C0.9,16.7,0.9,16.7,0.9,16.7C0.9,16.7,0.9,16.7,0.9,16.7C0.9,16.7,0.9,16.7,0.9,16.7C0.9,16.7,0.9,16.7,0.9,16.7z"/>
</g>
</svg>
