<svg xmlns="http://www.w3.org/2000/svg" viewBox="0 0 42.19 17.79"><defs><style>.cls-1{fill:#333;}</style></defs><title>box-join</title><g id="Layer_2" data-name="Layer 2"><g id="Layer_1-2" data-name="Layer 1"><path class="cls-1" d="M42,.38a.68.68,0,0,1-.08.14.46.46,0,0,0-.12.38c0,.15,0,.3,0,.45a.32.32,0,0,1,0,.12,1,1,0,0,0,0,.47c0,.11.08.21,0,.32.1.09,0,.2,0,.3s0,.23,0,.34,0,0,0,.06a.22.22,0,0,0-.06.24.29.29,0,0,1,0,.21.09.09,0,0,0,0,.07.8.8,0,0,1,0,.47,1.2,1.2,0,0,0,0,.35c0,.21.06.42.09.64a.36.36,0,0,1,0,.14c0,.11,0,5.34,0,5.45a.32.32,0,0,1,0,.28.42.42,0,0,0,0,.14.52.52,0,0,1,0,.18.25.25,0,0,0,0,.2c0,.15.05.3.07.45a.2.2,0,0,1,0,.12,1.61,1.61,0,0,0-.07.66,5.24,5.24,0,0,0,0,.64,2.51,2.51,0,0,1-.09.37c0,.12,0,.24,0,.35a.44.44,0,0,0,0,.3c-.08.12,0,.24,0,.37s0,.24,0,.36,0,.22,0,.33a.09.09,0,0,0,0,.07,2.28,2.28,0,0,1,.08.7c.12.2.05.46.27.63a.14.14,0,0,1,0,.13.35.35,0,0,0,0,.3.47.47,0,0,1,0,.47,1,1,0,0,1-.46,0l-.35.16-.11,0a2.57,2.57,0,0,0-.7,0,.3.3,0,0,1-.14,0,.79.79,0,0,0-.31,0,.34.34,0,0,1-.14,0,1.31,1.31,0,0,0-.56,0,.9.9,0,0,1-.31,0,1.24,1.24,0,0,0-.44,0c-.23,0-.47,0-.7,0a2.4,2.4,0,0,1-.36,0c-.11,0-.22,0-.34,0h-.88a5.07,5.07,0,0,1-.59,0c-.25,0-11.94,0-12.18,0a2.52,2.52,0,0,1-.81,0l-.45,0c-.36,0-16.08,0-16.44,0l-.14,0a1,1,0,0,0-.44,0,2.91,2.91,0,0,1-.45,0h-.2a1.52,1.52,0,0,1-.64,0,.5.5,0,0,0-.22,0,.88.88,0,0,1-.31,0l-.79-.06H2.63c-.13.09-.27,0-.4,0H1.83a2.84,2.84,0,0,0-.62,0,2.35,2.35,0,0,1-.76,0c-.28-.06-.37-.2-.28-.42,0,0,0-.06,0-.09-.07-.21,0-.42-.06-.64a1,1,0,0,1,0-.68.25.25,0,0,0,0-.16,4.34,4.34,0,0,1-.05-.68,1.14,1.14,0,0,1,0-.53C0,14.15.12,14,0,14s0-.09,0-.14.07-.19,0-.29,0-.09,0-.14a.11.11,0,0,0,0-.13s0-.05,0-.06A.19.19,0,0,0,0,13c0-.07,0-.1.12-.12s-.08-.09-.09-.13a.46.46,0,0,1,0-.16.44.44,0,0,0,0-.16A.78.78,0,0,1,.2,12a.57.57,0,0,0,0-.33.78.78,0,0,1,.08-.62l-.15-.15a.33.33,0,0,0,.06-.31.34.34,0,0,1,0-.21c0-.07,0-5.28,0-5.36a1.13,1.13,0,0,1,0-.42,1.48,1.48,0,0,0,0-.35.16.16,0,0,0,0-.11.27.27,0,0,1,0-.27.48.48,0,0,0,0-.23.93.93,0,0,1,0-.31A.31.31,0,0,0,.07,3s0,0,0-.06a.72.72,0,0,0,.06-.49.18.18,0,0,1,0-.07,1.1,1.1,0,0,0,.06-.25c0-.08-.05-.17,0-.26a.1.1,0,0,0,0-.09c-.07-.09,0-.18,0-.28a1.69,1.69,0,0,0,0-.26,1.43,1.43,0,0,1,0-.19.71.71,0,0,0,0-.28C.11.75.16.67.19.59S.31.35.38.2a.3.3,0,0,1,.21,0,.43.43,0,0,0,.19,0A1.78,1.78,0,0,1,1.34.08l.25,0a.8.8,0,0,1,.2,0,1.65,1.65,0,0,0,.39,0,1.55,1.55,0,0,1,.68.07A.42.42,0,0,1,3.13.08a.52.52,0,0,0,.17,0,.58.58,0,0,1,.25,0,.77.77,0,0,0,.19,0H4a2.31,2.31,0,0,0,.44,0,1,1,0,0,1,.42,0A2.77,2.77,0,0,0,5.5,0a2.14,2.14,0,0,1,.39,0,2.9,2.9,0,0,1,.45,0l.24.06c.12,0,15.61,0,15.74,0a.89.89,0,0,1,.44,0,.63.63,0,0,0,.28,0,.87.87,0,0,1,.42,0c.11,0,11.66.06,11.76,0h.06l.71,0c.12,0,.24,0,.37,0L37,.12a3.11,3.11,0,0,0,.65,0c.17,0,.33,0,.5,0a1.9,1.9,0,0,1,.44,0,1.43,1.43,0,0,0,.42,0,1.65,1.65,0,0,1,.47,0l.33.08a.36.36,0,0,0,.22,0,1.48,1.48,0,0,1,.33-.06c.11,0,.22,0,.32,0a.17.17,0,0,0,.11,0,.62.62,0,0,0,.17,0A4,4,0,0,1,41.7.09a.18.18,0,0,1,.17.07Zm-40,15.83.55,0a3.47,3.47,0,0,1,.5,0,1.92,1.92,0,0,0,.72,0,3.48,3.48,0,0,1,.78,0A6.54,6.54,0,0,0,6,16.2c.35-.06,16.07-.08,16.41,0s12.42-.06,12.88.12a.3.3,0,0,0,.16,0,.58.58,0,0,1,.43,0,.69.69,0,0,0,.54,0,.6.6,0,0,1,.32,0,1.56,1.56,0,0,0,.76,0,5.65,5.65,0,0,1,.72-.09c.2,0,.4,0,.6,0s.43-.08.65-.1a1.67,1.67,0,0,1,.44,0c.32.06.41,0,.48-.21a1.83,1.83,0,0,0,0-.37.69.69,0,0,1,.16-.53.23.23,0,0,0,0-.35.52.52,0,0,1-.19-.42c0-.16-.07-.34,0-.5a4.43,4.43,0,0,0,0-.88,1.17,1.17,0,0,1,0-.32,2.61,2.61,0,0,0,0-.79c0-.09,0-.18,0-.28s0-.34,0-.51c0-.32,0-5.78.07-6.09a1.79,1.79,0,0,0,.06-.64,6.46,6.46,0,0,1,0-1.26,9.66,9.66,0,0,0,0-1.22.3.3,0,0,0-.24-.29,7.89,7.89,0,0,0-.9-.2c-.46-.06-.93,0-1.39-.09h-.11a1.57,1.57,0,0,1-.72,0,3.66,3.66,0,0,0-1,0c-.09,0-.18,0-.27,0-.53.09-12.51-.15-13,0H5.21a7.81,7.81,0,0,0-.83,0c-.32,0-.63,0-.95,0-.48,0-1,0-1.45.08a.59.59,0,0,0-.16.06c0,.23,0,.46,0,.7A1.74,1.74,0,0,0,1.94,3a1.71,1.71,0,0,1,.08.6c0,.09,0,.19,0,.28,0,.34,0,.68,0,1s0,5.65,0,5.92a.83.83,0,0,1,0,.32.79.79,0,0,0,0,.46.56.56,0,0,1,0,.28,1.29,1.29,0,0,0-.05.51,1.16,1.16,0,0,1-.06.32c0,.09,0,.18-.06.27a4.29,4.29,0,0,1-.13.64,1.87,1.87,0,0,0,0,1,4,4,0,0,0,.13.55c.07.23-.18.35-.26.52ZM38.2.58l.34.17.15-.06s.12,0,.13-.06-.17,0-.26,0A.53.53,0,0,0,38.2.58ZM2.14.54l.1,0s0,0,0-.05H2.15S2.14.5,2.14.54ZM.54,13.61h0v0h0Z"/></g></g></svg>