<svg xmlns="http://www.w3.org/2000/svg" viewBox="0 0 18.43 18.1"><defs><style>.cls-1{fill:#333;}</style></defs><title>box-cart</title><g id="Layer_2" data-name="Layer 2"><g id="Layer_1-2" data-name="Layer 1"><path class="cls-1" d="M18.23.55a1,1,0,0,1-.1.2.74.74,0,0,0-.15.54c0,.21,0,.43.06.64a.54.54,0,0,1,0,.17,1.65,1.65,0,0,0,0,.67c0,.15.09.31,0,.46.12.13,0,.29.05.43s0,.32,0,.48,0,.07,0,.09a.35.35,0,0,0-.07.35.49.49,0,0,1,0,.3A.14.14,0,0,0,18,5a1.36,1.36,0,0,1,0,.67,2,2,0,0,0,0,.51c0,.3.07.6.1.91a.61.61,0,0,1,0,.2.93.93,0,0,0,0,.47.54.54,0,0,1,0,.4.7.7,0,0,0,0,.19.86.86,0,0,1,0,.26.41.41,0,0,0,0,.29c0,.21.06.43.09.64a.34.34,0,0,1,0,.17,2.72,2.72,0,0,0-.08.94,8.93,8.93,0,0,0,0,.91,4.16,4.16,0,0,1-.11.53c0,.17,0,.34,0,.51a.74.74,0,0,0,0,.43c-.1.18,0,.35,0,.52s0,.34,0,.51,0,.32,0,.47a.15.15,0,0,0,0,.1,3.86,3.86,0,0,1,.1,1c.14.29.06.66.33.91a.22.22,0,0,1,0,.19.58.58,0,0,0,.05.42.78.78,0,0,1,0,.67c-.18.1-.37,0-.55,0l-.41.22a.28.28,0,0,1-.13,0,2.59,2.59,0,0,0-.84,0,.31.31,0,0,1-.17,0,.79.79,0,0,0-.37,0,.35.35,0,0,1-.17,0A1.33,1.33,0,0,0,15,18a.9.9,0,0,1-.37,0,1.25,1.25,0,0,0-.53,0c-.28,0-.56,0-.84,0a2.42,2.42,0,0,1-.43,0c-.13,0-.27,0-.4,0H11.41A5.11,5.11,0,0,1,10.7,18a2.23,2.23,0,0,0-.88,0,2.54,2.54,0,0,1-1,0,4.74,4.74,0,0,0-.54,0L7,17.91l-.17,0a1,1,0,0,0-.53,0,2.93,2.93,0,0,1-.54,0,1,1,0,0,0-.23,0,1.54,1.54,0,0,1-.76-.06.5.5,0,0,0-.26,0,.89.89,0,0,1-.37,0l-.95-.08s-.05,0-.07,0-.32,0-.48,0-.31,0-.47,0a2.86,2.86,0,0,0-.74,0,2.37,2.37,0,0,1-.91-.05A.42.42,0,0,1,.21,17s0-.09,0-.13c-.08-.3,0-.6-.07-.91a1.65,1.65,0,0,1,0-1,.42.42,0,0,0,0-.23,7.38,7.38,0,0,1-.06-1,1.94,1.94,0,0,1,0-.76c-.06-.12,0-.27-.06-.39s0-.13,0-.19.09-.28,0-.42a.26.26,0,0,1,0-.2.18.18,0,0,0,0-.19.1.1,0,0,1,0-.09.31.31,0,0,0,0-.29c0-.1.05-.14.14-.17s-.1-.13-.1-.19a.75.75,0,0,1,.05-.23.74.74,0,0,0,0-.23,1.3,1.3,0,0,1,.08-.56,1,1,0,0,0,0-.47,1.3,1.3,0,0,1,.1-.89L.15,8.3a.55.55,0,0,0,.07-.45.58.58,0,0,1,0-.3,1.25,1.25,0,0,0,0-.34,1.92,1.92,0,0,1,0-.6,2.5,2.5,0,0,0,.06-.5.26.26,0,0,0,0-.16.45.45,0,0,1,0-.39.81.81,0,0,0,0-.33,1.57,1.57,0,0,1,0-.44.49.49,0,0,0-.15-.44s0-.07,0-.08a1.21,1.21,0,0,0,.07-.7.31.31,0,0,1,0-.1A1.83,1.83,0,0,0,.21,3.1c0-.12-.07-.24,0-.37a.17.17,0,0,0,0-.13.56.56,0,0,1,0-.4,2.88,2.88,0,0,0,0-.37,2.43,2.43,0,0,1,0-.27,1.21,1.21,0,0,0,0-.4A.65.65,0,0,1,.23.85C.29.67.37.49.46.28a.31.31,0,0,1,.25,0,.44.44,0,0,0,.23,0A1.82,1.82,0,0,1,1.6.11l.3,0a.81.81,0,0,1,.24,0,1.66,1.66,0,0,0,.47,0,1.57,1.57,0,0,1,.82.1c.09,0,.19-.13.33-.08A.53.53,0,0,0,4,.1a.59.59,0,0,1,.3,0,.78.78,0,0,0,.23,0l.27,0a2.33,2.33,0,0,0,.53,0,1,1,0,0,1,.5,0,2.79,2.79,0,0,0,.81,0,2.15,2.15,0,0,1,.47,0A2.92,2.92,0,0,1,7.6,0,2.45,2.45,0,0,1,7.89.1a.74.74,0,0,0,.46,0,.9.9,0,0,1,.53,0,.63.63,0,0,0,.34,0,.88.88,0,0,1,.5,0c.13,0,.26.09.38,0s0,0,.07,0l.85,0a3.72,3.72,0,0,1,.44,0l.77.08a3.13,3.13,0,0,0,.78,0,5.21,5.21,0,0,1,.6,0,1.91,1.91,0,0,1,.53,0,1.44,1.44,0,0,0,.5,0,1.67,1.67,0,0,1,.56,0l.39.11a.36.36,0,0,0,.26,0,1.51,1.51,0,0,1,.4-.09c.13,0,.27-.06.38.07s.08,0,.13,0a.63.63,0,0,0,.2,0,4,4,0,0,1,.91-.1.2.2,0,0,1,.2.1ZM2.48,15.85l.65,0a3.5,3.5,0,0,1,.6,0,1.93,1.93,0,0,0,.86,0,3.51,3.51,0,0,1,.93,0,6.58,6.58,0,0,0,1.66-.06,3.5,3.5,0,0,1,1.26,0,6.58,6.58,0,0,1,1.72.17.3.3,0,0,0,.19,0,.6.6,0,0,1,.52.06.71.71,0,0,0,.64,0,.61.61,0,0,1,.38-.05,1.57,1.57,0,0,0,.91,0,5.73,5.73,0,0,1,.86-.12c.24,0,.48.06.72,0s.52-.11.78-.14a1.69,1.69,0,0,1,.52.06c.39.09.49.05.57-.3a3.1,3.1,0,0,0,0-.53,1.12,1.12,0,0,1,.19-.76.38.38,0,0,0,0-.5.81.81,0,0,1-.23-.6c0-.23-.08-.48,0-.71a7.54,7.54,0,0,0,0-1.26,2,2,0,0,1,0-.46,4.44,4.44,0,0,0,0-1.12c0-.13,0-.26,0-.4s0-.48,0-.73A9.08,9.08,0,0,1,16.42,7a3,3,0,0,0,.08-.92,11,11,0,0,1,0-1.8,16.46,16.46,0,0,0,0-1.74.42.42,0,0,0-.29-.41,8.16,8.16,0,0,0-1.08-.28,15.25,15.25,0,0,1-1.66-.13.24.24,0,0,0-.13,0,1.58,1.58,0,0,1-.86,0,3.68,3.68,0,0,0-1.19,0c-.11,0-.22,0-.32,0-.63.12-1.27-.21-1.9.07l-2.79,0a7.86,7.86,0,0,0-1,0c-.38,0-.75.05-1.13.07-.58,0-1.16.07-1.74.11a.64.64,0,0,0-.19.09c0,.33,0,.66,0,1a2.92,2.92,0,0,0,.14,1.17,2.89,2.89,0,0,1,.1.86c0,.13,0,.27,0,.4,0,.49,0,1,0,1.47s0,.76,0,1.14a1.41,1.41,0,0,1,0,.46,1.33,1.33,0,0,0,0,.66,1,1,0,0,1,0,.4,2.18,2.18,0,0,0-.07.73,1.94,1.94,0,0,1-.08.45c0,.13-.05.26-.08.39a7.17,7.17,0,0,1-.16.92,3.17,3.17,0,0,0,0,1.38,6.73,6.73,0,0,0,.16.78c.08.33-.22.51-.31.74ZM13.65.83l.41.25L14.24,1c.05,0,.14,0,.15-.08s-.21,0-.32-.06A.54.54,0,0,0,13.65.83ZM2.57.77l.12,0s0-.07,0-.08a.1.1,0,0,0-.09,0S2.57.72,2.57.77ZM.64,12.13h0s0,0,0,0h0S.64,12.14.64,12.13Z"/></g></g></svg>