<svg xmlns="http://www.w3.org/2000/svg" viewBox="0 0 209.08 29.87"><defs><style>.cls-1{fill:#333;}</style></defs><title>box-active-view-outline</title><g id="Layer_2" data-name="Layer 2"><g id="Layer_1-2" data-name="Layer 1"><path class="cls-1" d="M208.83.64a1.18,1.18,0,0,1-.12.23.82.82,0,0,0-.19.64c0,.25.05.5.08.75a.59.59,0,0,1,0,.2,1.8,1.8,0,0,0,0,.79c0,.18.11.36,0,.54.15.15,0,.34.07.51s-.06.38,0,.57c0,0,0,.08,0,.11a.39.39,0,0,0-.09.41.54.54,0,0,1,0,.35.16.16,0,0,0,0,.11,1.49,1.49,0,0,1,.05.79,2.22,2.22,0,0,0,0,.6c.06.35.09.71.13,1.07a.66.66,0,0,1,0,.24c-.05.19,0,9,0,9.15a.59.59,0,0,1,0,.47.77.77,0,0,0,0,.23,1,1,0,0,1-.06.31.45.45,0,0,0,0,.34c.05.25.08.5.11.75a.37.37,0,0,1,0,.2,3,3,0,0,0-.1,1.1,9.75,9.75,0,0,0,0,1.07,4.59,4.59,0,0,1-.14.62c0,.2,0,.4,0,.59a.81.81,0,0,0,0,.5c-.13.21,0,.41,0,.62s0,.4,0,.6.06.37,0,.55a.16.16,0,0,0,0,.12,4.22,4.22,0,0,1,.13,1.18c.18.34.08.77.42,1.06a.25.25,0,0,1,0,.23.64.64,0,0,0,.07.5.86.86,0,0,1,0,.78c-.23.11-.47,0-.7,0l-.52.26a.38.38,0,0,1-.16,0,3.52,3.52,0,0,0-1.07,0,.42.42,0,0,1-.21,0,1.08,1.08,0,0,0-.47,0,.47.47,0,0,1-.21,0,1.8,1.8,0,0,0-.85,0,1.23,1.23,0,0,1-.47,0,1.7,1.7,0,0,0-.67,0c-.35,0-.71,0-1.06,0a3.28,3.28,0,0,1-.54.05c-.17,0-.34,0-.51-.05H200.2a7,7,0,0,1-.89-.06c-.38-.06-163.26,0-163.61,0a3.44,3.44,0,0,1-1.23,0,6.44,6.44,0,0,0-.68-.05c-.54,0-24.35,0-24.9-.07a.71.71,0,0,1-.21,0,1.3,1.3,0,0,0-.67,0,4,4,0,0,1-.68,0,1.37,1.37,0,0,0-.3,0,2.08,2.08,0,0,1-1-.07.68.68,0,0,0-.33,0,1.21,1.21,0,0,1-.46,0c-.4,0-.8-.07-1.2-.1,0,0-.07,0-.08,0-.2.14-.41.05-.61,0s-.39,0-.6,0a3.88,3.88,0,0,0-.94,0,3.21,3.21,0,0,1-1.15-.06c-.42-.1-.55-.33-.42-.71,0-.05.06-.11,0-.15-.1-.35,0-.71-.09-1.07a1.8,1.8,0,0,1,0-1.14.46.46,0,0,0,0-.28,8.06,8.06,0,0,1-.08-1.15,2.12,2.12,0,0,1,0-.9c-.07-.15,0-.32-.08-.46s0-.15,0-.23.11-.33,0-.49,0-.16,0-.23a.2.2,0,0,0,0-.22s0-.09,0-.11a.34.34,0,0,0,0-.34c0-.12.07-.16.18-.2,0-.08-.12-.15-.13-.22a.83.83,0,0,1,.06-.27.81.81,0,0,0,.06-.27,1.43,1.43,0,0,1,.1-.66,1.06,1.06,0,0,0,0-.55,1.43,1.43,0,0,1,.12-1l-.22-.26a.6.6,0,0,0,.09-.53.64.64,0,0,1,0-.35c0-.12,0-8.86,0-9a2.1,2.1,0,0,1,0-.71,2.74,2.74,0,0,0,.07-.59A.29.29,0,0,0,.37,7a.49.49,0,0,1-.05-.46.88.88,0,0,0,0-.39,1.72,1.72,0,0,1,0-.51A.55.55,0,0,0,.1,5.1s0-.08,0-.1a1.33,1.33,0,0,0,.09-.82.34.34,0,0,1,0-.12,2,2,0,0,0,.09-.42c0-.14-.08-.28,0-.43a.19.19,0,0,0,0-.15C.13,2.9.19,2.75.2,2.59a3.15,3.15,0,0,0,0-.43,2.66,2.66,0,0,1,0-.32,1.32,1.32,0,0,0,0-.46A.72.72,0,0,1,.29,1C.37.78.47.58.58.33A.41.41,0,0,1,.9.27a.59.59,0,0,0,.29,0A2.46,2.46,0,0,1,2,.13l.38,0a1.1,1.1,0,0,1,.3,0,2.26,2.26,0,0,0,.59,0,2.13,2.13,0,0,1,1,.12c.12,0,.24-.15.41-.1A.71.71,0,0,0,5,.11a.8.8,0,0,1,.38,0,1.06,1.06,0,0,0,.29,0L6,.16a3.17,3.17,0,0,0,.67,0,1.3,1.3,0,0,1,.64,0,3.8,3.8,0,0,0,1,0,2.92,2.92,0,0,1,.59,0,4,4,0,0,1,.68,0A3.28,3.28,0,0,1,10,.12c.19.07,23.65.08,23.85,0a1.22,1.22,0,0,1,.67,0,.86.86,0,0,0,.43,0,1.19,1.19,0,0,1,.63,0c.16.05,162.84.11,163,0s.06,0,.08,0l1.07,0a5.06,5.06,0,0,1,.55,0l1,.09a4.25,4.25,0,0,0,1,0,7.09,7.09,0,0,1,.76,0,2.6,2.6,0,0,1,.67,0,2,2,0,0,0,.64,0,2.26,2.26,0,0,1,.7,0l.49.13a.49.49,0,0,0,.33,0,2,2,0,0,1,.5-.1c.16,0,.34-.08.48.08s.11,0,.16,0a.85.85,0,0,0,.25,0,5.44,5.44,0,0,1,1.15-.12.26.26,0,0,1,.25.12ZM203,1l.52.29.22-.1c.06,0,.18,0,.19-.1s-.26,0-.4-.07A.73.73,0,0,0,203,1ZM3.24.9l.16,0s0-.08,0-.09a.14.14,0,0,0-.11,0S3.25.84,3.24.9ZM.81,22.85h0s0,0,0,0h0S.81,22.86.81,22.85Z"/></g></g></svg>