<svg xmlns="http://www.w3.org/2000/svg" viewBox="0 0 305.35 28.76"><title>footer-tagline</title><g id="Layer_2" data-name="Layer 2"><g id="Layer_1-2" data-name="Layer 1"><path d="M111.57,28.48a1.89,1.89,0,0,1-1-1.51,2.21,2.21,0,0,1,.24-2,5.07,5.07,0,0,0,.47-1.06,1.82,1.82,0,0,1,.35-.58l1.07-1.5c.32-.44.62-.9.94-1.35a3.27,3.27,0,0,1,.44-.52,2.9,2.9,0,0,0,.78-1.08A5.36,5.36,0,0,0,116.65,17a11.78,11.78,0,0,0,2-2,13.78,13.78,0,0,1,1.23-1.23c.27-.28.59-.51.87-.75,0-.77.69-1.23.6-2a4.31,4.31,0,0,1-1,.55c-.35.09-.53.42-.82.49a5.3,5.3,0,0,0-1,.53c-.28.13-.56.29-.84.43a4.3,4.3,0,0,0-1.38.67,3.91,3.91,0,0,1-2.11.53l-.61-.58a4.65,4.65,0,0,1-.23-1,3,3,0,0,1,.21-.81c.49-.62.93-1.27,1.47-1.83a10.75,10.75,0,0,1,1.79-1.65,22.69,22.69,0,0,0,1.82-1.48,1.69,1.69,0,0,1,1,1.27,2.59,2.59,0,0,1-1.07.93,2.49,2.49,0,0,0-.79.56,11.25,11.25,0,0,0-1.62,1.69c-.11.18-.36.26-.54.4a.25.25,0,0,0-.06.36c.07,0,.17.06.25,0,.42-.16.85-.31,1.25-.5.61-.3,1.19-.66,1.81-.93a11.13,11.13,0,0,0,2.43-1.57l.47-.1c.07-.07.16-.14.19-.22a.69.69,0,0,1,.35-.45,2.78,2.78,0,0,0,1.16-1.14,1.06,1.06,0,0,1,.26-.23A1,1,0,0,1,124,7l.76.7,0,.55c-.37.65-.82,1.23-1.19,1.95.17,0,.28,0,.33-.07a12.5,12.5,0,0,0,1.65-1.66.63.63,0,0,1,.12-.14,10.05,10.05,0,0,0,.87-.62,9,9,0,0,0,.62-.72,2,2,0,0,1,.31-.23c.39.16.57.56,1,.77l.92,0a3,3,0,0,0,1.43-.19A2.25,2.25,0,0,1,132,7.25c.23,0,.46,0,.62,0l.95-.42c.09,0,.18-.12.26-.12a7.48,7.48,0,0,0,2.05-.52,1.67,1.67,0,0,1,.78,0,2.25,2.25,0,0,1,.91,1.26,4,4,0,0,1-1.1,1.64,6.87,6.87,0,0,0-1.46,2,.82.82,0,0,0,0,.22c.09,0,.2.07.26,0,.61-.36,1.22-.73,1.82-1.11,0,0,0,0,.08-.06a7,7,0,0,0,1-.41,7.12,7.12,0,0,0,.83-.67c.1-.08.25-.14.29-.24.21-.49.67-.69,1.07-1s.77-.47,1.17-.71a4.92,4.92,0,0,1,1,.87,2.35,2.35,0,0,1-.49,1.89,5.73,5.73,0,0,0-.89,2,.24.24,0,0,0,.32.13c.25-.07.49-.16.77-.25.47-.4,1-.72,1.5-1.18s1.13-.74,1.64-1.2a15.42,15.42,0,0,1,1.69-1.16c.47,0,.86-.43,1.28-.76a1.26,1.26,0,0,1,1,.4,4.17,4.17,0,0,1,1,1.33s0,.1,0,.16a9.18,9.18,0,0,1-1.49,3c-.14.22-.3.43-.42.65a1,1,0,0,0,0,.35c.09.06.14.11.2.12a8.9,8.9,0,0,1,1.84.17c.09,0,.24-.1.36-.09a10.66,10.66,0,0,0,2.29-.29c.18,0,.3.13.46.07l.36-.16.28.36.58.07.26.3a1.18,1.18,0,0,1-.08.23.94.94,0,0,1-.75.38,7,7,0,0,0-1.11.31,11.64,11.64,0,0,1-1.22.29,9.22,9.22,0,0,0-1.28.34l-2,0a3,3,0,0,1-1.48-1,4.13,4.13,0,0,1-.25-2.11,6.4,6.4,0,0,0,.39-.85,1.4,1.4,0,0,1,.28-.5c.29-.35.58-.69.86-1.05,0-.05,0-.17,0-.25s-.16-.05-.2,0c-.69.42-1.36.88-2.07,1.27a1.33,1.33,0,0,0-.57.5,3.87,3.87,0,0,1-1,1.07c-.42.36-.86.68-1.38,1.09-.68.13-1.35.7-2.2.59l-1.09-.49a8.2,8.2,0,0,1-.46-1.56,1.68,1.68,0,0,0,.11-1.13l-1.95,1.11c-.62.35-1.21.76-1.85,1s-1.31.68-2,1.08l-.63,0c-.1-.11-.27-.2-.31-.34a2.8,2.8,0,0,1-.16-1.52l.77-1.66a1.81,1.81,0,0,1,.2-.33c.43-.56.69-1.23,1.07-1.82,0,0,0-.1,0-.2a1.19,1.19,0,0,0-.38,0,8.85,8.85,0,0,1-1.1.35,4.6,4.6,0,0,1-.85.19,4.27,4.27,0,0,0-.76.24l.59,1.26a4,4,0,0,1-.56,2.76,6.12,6.12,0,0,0-.71.57A4.94,4.94,0,0,1,129,14.94a17.93,17.93,0,0,1-1.72.63,2.71,2.71,0,0,1-1.33.21,1.14,1.14,0,0,0-.75.21l-1.26-.52a4.53,4.53,0,0,1-.76-2,1.2,1.2,0,0,1,.09-.46c-.24-.19-.45-.06-.57.13a2,2,0,0,1-.85.82,11,11,0,0,1-.75,1.85,2.18,2.18,0,0,0-.15.45c-.08.28-.14.56-.25.83a7.91,7.91,0,0,0-.66,1.38c-.09.46-.46.85-.55,1.33-.58.63-.77,1.5-1.32,2.15a7.87,7.87,0,0,0-.62,1,5.23,5.23,0,0,1-.91,1.25.87.87,0,0,0-.26.29,3.47,3.47,0,0,1-.67.91c-.25.3-.47.61-.71.92a.63.63,0,0,1-.14.14,8.24,8.24,0,0,1-2.6,1.65A3.64,3.64,0,0,0,111.57,28.48ZM126.23,14.2c.12,0,.2,0,.23-.08a3.33,3.33,0,0,1,1.49-.83c.53-.22,1.08-.4,1.7-.7l1.12-1.28a1.37,1.37,0,0,0-.17-1.2l-.67-.54-1.41,0c-.32-.1-.4-.41-.62-.36a3.34,3.34,0,0,0-.68.62,4.8,4.8,0,0,1-.62.74,4.56,4.56,0,0,0-.29.38A11.47,11.47,0,0,1,125,12.65a2,2,0,0,0-.32.54c0,.27-.09.5.05.74a2.23,2.23,0,0,0,1.09,0ZM115.2,21l-1.68,2.34c-.54.76-1,1.56-1.5,2.35,0,.17-.12.37.13.55a10,10,0,0,0,1.18-.79A14.56,14.56,0,0,0,116,22.65c.19-.3.47-.52.64-.85.46-.85,1-1.67,1.48-2.49a6.88,6.88,0,0,0,.84-2.26,8.28,8.28,0,0,0-1.1.95c-.68.82-1.42,1.58-2.05,2.43a2.6,2.6,0,0,1-.52.42Z"/><path d="M160,14.37A12,12,0,0,1,161.86,13c.68-.36,1.35-.76,2-1.13a2.83,2.83,0,0,0-.53-.85,5.78,5.78,0,0,1-1.22-2.17,2.61,2.61,0,0,1,0-1.7c.06-.15.1-.31.14-.44a5.17,5.17,0,0,1,1.3-1c.47-.36,1.07-.44,1.56-.75a9.41,9.41,0,0,0,1.6-.34,3.2,3.2,0,0,1,1.43.75c.4.4.31,1,.49,1.45a1.51,1.51,0,0,1,0,.67c0,.13-.11.25-.1.37a1.85,1.85,0,0,1-.7,1.44L167,10h-.59l-.12-.34a3.49,3.49,0,0,1-.16-.45,1.81,1.81,0,0,1,0-.39c.18-.22.47-.3.61-.59a3.7,3.7,0,0,1,.56-.7V6.6a.42.42,0,0,0-.42-.32,1.77,1.77,0,0,1-.73-.2,11.25,11.25,0,0,0-1.54,1,3.79,3.79,0,0,0-1.16,1l-.07.73c.32.41.64.81.94,1.24a2.42,2.42,0,0,1,.65,1.3c.17,0,.32,0,.41,0a5,5,0,0,1,1.57-.74,1.36,1.36,0,0,0,.35-.17,12.56,12.56,0,0,1,2.29-1,2.59,2.59,0,0,1,.9-.12,2.37,2.37,0,0,1,1.17-.55,3.24,3.24,0,0,0,.95-.45,7.86,7.86,0,0,1,1-.53l.7-.35a1.69,1.69,0,0,0,1-1.05,13.64,13.64,0,0,1,.9-1.93A3.53,3.53,0,0,1,177,3.08a1.76,1.76,0,0,0,.28-.42l.92-.57.89.9V3.7a17.76,17.76,0,0,1-1.82,3,6.38,6.38,0,0,1-1,1.09c-.18.16-.26.37-.43.51s-.08.15-.14.27l1.11,0h1a3.49,3.49,0,0,1,2,.44l.69.68,0,1.52a12.71,12.71,0,0,1-2.08,2.3c-.36.38-.75.72-1.12,1.09a1.3,1.3,0,0,0-.17.32c.1,0,.17.1.22.09a7.87,7.87,0,0,0,2.55-.8,2.34,2.34,0,0,1,.7-.16c.26-.27.44-.69.87-.82a2,2,0,0,0,.5-2c0-.06,0-.12-.06-.23s.17-.23.28-.35.24-.22.37-.33a10,10,0,0,0,1.63-.13,9.11,9.11,0,0,0,1.64.15,3,3,0,0,1,2.07,1.3c.14.22.26.44.38.66l-.2.85c-.19.32-.37.67-.6,1a11.23,11.23,0,0,1-.75.85c.13,0,.23,0,.29,0A13.41,13.41,0,0,1,189.2,14a7.36,7.36,0,0,1,1.28-.87,4.84,4.84,0,0,0,1.32-.79,2,2,0,0,0,.55-.67.89.89,0,0,1,.72-.52,3.47,3.47,0,0,1,1,.91v.6a9,9,0,0,1-.75,1.12,6.16,6.16,0,0,0-.7,1,9.24,9.24,0,0,0-1.06,2.46,6.58,6.58,0,0,0,0,1.45,2.71,2.71,0,0,0,.2.65c.29-.08.57-.14.71-.45.05-.11.19-.26.28-.25.39,0,.5-.36.78-.49a3.12,3.12,0,0,0,.73-.48,11.79,11.79,0,0,1,1.72-1.08c.42-.25.81-.53,1.21-.8a6,6,0,0,1,.66-.41,4,4,0,0,0,.64-.42,21,21,0,0,0,2.15-1.9.51.51,0,0,1,.58.14,1.73,1.73,0,0,1,.49.83,2.26,2.26,0,0,1-1,1.15,3.63,3.63,0,0,0-.46.35,6.11,6.11,0,0,1-.91.73,3.86,3.86,0,0,0-.67.58,10.16,10.16,0,0,1-1.13.71A14.25,14.25,0,0,0,195.25,19c-.51.35-1,.7-1.49,1.07a2.81,2.81,0,0,1-.54.23l-1.24,1c-.15.38.1.74,0,1.13a6.07,6.07,0,0,0-.1,1,4.64,4.64,0,0,1-1.12,1.71,6.88,6.88,0,0,1-1.41,1.31c-.47.28-.88.66-1.38.9a15.94,15.94,0,0,1-2.07.8,7.21,7.21,0,0,0-1.22.27,1.9,1.9,0,0,0-1,.29,1.39,1.39,0,0,1-.87-.69l0-1.06a14.08,14.08,0,0,1,1.45-1.66l.73-.62,2.67-2.25.38-.07.11-.15c.14-.17.25-.42.44-.51a10.14,10.14,0,0,0,1.68-1.44,1.14,1.14,0,0,0,0-.78,5.49,5.49,0,0,1-.24-2.39,9.06,9.06,0,0,1,.28-1.12c0-.06,0-.13,0-.17-.1-.24.17-.41.1-.64a.84.84,0,0,0-.08-.12l-.56.3c-.25.14-.5.3-.76.42s-.41.45-.76.38a9.28,9.28,0,0,1-2.08,1,2.53,2.53,0,0,0-.43.31h-.64c-.61-.23-.65-.86-1-1.35a2.7,2.7,0,0,1,.79-1.68c.61-.67,1.18-1.37,1.78-2.07a1.21,1.21,0,0,0-.8-.33l-2.33,0-.45.23c-.14.24-.07.51-.14.79-.25.41-.5.86-.79,1.29a2,2,0,0,1-.59.63c-.45.25-.77.7-1.31.79-.14,0-.27.18-.39.26l-.52,0a1.93,1.93,0,0,1-1,.53,3.1,3.1,0,0,1-1.63.12s-.16-.14-.3-.23-.27-.17-.41-.25a2.64,2.64,0,0,1-.24-1.74c.15-.3.35-.75.6-1.16a5.85,5.85,0,0,1,1.5-1.65,7.6,7.6,0,0,0,1-1.06c.07-.07,0-.23.06-.38a4,4,0,0,0-1.38-.07c-.22.17-.48,0-.72.12a1.89,1.89,0,0,1-.68,0h-.74l-.48.25a.91.91,0,0,0-.09.15A41.56,41.56,0,0,1,173,15.25a1.8,1.8,0,0,0-.16.35,2.27,2.27,0,0,1-1,1.29h-.31l-.46-.65-.33-1.42a2.83,2.83,0,0,1,.42-.26,2.33,2.33,0,0,1,.46-.09,1.54,1.54,0,0,0,.26-.31c.46-1,.91-2,1.36-3l-.2-.12a2.75,2.75,0,0,0-1.32,1.49l-.31,0a2.58,2.58,0,0,1-.76-1.67.43.43,0,0,0-.49-.07,6.22,6.22,0,0,0-1.62.59,3.13,3.13,0,0,1-.48.32c-.62.26-1.25.51-1.88.76l-.61.27,0,1.13a3.16,3.16,0,0,1-1,1.7c-.27.23-.27.69-.69.77a3.29,3.29,0,0,1-1.64.93l-.51.17-1.19-.23a2.66,2.66,0,0,1-.86-1.32A2.93,2.93,0,0,1,160,14.37Zm30.73,7.9a14.22,14.22,0,0,0-2,1.65,2.26,2.26,0,0,1-.39.28,17.76,17.76,0,0,0-2.66,2.1c-.09.09-.17.21,0,.33a2.37,2.37,0,0,0,.64-.18c.63-.39,1.32-.66,2-1a6.22,6.22,0,0,0,2.38-2.57A3.3,3.3,0,0,0,190.77,22.27Zm-26.61-8.83-.91.49a5.69,5.69,0,0,0-1.87,1.49c0,.06,0,.16,0,.26a4.68,4.68,0,0,0,2.45-1.47Z"/><path d="M221.24,11.53a3.49,3.49,0,0,1,1.5-1.09,8.45,8.45,0,0,1,1.64-1c.13-.07.21-.24.37-.42a9.09,9.09,0,0,0,2.07-1l.46,0,.65.68a1.05,1.05,0,0,1-.28.89,3,3,0,0,1-.34.35c-.59.65-1.21,1.27-1.76,2a12,12,0,0,0-1,1.57c-.11.19-.14.43-.25.62a1.48,1.48,0,0,0-.15,1.08,1.3,1.3,0,0,0,.92,0,13,13,0,0,0,3.51-1.59,6.87,6.87,0,0,0,1.27-.88,2.06,2.06,0,0,0,1.11-.75c.07-.24.08-.5.34-.66a5.7,5.7,0,0,0,1.4-1.32A5,5,0,0,1,236,8.11c.06,0,.14,0,.19,0A1.69,1.69,0,0,1,237.3,8a8.63,8.63,0,0,1,1.14.4,5.46,5.46,0,0,1,3.46-.17,7,7,0,0,1,3.23,1.49l.46,1.47c.49-.19.58-.7.93-1s.63-.55,1-.86a1.56,1.56,0,0,1,.88,0l.67.86.08.57c.07,0,.12.09.17.1a1.66,1.66,0,0,0,.77-.08c.36-.13.74-.23,1.17-.36A7.43,7.43,0,0,0,252.43,9a1.75,1.75,0,0,1,.62-.59.82.82,0,0,0,.24-.16,6,6,0,0,1,2.54-1.34l.66.46a1.23,1.23,0,0,1,.25.91c-.19.63-.84,1-1,1.64l-1.55,1c-.51.32-1.07.55-1.56.93.25.18.4,0,.58-.06s.43,0,.58,0c.44-.25,1,0,1.41-.3a4.16,4.16,0,0,1,1.3-.36,2.42,2.42,0,0,0,.63-.23,5.06,5.06,0,0,1,2.05-.59l.42-.31c.66,0,1.33-.37,2.23-.13l1,.71h.27a2,2,0,0,0,.35-.33,2.58,2.58,0,0,1,1-.83,8.82,8.82,0,0,1,2.2-.91l.7.28.5,1.06-.39,1c0,.06,0,.14-.07.17-.48.31-.68.85-1,1.26a3.41,3.41,0,0,0-.9,2.61l.4.43.52.13L267,16v.45l-.28.28-1.45-.33-.86-.85a5.53,5.53,0,0,1-.3-2.61c.2-.38.4-.79.62-1.18s.54-.64.55-1.09c-.06,0-.13-.08-.17-.06a4.41,4.41,0,0,0-1.54,1,11.74,11.74,0,0,1-1,.79c-.3.24-.5.6-.89.75-.07,0-.1.16-.17.23a10.83,10.83,0,0,1-2.07,1.9,5.46,5.46,0,0,0-.87.89c-.21.1-.39-.18-.66-.23l-.29-.52v-.86c.13-.13.24-.32.4-.4a6.72,6.72,0,0,0,1.47-1.24c.49-.47,1.08-.83,1.53-1.35.09-.1.17-.19.12-.35a2.72,2.72,0,0,0-.85-.08l-1.2.38a6.43,6.43,0,0,0-1.42.59,8.36,8.36,0,0,1-1.33.53c-.33.12-.67.23-1,.36-.63.25-1.3.35-1.95.56a8.48,8.48,0,0,0-.85.17,1.1,1.1,0,0,1-.44,0c-.77-.66-.77-.66-1-1.36a2.17,2.17,0,0,0-.44.07,3.36,3.36,0,0,1-1.71.26c-.63-.1-.94-.65-1.35-1-.35.09-.51.36-.76.51a1.1,1.1,0,0,0-.55.52,10.33,10.33,0,0,0-2.1,2.48c-.16.24-.31.5-.45.75a6.74,6.74,0,0,1-.34.58c-.15.21-.34.39-.49.55h-.71l-.43-.73v-.79A1.89,1.89,0,0,1,242,15c.44-.45.54-1.09.9-1.6a12.53,12.53,0,0,0,.86-1.63,2.1,2.1,0,0,0,.17-.45,1.59,1.59,0,0,0,0-.36c-.3-.58-.88-.66-1.38-.87-.35.11-.6-.12-.92-.27l-1.56,0-1.33.54a2.57,2.57,0,0,0-.1,1.21.64.64,0,0,1,0,.47,2.45,2.45,0,0,0-.18.9,3.41,3.41,0,0,0-.35.53,6,6,0,0,1-2.11,2.1,1.65,1.65,0,0,0-1,.56l-.61.16-.83-.17a4,4,0,0,1-.73-1.59,7,7,0,0,0,.1-.72,3.08,3.08,0,0,1,.47-1.35,7.38,7.38,0,0,1,1.48-1.79c.14-.13.31-.24.44-.35-.11-.25-.22-.18-.33-.12-.4.21-.8.42-1.18.67a2.66,2.66,0,0,0-.8.69,18.13,18.13,0,0,1-1.87,2c-.15.17-.32.33-.48.49a3.54,3.54,0,0,1-.78.57c-.73.41-1.44.87-2.16,1.3a7.09,7.09,0,0,1-2.14.87,7.74,7.74,0,0,1-1.74,0c-.19-.17-.36-.33-.52-.49s-.22-.24-.31-.35a3.65,3.65,0,0,1-.28-1.54,5.26,5.26,0,0,1,.19-.94,2.26,2.26,0,0,1,.36-.88,2.69,2.69,0,0,0,.23-.52c.07-.14.24-.23.24-.41l-.12-.18c-.29.19-.6.37-.89.57s-.58.42-.86.63c-.1.08-.19.18-.3.25-.78.52-1.58,1-2.34,1.55-.25.18-.54.21-.77.37s-.42.42-.67.56c-.53.3-1.1.56-1.64.83h-.81l-.31-.49c-.09-.13-.19-.26-.29-.4l.22-.93c.58-.74,1.17-1.47,1.75-2.21a26.43,26.43,0,0,1,1.94-2.42,1.33,1.33,0,0,0,.25-.3,23.5,23.5,0,0,0,1.65-2.62c.08-.22.29-.35.64-.28l.61.57.2.69-.9,1.38a1.66,1.66,0,0,1-.29.39,8.39,8.39,0,0,0-.85,1.06c-.12.14-.16.35-.38.41a.39.39,0,0,0-.21.19,12.16,12.16,0,0,1-1.63,2.16s0,.12,0,.19c.21.09.36-.08.5-.17a10.3,10.3,0,0,0,1.43-1A6.91,6.91,0,0,1,221.24,11.53Zm13.33,2.68a3.85,3.85,0,0,0,.91-.34,7.22,7.22,0,0,0,1.58-1.28,1.88,1.88,0,0,0,.48-1,2.89,2.89,0,0,1,.11-.47l-.33-.22-1.13,1-1.14,1C234.88,13.28,234.5,13.6,234.57,14.21Z"/><path d="M68.65,0a1.69,1.69,0,0,1,.85,1.7,7.4,7.4,0,0,0-.77,1.56,14.51,14.51,0,0,1-1,2.16,5.59,5.59,0,0,0-.32.6c-.56,1.16-1.31,2.22-1.94,3.35a2.47,2.47,0,0,1-.46.51l-1.65,1.6a2.68,2.68,0,0,0,.47,1.72,1.93,1.93,0,0,0,.55-.07,4.49,4.49,0,0,0,1.47-1.07l.57-.58.09-.31c.16-.17.31-.34.48-.5a2.09,2.09,0,0,0,.66-1.05A1,1,0,0,1,68.16,9h.33l.47.44.14.92-.72,1.87c0,.09.06.21.1.33s.07.18.12.29l.45.23a3.43,3.43,0,0,0,1.2-.11,3.79,3.79,0,0,0,1.1-.34,14.9,14.9,0,0,0,1.87-.8c.39-.24.78-.46,1.24-.72.65-.8,1.35-1.64,2-2.5A12.57,12.57,0,0,1,77.91,7c.56-.89,1.45-1.49,2.05-2.34a3.26,3.26,0,0,1,.65-.57,13.48,13.48,0,0,1,1.81-1.45L83,2.35l.53.06.41.74V4a7.43,7.43,0,0,1-.63,1.2,14.22,14.22,0,0,1-2.06,2.45c-.35.29-.73.54-1,.86a20.07,20.07,0,0,0-1.9,2,2,2,0,0,1-.49.36c0,.22.1.27.2.34a3.41,3.41,0,0,1,.78,1.09l.51.83a1.83,1.83,0,0,0,.51,0,16.12,16.12,0,0,0,2.4-.72c.5-.22,1-.38,1.54-.57.27-.1.53-.23.82-.35a5.61,5.61,0,0,1,1.43-3l.8-.54,1,0c.68.54.68.54,1.13,1.78v.9c-.18.71-.72,1.05-1.15,1.52a.7.7,0,0,0,.64.07A7.89,7.89,0,0,1,91,11.88a.79.79,0,0,1,.18.05.36.36,0,0,1,0,.44c-.08.18-.19.34-.3.55a3.39,3.39,0,0,1-1.49.54,6.73,6.73,0,0,1-1.58.45,4.27,4.27,0,0,1-2.56-.29,4.62,4.62,0,0,1-.61-.38,15,15,0,0,0-1.85.65,13,13,0,0,1-1.71.65c-.25.07-.5.09-.76.13a2.51,2.51,0,0,0-.43.15,6.83,6.83,0,0,0-.3,1.34,5.64,5.64,0,0,1-.58,1.73,11.88,11.88,0,0,1-1.36,2c-.16.24-.5.28-.65.56s-.4.39-.58.62a3.11,3.11,0,0,1-.69.53c-.24.17-.48.33-.71.51a1.28,1.28,0,0,1-.6.3,1.6,1.6,0,0,0-.53.23,8.38,8.38,0,0,1-2.62,1c-.56-.2-1.27-.18-1.72-.87a5.53,5.53,0,0,0-.27-.93,1.33,1.33,0,0,1-.12-.85,11.22,11.22,0,0,1,.38-1.59,31.57,31.57,0,0,1,1.49-3c.28-.54.63-1.05,1-1.57a1.94,1.94,0,0,0,.37-.8.81.81,0,0,0-.29,0c-.3.13-.58.29-.87.42a3.39,3.39,0,0,1-3-.15c-.2-.1-.38-.24-.53-.33a2.52,2.52,0,0,1-.46-1L64.82,14.8l-1.27,0a4.59,4.59,0,0,1-1.32-2.3,4.65,4.65,0,0,0-1.09.76,6.41,6.41,0,0,1-1.4,1.08l-.49.05a5,5,0,0,1-1.71.83,1.66,1.66,0,0,1-.86,0c-.28-.06-.55-.16-.88-.26a1.63,1.63,0,0,1-.41-1,5.35,5.35,0,0,0-.12-.7,1.25,1.25,0,0,1,.46-.69.71.71,0,0,1,.82.23l.07.63a.7.7,0,0,0,.24.1,1.82,1.82,0,0,0,.58-.05A7.5,7.5,0,0,0,58.53,13a17,17,0,0,0,3-1.93l.3-.23c.25-1.16.43-2.2.71-3.22A4.79,4.79,0,0,1,63.24,6a3.4,3.4,0,0,0,.32-.8,2.31,2.31,0,0,1,.19-.44c.18-.27.47-.5.55-.79a3.4,3.4,0,0,1,.47-.84,7.83,7.83,0,0,1,.53-.81,7.63,7.63,0,0,1,.77-.88A8.07,8.07,0,0,1,67.19.48,1.8,1.8,0,0,1,68.65,0Zm6.59,12.45c-.09.12-.27.35-.44.59a10.28,10.28,0,0,1-.63,1,10.59,10.59,0,0,0-1,1.54c-.31.52-.56,1.08-.92,1.57A15.69,15.69,0,0,0,70.8,20a6.27,6.27,0,0,0-.35,1.55l.18.37a1.54,1.54,0,0,0,1,0A20.52,20.52,0,0,0,73.75,21,11.11,11.11,0,0,0,76.41,19a8.43,8.43,0,0,0,1.65-2.37,3.25,3.25,0,0,0,.39-2.06A3,3,0,0,1,77,12.48c0-.12,0-.26,0-.39a.44.44,0,0,0-.34-.4ZM63.59,9.32a9.85,9.85,0,0,0,1.55-1.69c.31-.49.7-.93,1-1.39a4.54,4.54,0,0,0,1-1.65,1.45,1.45,0,0,1,.21-.43,10,10,0,0,0,.92-2.22s-.06-.09-.1-.14-.08,0-.1,0A8.14,8.14,0,0,0,65.91,4.1c-.15.28-.41.5-.57.78A20.88,20.88,0,0,0,63.81,8,1.68,1.68,0,0,0,63.59,9.32ZM86.78,10c.08.24-.31.36-.09.62l.5-.23c.35-.58.35-.58.2-.68Z"/><path d="M24.26,14.8l-.68-.28a1.38,1.38,0,0,1-.25-1,6.58,6.58,0,0,1,1.08-1.36,6,6,0,0,0,.66-.83,20,20,0,0,0,1.32-1.68,1.85,1.85,0,0,0,.1-.3,1.37,1.37,0,0,0-1,0,2.91,2.91,0,0,0-1.13.52c-.21.22-.57.1-.78.37a4.61,4.61,0,0,1-.56.54.57.57,0,0,1-.15.12,6.47,6.47,0,0,0-1.4,1c-.43.33-.83.71-1.26,1s-.78.57-1.21.88l-.39.08a6.81,6.81,0,0,1-2.46,1.47l-.46-.18c0-.21,0-.4-.08-.58a4.52,4.52,0,0,0-.14-.44.67.67,0,0,0,.06-.54c-.19,0-.3.09-.42.21a16,16,0,0,1-2.41,2,2.4,2.4,0,0,0-.29.26,12.12,12.12,0,0,1-1.19,1,3.52,3.52,0,0,0-.82.67,4.52,4.52,0,0,1-.9.73l-.85.65a1,1,0,0,1-.15.13,3.57,3.57,0,0,0-1.62,2.21c-.23.6-.47,1.2-.7,1.8a1.08,1.08,0,0,1-.12.26c-.76,1-1.39,2.1-2.26,3-.17.19-.29.43-.46.62a3.93,3.93,0,0,1-1.6,1.08c-.24.09-.5.14-.79.22L.5,28.26c-.39-.4-.28-1-.5-1.38.08-.33.14-.62.22-.89A3.38,3.38,0,0,1,.87,24.8c.79-.95,1.67-1.81,2.54-2.67S5.05,20.75,5.82,20l.84-.79c.21-.53.41-1,.6-1.55s.24-.8.37-1.19A3.8,3.8,0,0,0,8,15.28c0-.06.06-.11.09-.17.53-1,.86-2.15,1.31-3.22a8.16,8.16,0,0,1,.69-1.48,3.51,3.51,0,0,0,.31-.79c-.08-.17-.2-.19-.32-.1A13.62,13.62,0,0,1,8.25,10.9,31.89,31.89,0,0,1,5,12.84c-.8.35-1.61.66-2.43,1l-.65-.32-.54-1.07c.16-.54.34-1.12.49-1.71a7.77,7.77,0,0,1,1.25-2.6A.78.78,0,0,0,3.22,8c.32-.85.86-1.58,1.27-2.39s.78-1.34,1.19-2h.43A1.7,1.7,0,0,1,6,5.47C5.35,6.54,4.75,7.65,4.15,8.76a16.91,16.91,0,0,0-.89,1.6c-.22.54-.43,1.07-.64,1.61a1.62,1.62,0,0,0,0,.37,5.35,5.35,0,0,0,2.2-.65,11,11,0,0,0,2.09-1.22C7.65,10,8.4,9.4,9.17,8.86c.13-.09.27-.17.41-.25l.25-.15c.69-.48,1.38-1,2.05-1.46a3.46,3.46,0,0,0,.51-.62H13l.38.63a4.13,4.13,0,0,1-.62,1.31,9.73,9.73,0,0,0-1.14,1.9c-.32.74-.73,1.44-1.1,2.16A3.4,3.4,0,0,0,10,13.73c0,.12-.12.23-.17.34a20.19,20.19,0,0,0-1.23,3.14c0,.17-.29.3-.14.53a1.61,1.61,0,0,0,1-.53c.53-.47,1.09-.9,1.65-1.34s1.08-.93,1.65-1.37c1.23-1,2.36-2,3.67-2.87a3.53,3.53,0,0,0,1.24-1.35,1.66,1.66,0,0,1,.25-.41A16.77,16.77,0,0,1,19.41,8a13.33,13.33,0,0,1,2.26-1.53A1.13,1.13,0,0,1,22,7.59l-.45.47c-.48.53-1,1-1.42,1.6a2.31,2.31,0,0,1-.61.59,5.92,5.92,0,0,0-.8.72L18,11.6c-.19.54-.58.86-.54,1.36.23.1.38-.06.52-.15.5-.3,1-.66,1.46-.95a3.57,3.57,0,0,0,.76-.6A2.54,2.54,0,0,1,21,10.7a1,1,0,0,0,.51-.42.73.73,0,0,1,.29-.24,5.7,5.7,0,0,0,1.33-1,.57.57,0,0,1,.16-.12,22.68,22.68,0,0,1,2.3-1,1.93,1.93,0,0,1,1.59,0,1.6,1.6,0,0,0,.28.08l.42.87a3.48,3.48,0,0,1-.38,1.72c.12,0,.23.06.29,0a3.55,3.55,0,0,1,1.13-.54,3.27,3.27,0,0,0,.87-.42c.7-.42,1.46-.68,2.22-1l.52.26.25.75c-.13.33-.26.69-.43,1a2.18,2.18,0,0,1-.44.63,10.08,10.08,0,0,0-1.05,1.51.91.91,0,0,0-.2,1,.64.64,0,0,0,.55,0,1.3,1.3,0,0,0,.35-.17L35,11.55a15.52,15.52,0,0,1,2-1.44c.52-.38,1.09-.7,1.62-1.05a6.35,6.35,0,0,1,1.26-.49,1.11,1.11,0,0,1,.43,0c.36.15.35.51.52.71a2.47,2.47,0,0,1-.43,1.57,1.27,1.27,0,0,0-.15.35c-.19.65-.38,1.29-.56,1.92.07.47.41.73.77,1.05l2,.46.49-.15.3.31a1.63,1.63,0,0,1-.49.83c-.76.09-1.57,0-2.43,0a5,5,0,0,1-1.66-1.25l-.24-.75a2.71,2.71,0,0,0,.15-1.41c0-.5.35-.92.18-1.47a6.54,6.54,0,0,0-2.15,1.39,3.51,3.51,0,0,0-.62.27c-1,.7-2,1.45-3,2.12a10.33,10.33,0,0,1-2,1,1.46,1.46,0,0,1-1,0c-.33-.28-.35-.71-.59-1,0-.16,0-.32,0-.48A4.12,4.12,0,0,1,29.81,12c.13-.29.24-.59.35-.89,0,0,0-.05,0-.1a.73.73,0,0,0-.68.23c-.81.66-1.8,1-2.65,1.61-.63.45-1.3.84-1.94,1.29A4.49,4.49,0,0,0,24.26,14.8Zm-18.67,7-.3-.11A24.89,24.89,0,0,0,1,26.38a1.63,1.63,0,0,0,0,.28,1.43,1.43,0,0,0,.08.25c.12,0,.24,0,.31,0a8.25,8.25,0,0,0,1-.72A10.55,10.55,0,0,0,4.8,23.3C5.1,22.84,5.32,22.34,5.59,21.83Z"/><path d="M281.53,12.4c.11-.22.28-.5.4-.8a1.77,1.77,0,0,0,.06-.47l1.92-2.63h.57l.61.9a1.23,1.23,0,0,1-.3,1,8.52,8.52,0,0,0-.67.95,11.06,11.06,0,0,1-.67.94c-.14.18-.3.34-.46.52l-.17.83a1,1,0,0,0,.75-.07c.83-.35,1.65-.73,2.51-1,.63-.46,1.46-.52,2.05-1.06a1.2,1.2,0,0,1,.35-.17,8,8,0,0,0,1.68-.84l1.11,0,.74.61c.46.24.71-.45,1.16-.4l.83-.88a.51.51,0,0,1,.6.1l.62.64a2.14,2.14,0,0,1-.18,1.49,4.84,4.84,0,0,0-.35,1.53l.47.26a6.83,6.83,0,0,0,1.85-.14c.38-.26.82-.13,1.26-.17a2.67,2.67,0,0,1,1.09-.56,1.78,1.78,0,0,0,.69-.34,24.21,24.21,0,0,0,2-1.54,7.68,7.68,0,0,0,1.41-1.84,1.88,1.88,0,0,0,.29-1c0-.29,0-.59,0-.87a6.32,6.32,0,0,0-1.83-2.78c0-.09,0-.13,0-.14l.13-.15a2.8,2.8,0,0,1,2.11,1.49,4.83,4.83,0,0,1,.71,1.89,1.51,1.51,0,0,1,0,.76,2.17,2.17,0,0,0-.13.86,2.62,2.62,0,0,1-.46,1.35c-.23.39-.45.78-.63,1.09l-.78,1-.12.15a9.36,9.36,0,0,1-1.81,1.46,5.16,5.16,0,0,1-1.43.58c-.89.27-1.8.5-2.7.73a1.5,1.5,0,0,1-.39,0l-1.57,0-1-.53-.54-.88a3.71,3.71,0,0,0-.22-1.3,1,1,0,0,0-.65.33c-.54.52-1.08,1-1.63,1.55a3,3,0,0,0-.63.86,1.45,1.45,0,0,1-.6.65h-.88l-.29-.55V15c.22-.39.65-.65.91-1.08s.65-.61.89-1c-.13-.05-.22-.13-.29-.12a2.34,2.34,0,0,0-.82.25,26.72,26.72,0,0,1-2.54,1.2c-.31.17-.63.31-.93.51a2.43,2.43,0,0,1-1.25.49.76.76,0,0,0-.43.2,3.81,3.81,0,0,1-1.92.55,5.54,5.54,0,0,1-.55-.58,3.51,3.51,0,0,1-.28-.63c-.45.37-1,.49-1.28,1a7.72,7.72,0,0,1-1.51.86,2.52,2.52,0,0,0-.37.11,8.29,8.29,0,0,1-1.16.69l-1.32.53-1,0c-.61-.36-.63-1-.89-1.62a15.52,15.52,0,0,1,.5-1.62,6.09,6.09,0,0,1,.72-1.14,3.38,3.38,0,0,1,.49-.46c.19.19.08.4.15.65l.29.42-.54,1v.7c.1,0,.19.1.27.09a3,3,0,0,0,.46-.15,10.65,10.65,0,0,0,3.47-1.88C280.07,13.42,280.75,13,281.53,12.4Z"/><path d="M303.26,17.69c.22-.27.07-.7.61-.87a1.54,1.54,0,0,1,1.48.72v.76l-.92.49h-.64c-.06-.06-.13-.09-.15-.14C303.5,18.35,303.39,18,303.26,17.69Z"/><path d="M201.42,16.92l.4-.46.77.19.55.81a1.32,1.32,0,0,1-.25,1c-.41.23-.72,0-1.05-.21Z"/><path d="M95.83,13.18l.23,0,.3,0,.68.47.19.6-.22.62-.83.17-.64-.46,0-1.11Z"/><path d="M76,3.45c.16.53.42,1,.23,1.46-.16.34-.46.3-.84.26l-.64-.61V3.72L75,3.44Z"/><path d="M287.71,5.44v.63a.52.52,0,0,1-.58.3.28.28,0,0,1-.09,0l-.67-.53,0-.34A3.18,3.18,0,0,1,287.71,5.44Z"/></g></g></svg>