<svg xmlns="http://www.w3.org/2000/svg" viewBox="0 0 147.59 2.32"><defs><style>.cls-1{fill:#bf4e2b;}</style></defs><title>link-active-underline</title><g id="Layer_2" data-name="Layer 2"><g id="Layer_1-2" data-name="Layer 1"><path class="cls-1" d="M2.13.11l.6,0a3.07,3.07,0,0,1,.55,0,1.7,1.7,0,0,0,.8,0,3.08,3.08,0,0,1,.86,0A5.78,5.78,0,0,0,6.48.08C6.87,0,44.28,0,44.65,0,45.18.13,139.29,0,139.8.2a.27.27,0,0,0,.18,0,.53.53,0,0,1,.48.05.62.62,0,0,0,.59,0,.54.54,0,0,1,.35-.05,6.37,6.37,0,0,0,2.14.2c.32,0,3.91-.41,4-.18a2.93,2.93,0,0,1,0,1.38c-.12.62-.21.15-.64.4l-.38.22a.25.25,0,0,1-.12,0,2.28,2.28,0,0,0-.78,0,.27.27,0,0,1-.15,0,.7.7,0,0,0-.34,0,.3.3,0,0,1-.16,0,1.17,1.17,0,0,0-.62,0,.79.79,0,0,1-.34,0,1.1,1.1,0,0,0-.49,0c-.26,0-.52,0-.78,0a2.13,2.13,0,0,1-.4,0c-.12,0-.25,0-.37,0h-1a4.49,4.49,0,0,1-.65-.05c-.27,0-94.11,0-94.37,0a2.23,2.23,0,0,1-.9,0,4.16,4.16,0,0,0-.5,0c-.4,0-37.81.15-38.21.13l-.15,0a.85.85,0,0,0-.49,0,2.57,2.57,0,0,1-.5,0,.89.89,0,0,0-.22,0,1.38,1.38,0,0,1-.7.07.44.44,0,0,0-.24,0,.78.78,0,0,1-.34,0l-.88-.08s0,0-.06,0-.3,0-.45,0-.29,0-.44,0a2.51,2.51,0,0,0-.69,0,2.08,2.08,0,0,1-.84-.05A.41.41,0,0,1,0,1.54a3.12,3.12,0,0,0,0-.45C0,.81.07.51,0,.21"/></g></g></svg>