<svg xmlns="http://www.w3.org/2000/svg" viewBox="0 0 247.28 32.38"><defs><style>.cls-1{fill:#333;}</style></defs><title>logo-footer</title><g id="Layer_2" data-name="Layer 2"><g id="Layer_1-2" data-name="Layer 1"><path class="cls-1" d="M0,23.95l2.37-2.82A10.31,10.31,0,0,0,9.44,24c2.43,0,4-1.12,4-2.82v-.06c0-1.6-.89-2.46-5.06-3.42C3.58,16.59.9,15.18.9,11.05V11c0-3.84,3.2-6.5,7.65-6.5a12.42,12.42,0,0,1,8.13,2.82l-2.11,3A10.18,10.18,0,0,0,8.48,8c-2.3,0-3.65,1.18-3.65,2.66v.06c0,1.73,1,2.5,5.31,3.52,4.74,1.15,7.2,2.85,7.2,6.56v.06c0,4.19-3.3,6.69-8,6.69A13.8,13.8,0,0,1,0,23.95Z"/><path class="cls-1" d="M30,8.46h-7.1V4.81H41.08V8.46H34V27.21H30Z"/><path class="cls-1" d="M87.81,4.81h10a9,9,0,0,1,6.46,2.24,6.77,6.77,0,0,1,1.86,4.83v.06c0,3.68-2.21,5.89-5.34,6.78l6,8.48h-4.64l-5.5-7.81H91.75v7.81H87.81Zm9.7,11.1c2.82,0,4.61-1.47,4.61-3.74v-.06c0-2.4-1.73-3.71-4.64-3.71H91.75v7.52Z"/><path class="cls-1" d="M120,18.38l-8.9-13.57h4.64l6.27,9.92,6.34-9.92h4.51L124,18.28v8.93h-4Z"/><path class="cls-1" d="M151.09,4.81h10a9,9,0,0,1,6.46,2.24,6.77,6.77,0,0,1,1.86,4.83v.06c0,3.68-2.21,5.89-5.34,6.78l6,8.48h-4.64L160,19.4H155v7.81h-3.94Zm9.7,11.1c2.82,0,4.61-1.47,4.61-3.74v-.06c0-2.4-1.73-3.71-4.64-3.71H155v7.52Z"/><path class="cls-1" d="M176.48,17.71V4.81h3.94V17.55c0,4.16,2.14,6.4,5.66,6.4s5.63-2.11,5.63-6.24V4.81h3.94v12.7c0,6.69-3.78,10-9.63,10S176.48,24.2,176.48,17.71Z"/><path class="cls-1" d="M202.76,16.08V16A11.41,11.41,0,0,1,214.31,4.43a12.1,12.1,0,0,1,8.61,3l-2.5,3A8.78,8.78,0,0,0,214.15,8c-4.13,0-7.27,3.62-7.27,7.9V16c0,4.61,3,8,7.62,8a9.14,9.14,0,0,0,5.41-1.7V18.12h-5.73V14.7h9.54v9.41a14.28,14.28,0,0,1-9.34,3.49C207.36,27.6,202.76,22.6,202.76,16.08Z"/><path class="cls-1" d="M229.94,23.95l2.37-2.82A10.31,10.31,0,0,0,239.38,24c2.43,0,4-1.12,4-2.82v-.06c0-1.6-.89-2.46-5.06-3.42-4.77-1.15-7.46-2.56-7.46-6.69V11c0-3.84,3.2-6.5,7.65-6.5a12.42,12.42,0,0,1,8.13,2.82l-2.11,3A10.18,10.18,0,0,0,238.42,8c-2.3,0-3.65,1.18-3.65,2.66v.06c0,1.73,1,2.5,5.31,3.52,4.74,1.15,7.2,2.85,7.2,6.56v.06c0,4.19-3.3,6.69-8,6.69A13.8,13.8,0,0,1,229.94,23.95Z"/><path class="cls-1" d="M78.87,12.87l0,.06a.15.15,0,0,1-.19.13h0l-.12.22s0,.06,0,.08,0,.12-.11.12l0,0s0,.09-.07.11-.07.06-.1.09l0,0,0,.07s-.09,0-.12.06L78,14a.25.25,0,0,0,0,.08c0,.11,0,.11-.15.16l0,0a1.25,1.25,0,0,1-.22.23.17.17,0,0,0-.07.13.1.1,0,0,1,0,.07c-.08,0-.1.15-.2.17v0a.45.45,0,0,1-.15.19c-.07.16-.24.25-.33.39a.57.57,0,0,0-.17.21.23.23,0,0,1-.12.11.09.09,0,0,0-.08.08c0,.06-.07.05-.09.11a.5.5,0,0,0,.22.34l0,0,.24.21v.08h.09a.38.38,0,0,0,.19.18l0,0,.11.12a2.76,2.76,0,0,0,.33.29l0,0c0,.11.12.14.18.22s.09.07.09.14l0,0c.09,0,.12.14.18.2l.19.18.12.1a.69.69,0,0,1,.13.11.83.83,0,0,0,.15.11v.07a.18.18,0,0,0,.14.06l0,.08a.18.18,0,0,0,.11.08l.2.07c0,.07.07.12.08.2s0,.06.07.09-.11,0-.16,0a.48.48,0,0,0,0,.06.29.29,0,0,1-.11.18l-.12.12-.2.23a2.91,2.91,0,0,0-.2.26l-.13.16-.23.26a1.33,1.33,0,0,0-.13.17.91.91,0,0,1-.17.19l-.08.07a.2.2,0,0,1-.1.07l-.15.07-.16-.22-.05-.05A.84.84,0,0,1,77,20.2a.18.18,0,0,0-.05-.07L76.71,20l0,0a1,1,0,0,0-.2-.18,1,1,0,0,1-.14-.14c-.05-.06-.13-.1-.14-.19A1.23,1.23,0,0,0,76,19.2a.32.32,0,0,1-.11-.14.34.34,0,0,0-.13-.14,1.42,1.42,0,0,1-.26-.19l-.06-.07a.58.58,0,0,0-.21-.22.47.47,0,0,0-.12-.15c-.05-.05-.09-.12-.18-.12L74.76,18,74.69,18l-.09,0a.31.31,0,0,1,0-.08l-.15.09-.09.19,0,0a.33.33,0,0,0-.19.18.19.19,0,0,1-.06.06,1.56,1.56,0,0,0-.14.11,1.07,1.07,0,0,0-.11.15s0,0,0,.06-.16.16-.26.23a.09.09,0,0,0,0,.12l.11,0s0,0,0,0a.11.11,0,0,0,0,.13.6.6,0,0,1,.2.28l0,0,.26.27s0,0,0,0,.12,0,.17.07a.43.43,0,0,1,.14.11c.13.12.24.25.36.36l.37.35.47.45.06,0s.06.05.06.08a.24.24,0,0,0,.1.15,2,2,0,0,1,.26.24l.18.16v0a.38.38,0,0,1-.24.44l-.1.07a.28.28,0,0,1-.08,0c-.08,0-.13.05-.13.14a.92.92,0,0,1-.11.12.37.37,0,0,0-.11.12.43.43,0,0,1-.07.08l-.16.18c-.09.11-.19.21-.28.31a.31.31,0,0,1-.24.1l-.06-.12-.12,0a.28.28,0,0,0-.13-.09.43.43,0,0,1-.14-.11l-.21-.2-.1-.05a.24.24,0,0,0-.16-.22.33.33,0,0,1-.13-.1,2.26,2.26,0,0,0-.25-.22l-.26-.25-.15-.13-.21-.2a.47.47,0,0,1-.06-.12h0c-.07-.07-.18-.11-.24-.21a.81.81,0,0,0-.12-.15.79.79,0,0,1-.12-.17.17.17,0,0,0-.11-.1.17.17,0,0,1-.11-.08c0-.07-.11-.12-.15-.19s-.11-.08-.18-.11-.08.07-.13.07,0,0,0,0a1.34,1.34,0,0,1-.24.25.83.83,0,0,0-.1.12,1.48,1.48,0,0,1-.22.23.72.72,0,0,0-.14.16c-.06.08-.11.17-.16.26a.36.36,0,0,0,.08.14,1,1,0,0,0,.26.22.39.39,0,0,1,.11.1.93.93,0,0,0,.23.23c.05,0,0,.11.11.14a.57.57,0,0,1,.13.1l.06.06s0,0,0,0,.16.13.2.23l0,.06.12.06,0,0a.28.28,0,0,0,0,.07,2.35,2.35,0,0,0,.5.48.13.13,0,0,1,.07.09c0,.11.1.16.17.22l.22.17a1.1,1.1,0,0,1,.13.16.73.73,0,0,0,.17.17l.09.08c.1.11.1.2,0,.33l-.26.23a7,7,0,0,0-.51.52,1,1,0,0,1-.23.21,1.23,1.23,0,0,0-.21.2l-.17.15a.14.14,0,0,1-.18,0,.66.66,0,0,0-.24-.3.52.52,0,0,1-.12-.13,1.18,1.18,0,0,0-.32-.32c-.05,0-.12-.06-.14-.13s0,0-.05-.05L70.64,25l0,0c-.15-.19-.34-.35-.47-.55a1,1,0,0,0-.15-.17c-.12-.12-.21-.28-.36-.36s-.2-.16-.24-.29-.07-.13-.15-.15-.14.07-.2.12L69,23.7c-.05.06-.08.14-.13.18a.76.76,0,0,0-.14.17.32.32,0,0,1-.18.14.89.89,0,0,0-.18.14c0,.06.09.08,0,.15a.2.2,0,0,0-.15,0v.09h-.06a.07.07,0,0,0,0,.11s0,0,0,0,.06.2.13.27a1.17,1.17,0,0,1,.14.14c.06.08.13.15.18.24a.33.33,0,0,0,.13.1.51.51,0,0,1,.24.31l0,.09a.22.22,0,0,1,.24.14c0,.1.14.14.2.22s.16.15.25.21l.19.17.18.16.42.39a2.1,2.1,0,0,1,.19.22.86.86,0,0,1-.08.34.28.28,0,0,1-.13.15s-.07,0-.08.07a1,1,0,0,1-.19.24s0,0-.06.07a.25.25,0,0,1-.16.16s0,0,0,0-.19.22-.26.35l0,0s-.07.07-.07.11a.11.11,0,0,1-.07.1.15.15,0,0,0-.07.06.22.22,0,0,1-.22.13l0,0a.32.32,0,0,0,0-.08l-.06,0-.12-.1a.8.8,0,0,0-.21-.18s-.06-.07-.09-.1-.15-.11-.17-.2l0,0a2,2,0,0,1-.39-.35.38.38,0,0,1-.11-.23.79.79,0,0,1-.37-.26l-.11-.11a.62.62,0,0,1-.13-.17.55.55,0,0,0-.11-.14L66.89,27s0-.06-.08-.07a.28.28,0,0,1-.17-.2.19.19,0,0,0-.16-.13.24.24,0,0,1-.17-.1c-.06,0-.09.09-.16.11s0,.05-.06.08a.91.91,0,0,0,0,.11s-.09,0-.1.05a.23.23,0,0,1-.16.17s0,0-.05,0a1.42,1.42,0,0,1-.18.16.19.19,0,0,0-.11.19.05.05,0,0,1,0,0l-.14.07a.06.06,0,0,0,0,.1l.11.05.07-.06a.18.18,0,0,0,.07.16l.22.25.07.06.36.24.06.06.1.12a.71.71,0,0,0,.24.21,1.22,1.22,0,0,1,.26.21.68.68,0,0,1,.12.17l.07.1a.22.22,0,0,0,.19.11.45.45,0,0,0,.24.31.5.5,0,0,1,.18.19.2.2,0,0,0,.18.14A.16.16,0,0,1,68,30a1,1,0,0,0,.3.21l0,0a.26.26,0,0,1,.16.33.27.27,0,0,0-.11.14.1.1,0,0,1,0,0c-.08.06-.1.16-.16.24a.17.17,0,0,0,0,.08.67.67,0,0,1-.22.37l-.09.1-.15.21,0,0-.29.19a.21.21,0,0,0-.12.21.61.61,0,0,1,0,.12l-.17,0c-.1-.07-.1-.07-.21-.05l-.12,0a.17.17,0,0,1-.16,0,.41.41,0,0,1-.14-.16.53.53,0,0,0-.1-.15,1.13,1.13,0,0,0-.14-.11,1.71,1.71,0,0,0-.3-.21.08.08,0,0,1,0,0,.25.25,0,0,0-.1-.13l-.18-.16a.24.24,0,0,1,0-.07.57.57,0,0,1-.38-.29l0,0c-.16-.12-.28-.27-.45-.38a2.42,2.42,0,0,1-.33-.26,3.8,3.8,0,0,1-.47-.43,1.63,1.63,0,0,0-.15-.15c-.08,0-.13.09-.22.06s-.06-.11-.09-.16l-.12-.14h0a3.59,3.59,0,0,0-.32.27l-.33.34,0,.06-.19.2a2.07,2.07,0,0,0-.22.23.54.54,0,0,1-.17.15.45.45,0,0,0-.17.17.5.5,0,0,1-.16.18l0,0a.77.77,0,0,1-.18.24,2.77,2.77,0,0,1-.31.31l0,0A.48.48,0,0,0,61,32h-.06a.13.13,0,0,0-.13.05,1.21,1.21,0,0,1-.2.18.25.25,0,0,1-.31,0,2.12,2.12,0,0,1-.39-.4,2.72,2.72,0,0,0-.45-.47l0,0a.88.88,0,0,0-.19-.19l-.27-.24a.07.07,0,0,1,0,0,.52.52,0,0,0-.08-.18.09.09,0,0,1,.06-.13c.05,0,.11,0,.15,0a.15.15,0,0,0,.08,0s0,0,.05,0-.07,0-.1-.06-.05-.08,0-.14a.25.25,0,0,1,.1-.15l.13-.1s0,0,0,0,.13-.16.21-.23a1,1,0,0,0,.2-.22c.08-.1.14-.21.21-.31s.11-.17.16-.26l.11-.13a.16.16,0,0,1,.21-.06h0a.82.82,0,0,0,.28-.29h.13a2.39,2.39,0,0,1,.22-.26,1.83,1.83,0,0,1,.21-.21,1,1,0,0,1,.14-.14.68.68,0,0,0,.14-.14v0a1.81,1.81,0,0,0-.26-.28,1.44,1.44,0,0,1-.17-.16l-.47-.47a.35.35,0,0,0-.23-.11v-.09a.54.54,0,0,0-.16.1s0,0,0,0-.06.11-.1.17a2.73,2.73,0,0,1-.2.25l0,0a1.47,1.47,0,0,0-.33.37.62.62,0,0,1-.09.08l-.43.41-.1.11-.32.3c-.11,0-.13.16-.23.21a1.45,1.45,0,0,0-.19.15,1,1,0,0,0-.25.28.67.67,0,0,1-.17.15c-.05,0-.1.08-.12.15s-.06.07-.11.07h-.15a1.25,1.25,0,0,0-.31-.2.83.83,0,0,1-.19-.15l-.31-.31-.27-.22-.13-.13a1.12,1.12,0,0,0-.17-.17,3.77,3.77,0,0,1-.34-.32.16.16,0,0,1,.05-.26l.08,0a.16.16,0,0,0,.08-.1.28.28,0,0,1,.14-.19.44.44,0,0,0,.13-.13l.32-.43,0,0,.19-.21c.05-.06.13-.1.16-.18l0,0a.26.26,0,0,0,.16-.15l0,0c.12,0,.17-.18.28-.23l0,0a1.16,1.16,0,0,1,.28-.31.48.48,0,0,0,.12-.22.23.23,0,0,0,.15-.1.32.32,0,0,1,.09-.08s.07,0,.06-.1,0,0,0,0l.08-.09s0,0,0,0,.1-.07.12-.13,0-.05.07-.08a.45.45,0,0,0,.07-.08.08.08,0,0,0,0-.07l-.11-.14a.34.34,0,0,0-.1-.09c-.06,0-.11-.05-.11-.12a.07.07,0,0,0,0,0A.28.28,0,0,1,58,24.1S58,24,58,24a1.49,1.49,0,0,1-.29-.24l-.08-.06c-.11,0-.22.05-.29.17l0,0a.28.28,0,0,0-.15.14l-.08.11-.22.25c-.07.08-.16.16-.22.24a2.94,2.94,0,0,1-.3.3l0,0a.49.49,0,0,1-.21.21l0,0-.36.41c-.05.06-.13.1-.19.16s-.09.13-.15.19a1.93,1.93,0,0,0-.33.41.94.94,0,0,1-.09.12s0,.08,0,.13l0,0a.58.58,0,0,1-.18-.09l-.21-.16a.66.66,0,0,1-.18-.17.41.41,0,0,0-.09-.08l-.1-.07a4.76,4.76,0,0,1-.39-.36l-.35-.32-.23-.17a.63.63,0,0,0,0-.12.54.54,0,0,0-.06-.1s0-.07.06-.1a3.38,3.38,0,0,0,.27-.29.37.37,0,0,0,.11-.22l.09,0a.33.33,0,0,0,.06-.07,1.4,1.4,0,0,1,.22-.27.18.18,0,0,0,.05-.07,1.52,1.52,0,0,1,.08-.16.24.24,0,0,1,.11-.12.33.33,0,0,0,.12-.11.59.59,0,0,1,.14-.16.17.17,0,0,0,.06-.07c0-.08.14-.12.14-.22l0,0s.06,0,.07-.07a.79.79,0,0,1,.21-.28,3.16,3.16,0,0,0,.25-.29.17.17,0,0,1,.08-.06.13.13,0,0,0,.07-.07c0-.08.1-.12.16-.18a.69.69,0,0,0,.18-.32,2.7,2.7,0,0,0-.35-.37l-.15-.13a.6.6,0,0,1-.1-.11.58.58,0,0,0-.23-.17.07.07,0,0,0-.09,0c-.09.14-.22.25-.31.39s-.12.08-.14.16l0,0c-.1,0-.16.12-.24.19s-.19.22-.32.3l-.05.05a.56.56,0,0,1-.22.19.4.4,0,0,1-.15.22l-.22.21a.85.85,0,0,0-.19.24.36.36,0,0,1-.09.1.42.42,0,0,0-.13.16l0,0-.38.35-.06,0c-.07,0-.14.05-.19.12s0,0-.07,0h-.1l0-.07a.56.56,0,0,0-.22-.25c-.16-.1-.29-.23-.44-.35h0a3.47,3.47,0,0,0-.32-.34l-.13-.17a5.07,5.07,0,0,0-.36-.39l-.21-.22a.11.11,0,0,1,0-.13h0a.11.11,0,0,0,.15,0,.16.16,0,0,1,.08,0,.25.25,0,0,0,.2-.1.92.92,0,0,1,.21-.21.25.25,0,0,0,.07-.1.69.69,0,0,1,.15-.17.43.43,0,0,0,.15-.22.12.12,0,0,0,.16,0h0a1.72,1.72,0,0,1,.33-.36l.06-.06A1.31,1.31,0,0,1,52,20.4l0,0a.28.28,0,0,1,.12-.13.18.18,0,0,0,.08-.06c.06-.13.18-.2.25-.33s.07-.06.1-.1a.85.85,0,0,0,.19-.22s.05,0,.09-.07a.22.22,0,0,0-.08-.26,1.9,1.9,0,0,0-.32-.28.9.9,0,0,1-.19-.2.37.37,0,0,1-.11-.17.17.17,0,0,0-.06-.08l-.3-.24a.21.21,0,0,0-.15.12.55.55,0,0,1-.23.21.24.24,0,0,0-.1.09l-.05.08a2.4,2.4,0,0,0-.22.31.24.24,0,0,1-.12.13,2.47,2.47,0,0,1-.37.36c-.06.12-.2.18-.26.31s-.1.13-.17.19a2.07,2.07,0,0,0-.18.18l-.1.11c-.14.17-.26.35-.4.53a.23.23,0,0,0,0,.06.31.31,0,0,1-.13.16,1.17,1.17,0,0,0-.12.11,1.61,1.61,0,0,1-.17.15c-.07,0-.1,0-.15,0a.2.2,0,0,0-.11-.08,1.34,1.34,0,0,1-.3-.2.1.1,0,0,1,0-.06c0-.1-.1-.16-.13-.25a.1.1,0,0,0,0,0,3.56,3.56,0,0,1-.38-.37.64.64,0,0,0-.27-.3h0a1,1,0,0,0-.27-.3.2.2,0,0,1-.06-.23,1.07,1.07,0,0,0,0-.12.22.22,0,0,1,.15-.19l.09,0,0,0a.38.38,0,0,1,.23-.1.1.1,0,0,0,.08-.06.71.71,0,0,1,.32-.29.2.2,0,0,0,.07-.07,1.53,1.53,0,0,1,.13-.16c.08-.1.17-.19.24-.29A.22.22,0,0,1,48.7,18a.24.24,0,0,0,.14-.17.1.1,0,0,1,0-.06c.08,0,.11-.13.18-.18s0-.11.12-.1l.06-.1a.16.16,0,0,0,.16-.1c0-.08.12-.14.16-.22l.05-.05a.89.89,0,0,0,.2-.16.35.35,0,0,0,.08-.09l0-.05a.13.13,0,0,0,.05-.09.77.77,0,0,1,0-.12L50,16.45a2,2,0,0,1-.17-.21,1.3,1.3,0,0,0-.2-.21,1.78,1.78,0,0,1-.15-.13c0-.05-.12-.07-.14-.14l0,0a.94.94,0,0,1-.25-.22,2.39,2.39,0,0,0-.37-.34l0,0c-.05-.1-.16-.14-.23-.22a.52.52,0,0,1-.13-.16.13.13,0,0,0-.07-.06.48.48,0,0,1-.18-.14.93.93,0,0,0-.12-.09c-.11-.1-.25-.15-.32-.28s0,0-.07-.06a1.34,1.34,0,0,1-.15-.17,1,1,0,0,0-.17-.19,2.28,2.28,0,0,0-.23-.17.19.19,0,0,1,0-.33s0,0,.06,0a.24.24,0,0,1,.15-.13l.05,0a1,1,0,0,1,.29-.24.54.54,0,0,0,.16-.16c0-.08.1-.15.15-.22a.26.26,0,0,1,.11-.1.36.36,0,0,0,.17-.14.28.28,0,0,1,.07-.06l0,0c.08-.12.21-.17.31-.26s.09,0,.14,0a.07.07,0,0,1,.1,0,.39.39,0,0,0,.14.11.07.07,0,0,1,0,0,.37.37,0,0,0,.19.19,1.36,1.36,0,0,1,.25.22,1.28,1.28,0,0,0,.21.17l.06,0,.14.14.06.07s0,0,0,0,.1.07.14.11a3.25,3.25,0,0,0,.31.29c0,.11.16.14.23.23a1,1,0,0,0,.24.21,1.19,1.19,0,0,1,.3.27l.06,0a.94.94,0,0,1,.25.2l.07.06a.78.78,0,0,1,.2.22,1,1,0,0,0,.07.1l.14.13a1.56,1.56,0,0,1,.33-.27l0-.1s0-.05,0-.07.13-.16.24-.18a.1.1,0,0,0,.07-.07.2.2,0,0,1,.06-.08c.12-.09.19-.22.31-.31s0,0,0-.07a.11.11,0,0,0,0-.06.78.78,0,0,1-.16-.15,1.12,1.12,0,0,0-.29-.28.12.12,0,0,1-.05-.05c0-.07-.12-.11-.15-.19l0,0a.75.75,0,0,1-.22-.2l-.09-.08c-.06-.06-.14-.1-.16-.2a.08.08,0,0,0,0,0,1.89,1.89,0,0,1-.31-.24,4.11,4.11,0,0,1-.32-.3l-.06-.07a.58.58,0,0,0-.13-.12.5.5,0,0,1-.17-.15.2.2,0,0,0-.1-.08.47.47,0,0,1-.16-.11.55.55,0,0,0-.15-.11.35.35,0,0,1-.23-.3c-.09-.05-.2-.09-.21-.23l.36-.39a.31.31,0,0,0,.07-.08.5.5,0,0,1,.15-.18.51.51,0,0,0,.13-.15l.06-.07a1.57,1.57,0,0,0,.23-.3A.66.66,0,0,1,51,9.26a.66.66,0,0,0,.11-.16c0-.06.08-.11.11-.18a.12.12,0,0,1,.07-.05.29.29,0,0,1,.19,0,.48.48,0,0,0,.21.31s.05,0,.06.07.09.12.15.17a2.39,2.39,0,0,1,.2.19h0c.08.1.2.15.28.25a2.86,2.86,0,0,0,.26.27l0,.06a1.93,1.93,0,0,0,.3.3.53.53,0,0,1,.13.13.32.32,0,0,0,.15.15h0c0,.07.13.1.18.16a1.29,1.29,0,0,0,.19.17s.09.06.12.12l0,0,.31.24a.59.59,0,0,1,.12.12.79.79,0,0,0,.24.24l.23-.11,0,0a4.77,4.77,0,0,1,.4-.43s0-.08.08-.11a1.53,1.53,0,0,1,.3-.27.58.58,0,0,0,.15-.15.76.76,0,0,0,.06-.1s0,0,0-.06a.41.41,0,0,1-.15-.15c-.06-.09-.15-.11-.24-.16s-.07,0-.1,0a2.77,2.77,0,0,0-.36-.35.58.58,0,0,1-.12-.12.56.56,0,0,0-.13-.14c-.15-.11-.27-.25-.42-.37s-.33-.3-.49-.45l-.21-.18-.09-.08s-.08-.1-.14-.11l0,0c-.11-.12-.25-.21-.36-.32s-.14-.2-.24-.27a0,0,0,0,1,0,0,.16.16,0,0,0,0-.14.09.09,0,0,1,0-.1.71.71,0,0,1,.29-.3A.15.15,0,0,0,53,7.13.22.22,0,0,1,53.15,7l0,0a.26.26,0,0,0,.15-.32.41.41,0,0,1,0-.07.26.26,0,0,1,.2-.06c.06,0,.11,0,.12-.08a.5.5,0,0,1,.09-.17.67.67,0,0,0,0-.08A.21.21,0,0,1,54,6,.2.2,0,0,0,54.11,6a.16.16,0,0,1,.17-.07c.06.08.12.16.18.23l.2.18a1.26,1.26,0,0,1,.15.17.51.51,0,0,1,0,.1s.07.05.08.08,0,.07.08.05h0c.06.07.16.1.2.2s0,0,.06,0l0,.06,0,0h.06s0,0,0,0a.08.08,0,0,0,.08.09.15.15,0,0,1,.08.07,1.1,1.1,0,0,0,.31.32s.06.09.1.13a1.31,1.31,0,0,1,.14.09c.08.07.14.16.21.24l0,0a2.57,2.57,0,0,1,.38.35s.11.07.13.14,0,0,0,0,.16.12.2.22a.15.15,0,0,0,.06.06,1.05,1.05,0,0,1,.15.09.2.2,0,0,0,.17,0l.24-.26s.09,0,.14-.07l0-.08A.29.29,0,0,1,58,8.38a.89.89,0,0,0,.19-.19.76.76,0,0,1,.12-.11L58.4,8c0-.06,0-.09,0-.14s-.38-.32-.56-.49a3.31,3.31,0,0,1-.43-.49l-.07-.07a1,1,0,0,1-.22-.21L57,6.54l-.21-.17c-.07-.06-.06-.06-.08-.15l-.51-.44L56,5.6s0-.07-.08-.09-.19-.16-.31-.19a.29.29,0,0,0-.12-.19A.15.15,0,0,1,55.45,5l0-.09a.14.14,0,0,1,.09-.11.35.35,0,0,0,.18-.16c0-.05.09-.07.12-.11a.3.3,0,0,1,.13-.1.2.2,0,0,0,.1-.09.14.14,0,0,1,0-.06.18.18,0,0,0,.08-.2h.09a.25.25,0,0,0,.09,0l.14-.15,0-.11c.06,0,.11-.07.17,0a.11.11,0,0,0,.16,0L57,3.54a.28.28,0,0,1,.18-.07h.25c.06.09.1.18.16.26s.14.15.2.23a1.89,1.89,0,0,0,.27.24l0,0a1,1,0,0,0,.24.24l.3.26a.75.75,0,0,0,.22.16s0,0,.05.06l.2.25.06.05.08.11a.88.88,0,0,0,.2.26c.05,0,0,.11.09.17s.13.1.21.15a1.6,1.6,0,0,1,.2.16s0,0,.06.05a.23.23,0,0,1,.15.14.31.31,0,0,0,.2-.1l.17-.13a.28.28,0,0,1,.15-.19,1.13,1.13,0,0,0,.22-.24.44.44,0,0,1,.24-.21.47.47,0,0,0,.14-.09l0-.12a.91.91,0,0,0-.33-.35,1.36,1.36,0,0,1-.24-.21,1.76,1.76,0,0,1-.3-.34c0-.06-.1-.06-.16-.09A.48.48,0,0,0,60.1,4s0,0,0-.06A.4.4,0,0,0,60,3.85a.41.41,0,0,1-.13-.14h0c-.14-.06-.21-.22-.34-.3a.24.24,0,0,1-.08-.11.41.41,0,0,0-.12-.16A.38.38,0,0,1,59.22,3a.68.68,0,0,0-.1-.13l-.24-.29-.07-.06s0,0-.06,0a.93.93,0,0,0-.2-.22.19.19,0,0,1-.07-.2.12.12,0,0,0,0-.12c-.1-.12,0-.21,0-.31a1.46,1.46,0,0,1,.22-.23.51.51,0,0,0,.17-.21c.1-.07.15-.2.24-.27s.24-.2.37-.3l.14,0a.24.24,0,0,0,.11-.11.16.16,0,0,1,.19-.08.38.38,0,0,1,.21.11.63.63,0,0,0,.23.17l.08,0,.2.16a.69.69,0,0,1,.16.16.85.85,0,0,0,.12.14,1.41,1.41,0,0,1,.23.27s.07,0,.09.08a1.57,1.57,0,0,0,.31.29.89.89,0,0,1,.22.25.44.44,0,0,0,.13.13.64.64,0,0,1,.17.15.25.25,0,0,0,.08.07.93.93,0,0,1,.23.21.12.12,0,0,0,.06,0c.08,0,.12.08.15.14a.27.27,0,0,0,.1.11.51.51,0,0,1,.1.09,1.09,1.09,0,0,0,.32.24l.07-.07a.78.78,0,0,1,.22-.18.77.77,0,0,0,.16-.12l.11-.08c.07,0,.14-.09.15-.18s.14-.27.22-.4a.59.59,0,0,1,.24-.23.32.32,0,0,0,.16-.16.41.41,0,0,1,.12-.14.36.36,0,0,0,.16-.19s0,0,.06-.06a.36.36,0,0,0,.11-.12A1.73,1.73,0,0,1,65.2,1a.14.14,0,0,0,.05-.07.17.17,0,0,1,.11-.13l0,0A.31.31,0,0,1,65.6.53l0,0c0-.08.11-.11.17-.16a.72.72,0,0,0,.06-.13A.21.21,0,0,1,66,.06L66.12,0l.13,0,.06.1a.81.81,0,0,0,.19.25.28.28,0,0,1,.07.08c.06.11.16.19.23.3A1.18,1.18,0,0,0,67,1a.84.84,0,0,1,.19.18.15.15,0,0,0,.17.08.21.21,0,0,1,.19.06c0,.15,0,.29.08.44a.53.53,0,0,0,.07.13.27.27,0,0,1-.11.16l-.16.16a5.09,5.09,0,0,1-.41.4,3.31,3.31,0,0,0-.3.32c-.11.12-.2.26-.31.37a2,2,0,0,1-.26.29l0,0c0,.14-.17.2-.25.3l0,0c-.12,0-.16.15-.22.24a.93.93,0,0,1-.19.23,2,2,0,0,0-.21.22l0,0a.35.35,0,0,0-.13.2l0,.08H65a.23.23,0,0,0,0,.07l.12.12a.41.41,0,0,1,.1.13c0,.05.06.08.09.12l0,.06s.1,0,.12.08a.43.43,0,0,0,.09.12h0c0,.09.06.1.12.14l.12.09.09.07.1-.09.1-.07a.11.11,0,0,0,0,0c0-.08.09-.13.15-.19a.75.75,0,0,0,.15-.17l0,0c.17-.11.26-.29.39-.44l.07-.08.33-.31s0,0,0-.06l.12-.13a.59.59,0,0,0,.16-.2.31.31,0,0,1,.07-.08l0,0a.35.35,0,0,1,.15-.19.17.17,0,0,0,0-.08A.33.33,0,0,1,68,3.63a2,2,0,0,0,.22-.22l.19-.2.11-.13A.36.36,0,0,0,68.66,3a.73.73,0,0,1,.18-.09.43.43,0,0,0,.05.1l.09.06a.45.45,0,0,1,.09.08,1.7,1.7,0,0,0,.27.27l0,.06a1.88,1.88,0,0,0,.27.3l.05,0a.62.62,0,0,1,.12.11,1.14,1.14,0,0,0,.31.31.69.69,0,0,1,.18.2l.19.27a.16.16,0,0,1-.09.13.28.28,0,0,0-.09.1,1.43,1.43,0,0,1-.3.36,3.42,3.42,0,0,0-.3.28l-.32.32-.16.19a3.24,3.24,0,0,1-.36.41l-.08.09a.8.8,0,0,1-.19.2.26.26,0,0,0,0,.06l-.08.11L68.41,7s0,.07-.09.08h0l-.3.36a.82.82,0,0,0-.07.14l0,.12-.2,0c0,.09,0,.09.15.11a.3.3,0,0,0,.13.17s.06.08.1.12a.26.26,0,0,1,.18.11.27.27,0,0,0,.07.06.53.53,0,0,0,.12.08s.07.06.1.09l.19.17a.17.17,0,0,0,.21,0,.56.56,0,0,0,.18-.16l0,0c.15-.06.22-.22.33-.32L69.77,8a1.24,1.24,0,0,0,.18-.21,1.83,1.83,0,0,1,.32-.34.72.72,0,0,0,.12-.13c.07-.1.16-.19.23-.28s.13-.17.25-.18A.4.4,0,0,1,71,6.57c.11-.17.29-.28.42-.44s.07,0,.09-.08S71.7,6,71.78,6l0,0,.16.16.16.16.24.24a.47.47,0,0,1,.05.08c.1,0,.16.07.23.13a.57.57,0,0,0,.23.16l0,0,.28.26a.24.24,0,0,0,.07.06.14.14,0,0,1,.08.11l.07.23a.63.63,0,0,1-.16.26A2.76,2.76,0,0,1,73,8.1a2,2,0,0,0-.33.33,4.56,4.56,0,0,1-.35.4L72.15,9a2,2,0,0,1-.3.3.72.72,0,0,0-.14.14,4,4,0,0,1-.27.31,2.25,2.25,0,0,0-.3.35.25.25,0,0,1-.07.06l-.06,0a1.21,1.21,0,0,1-.22.23.56.56,0,0,0,.12.19s.08.11.12.15.1.07.14.11a1,1,0,0,0,.13.12.47.47,0,0,1,.09.12.58.58,0,0,0,.3.24l.08,0,.22-.14s0,0,0-.05l0-.06.27-.33a2,2,0,0,1,.18-.16l0,0c.06-.11.16-.19.22-.29a.73.73,0,0,1,.18-.19,3.59,3.59,0,0,0,.42-.4l.21-.22.05-.05.28-.32,0,0A.11.11,0,0,0,74,9.06.13.13,0,0,1,74.12,9l.06,0a.25.25,0,0,0,.09-.25.23.23,0,0,1,0-.06c.11-.12.21-.06.31,0l.08-.05a.55.55,0,0,0,.22.37l.26.24.52.51.07.08.06.07.11.1c.08.09.09.12.06.25l.07,0,.07,0,.06.13a.55.55,0,0,1-.27.26,1.11,1.11,0,0,0-.24.2.16.16,0,0,0,0,.16.19.19,0,0,1-.08.2,1.67,1.67,0,0,1-.29.24c-.06.08-.16.12-.2.22l0,0-.3.3-.08,0a.11.11,0,0,0-.07.07l0,0c-.1,0-.12.1-.16.16a.5.5,0,0,1-.17.17.29.29,0,0,0-.07.06s0,.05-.06.07a.36.36,0,0,0-.15.17.36.36,0,0,1-.1.11,1.41,1.41,0,0,0-.34.41.44.44,0,0,0,.14.2l.06,0a4.1,4.1,0,0,0,.32.34c0,.1.12.15.17.23a.36.36,0,0,0,.1.09.39.39,0,0,1,.1.09.51.51,0,0,0,.1.09l.09-.07.12-.1a.78.78,0,0,0,.21-.23c.07-.11.14-.24.29-.28a1.81,1.81,0,0,0,.21-.19.61.61,0,0,0,.08-.19.2.2,0,0,1,.08-.12s0,0,0,0a.9.9,0,0,1,.22-.25l.08-.09s0,0,0,0,.11-.1.16-.16a1.11,1.11,0,0,1,.15-.15.29.29,0,0,0,.11-.13.21.21,0,0,1,.11-.12l0,0s0-.11.1-.13.07-.07.1-.11.05-.1.09-.14l.21-.2.2-.16h.07s.05,0,.07,0,.19.06.27.1l.06,0,.1.09.09.08a.34.34,0,0,0,.08.07.38.38,0,0,1,.17.18,1.53,1.53,0,0,0,.33.4,4.19,4.19,0,0,0,.3.3.28.28,0,0,1,.06.1.17.17,0,0,0,.14.11l0,0ZM57.63,20.45l.14.07.12.11a1.69,1.69,0,0,0,.4.36,1,1,0,0,0,.21.21,1.56,1.56,0,0,0,.17.15.3.3,0,0,1,.08.09.56.56,0,0,0,.16.18c.1.06.18.14.27.21a.25.25,0,0,1,.09.1.16.16,0,0,0,.1.09.41.41,0,0,1,.16.11,2.18,2.18,0,0,0,.27.24,1.82,1.82,0,0,0,.21.19s.06.09.09.13l.12.11a.76.76,0,0,1,.12.13.23.23,0,0,0,.09.09.3.3,0,0,1,.13.13c0,.07.07.15.16.17l0,0a.38.38,0,0,0,.11.12c.08.07.15.15.22.22a1,1,0,0,1,.22.24s0,0,0,0a1.6,1.6,0,0,1,.28.25s0,0,.05.05l.19.08a.43.43,0,0,1,.28.33l0,.11.15.1.31.22,0,0a.27.27,0,0,0,.17.16s0,0,.05.05a1,1,0,0,0,.2.16l0,0c.05.09.15.11.22.17l.07-.06a1,1,0,0,0,.21-.19,1.15,1.15,0,0,0,.2-.22.42.42,0,0,1,.14-.13.3.3,0,0,0,.1-.11l.09,0a.37.37,0,0,1,.12-.27.77.77,0,0,0,.19-.27.47.47,0,0,1,.15-.18,1.26,1.26,0,0,1,.23-.15A.54.54,0,0,0,65,24a2.72,2.72,0,0,0,.19-.21.26.26,0,0,1,.12-.11.11.11,0,0,0,.05-.05.23.23,0,0,1,.1-.11.2.2,0,0,0,.08-.09,1.11,1.11,0,0,1,.19-.27,2.48,2.48,0,0,0,.29-.39.42.42,0,0,1,.19-.18.25.25,0,0,0,.1-.09l.18-.24a.37.37,0,0,1,.14-.11A1,1,0,0,0,67,22l.1-.11.23-.21a.31.31,0,0,0,0-.06l0-.06a.55.55,0,0,1,.15-.12,1.72,1.72,0,0,0,.25-.2,2.6,2.6,0,0,0,.22-.31.22.22,0,0,1,.11-.1l.15-.08s.07-.08.13-.1a.62.62,0,0,0,.15-.09s0,0,0,0,.09-.09.13-.12.11-.14.19-.19A.2.2,0,0,0,69,20s0-.05.07-.08l.13-.11.14-.09a.62.62,0,0,0,.21-.14.46.46,0,0,1,.22-.15s0,0,0,0,.06-.08.09-.12.05,0,.07-.08a.21.21,0,0,1,.09-.12.11.11,0,0,0,0-.06.38.38,0,0,1,.23-.22.17.17,0,0,0,.08-.06.69.69,0,0,1,.14-.16,3.47,3.47,0,0,0,.24-.27,1.63,1.63,0,0,1,.38-.37s0,0,.05-.05a.25.25,0,0,1,.07-.11l.21-.22a1.83,1.83,0,0,1,.29-.3,1.86,1.86,0,0,0,.15-.15,2.75,2.75,0,0,1,.29-.31l.05-.05c.07-.07.11-.17.2-.22a.05.05,0,0,0,0,0c0-.1.07-.16.13-.23l0-.07-.1-.14-.26-.31-.05,0a2.55,2.55,0,0,1-.42-.42c-.1-.11-.18-.24-.28-.35a.78.78,0,0,0-.25-.21.27.27,0,0,1-.14-.15.19.19,0,0,0-.11-.11.55.55,0,0,1-.24-.22.68.68,0,0,0-.26-.25,1.11,1.11,0,0,1-.2-.14.49.49,0,0,0-.16-.11.14.14,0,0,1-.07-.06,1.21,1.21,0,0,0-.27-.27.62.62,0,0,1-.23-.3s0,0,0,0L69.54,13s0-.05-.06-.07a1.2,1.2,0,0,1-.25-.22.63.63,0,0,0-.14-.13.28.28,0,0,1-.12-.1.2.2,0,0,0-.06-.07.74.74,0,0,1-.19-.21,1.5,1.5,0,0,0-.33-.33c-.08-.05-.14-.13-.22-.18l0,0a.6.6,0,0,0-.18-.19.87.87,0,0,1-.22-.25.81.81,0,0,0-.17-.19,1.31,1.31,0,0,0-.21-.17,1,1,0,0,1-.31-.32.34.34,0,0,0-.09-.11.52.52,0,0,1-.15-.15.3.3,0,0,0-.14-.11.45.45,0,0,1-.2-.17.89.89,0,0,0-.2-.22A2.53,2.53,0,0,1,66,9.59a.26.26,0,0,1-.07-.1.13.13,0,0,0-.1-.09.18.18,0,0,1-.14-.14s0-.06-.07,0-.08,0-.1,0a1.55,1.55,0,0,0-.33-.35l-.06-.06a.47.47,0,0,0-.19-.15,1.2,1.2,0,0,1-.21-.11,1.56,1.56,0,0,1-.2-.19.21.21,0,0,1,0-.08.7.7,0,0,1,0-.07c-.07,0-.11,0-.13-.08S64.32,8,64.29,8A.57.57,0,0,1,64,7.7a1.17,1.17,0,0,0-.21-.21,1.91,1.91,0,0,0-.34-.22.4.4,0,0,1-.19-.2l0-.05a.08.08,0,0,0-.13,0L63,7.14c-.12.13-.21.27-.34.39a.52.52,0,0,1-.15.12.36.36,0,0,0-.12.09A1.06,1.06,0,0,1,62.1,8a1.23,1.23,0,0,1-.23.22.46.46,0,0,1-.15.12.09.09,0,0,0,0,0,.46.46,0,0,1-.14.14.76.76,0,0,0-.24.28.32.32,0,0,1-.06.09L61,9.09l-.12.12-.07.07a1.41,1.41,0,0,0-.17.17c0,.07-.13.09-.18.16a.74.74,0,0,1-.21.2c-.12.07-.18.22-.32.27h0c0,.07-.08.09-.12.13a.53.53,0,0,1-.19.15l0,0c0,.1-.12.12-.18.17s-.06.08-.1.11a.88.88,0,0,0-.17.17c-.06.07-.12.16-.22.17s0,0,0,0a.37.37,0,0,1-.06.07,2,2,0,0,0-.33.29l0,0a1.59,1.59,0,0,0-.26.27,1.48,1.48,0,0,1-.21.21l-.06,0a.06.06,0,0,0,0,.05s0,.07-.07.09a1,1,0,0,0-.23.18c-.06.08-.15.12-.21.19h0c-.05.05-.11.1-.16.16a2,2,0,0,0-.15.16.15.15,0,0,1-.07.06.36.36,0,0,0-.15.13.84.84,0,0,1-.19.17.62.62,0,0,0-.11.1.93.93,0,0,1-.19.17.12.12,0,0,0-.05,0c0,.07-.09.11-.14.15L56,13.8c-.08.08-.15.2-.27.24s0,0,0,0a2,2,0,0,1-.19.22.67.67,0,0,0-.21.21l0,0-.08.07-.22.23s0,0-.05.05a.42.42,0,0,1-.16.18l-.06.07-.08.09-.32.33a1.68,1.68,0,0,0-.17.17,3.43,3.43,0,0,1-.32.36c-.09.09-.14.2-.23.29a.8.8,0,0,0,.17.19c.09.07.2.12.24.25h0c.12.09.2.22.32.31l.1.09c.1.1.18.22.28.32a.76.76,0,0,1,.15.19c0,.08.13.11.17.19l0,0c0,.09.1.12.16.17l.12.1a.42.42,0,0,1,.12.17.22.22,0,0,0,.2.17l.08.13s.1,0,.12,0a1,1,0,0,0,.17.19l.23.26s.1.06.13.1a1.17,1.17,0,0,0,.35.29.76.76,0,0,1,.24.23.5.5,0,0,0,.09.1,1.52,1.52,0,0,0,.26.18s.09,0,.1.1,0,0,.07.05a.4.4,0,0,1,.08.06C57.58,20.33,57.59,20.4,57.63,20.45Zm20.78-1.34c0,.07.07.09.11.06a.2.2,0,0,0,.06-.15Zm-1.13-7.3.21.12a.11.11,0,0,0-.08-.12S77.34,11.77,77.29,11.81ZM64.67,29c-.06-.11-.06-.12-.17-.12S64.6,28.94,64.67,29ZM48.76,12.22c0-.05,0-.1,0-.13S48.66,12.18,48.76,12.22ZM65,30.54l.08.08h0a0,0,0,0,0,0,0S65,30.53,65,30.54Zm0-1.38c-.06-.09-.06-.09-.13-.07S64.84,29.15,64.91,29.16ZM52,23.47l-.06,0s0,0,0,0a0,0,0,0,0,.05,0ZM69.09,5.66c.07,0,.07,0,.1,0v0ZM64.29,29.94l0,0,0,.07h0s0,0,0,0ZM50.79,10.76h0a0,0,0,0,0,0,.06l0,0,0,0S50.8,10.78,50.79,10.76Zm14-2.66c0,.07,0,.07.08.08Zm.13,22.35,0,0h0s0,0,0,0Zm11-20.22h0ZM71.76,6.39v0h0l0,0ZM60.13,9.49l0,0s0,0,0,0l0,0Zm-.5,14.75h0ZM69.28,12.4h0l0,0Zm6.43-2.21h0v0Zm-6.63,2v0h0l0,0Z"/><path class="cls-1" d="M53.43,24.18a.2.2,0,0,1,.15-.12s.05,0,.09,0a.26.26,0,0,1-.09.16A.14.14,0,0,1,53.43,24.18Z"/><path class="cls-1" d="M65.87,27.15l0,0a0,0,0,0,1,0,0h0l0,0Z"/><path class="cls-1" d="M68,7.86l0,0,0,0,0,0Z"/><path class="cls-1" d="M68.47,8.26h0v0h0Z"/><path class="cls-1" d="M74.74,23.53h0Z"/><path class="cls-1" d="M68.83,16.43l-.09,0a.33.33,0,0,0-.22.13l-.18.22-.06.05a.74.74,0,0,0-.21.21c0,.06-.07.13-.14.14s-.09.09-.12.16-.12.09-.14.17l0,0a.16.16,0,0,0-.13.09.22.22,0,0,1-.09.1l0,0a.61.61,0,0,1-.2.23.91.91,0,0,0-.15.17l-.25.32-.06.06a.42.42,0,0,0-.14.16.24.24,0,0,1-.13.12l-.07.05a.39.39,0,0,1-.1.07.18.18,0,0,0-.1.08l-.17.23a.15.15,0,0,1-.06.05c-.14.06-.21.18-.32.28l-.29.28a1.86,1.86,0,0,1-.2.14c-.06,0-.1.11-.16.16a.33.33,0,0,0-.14.14c-.09,0-.1.12-.16.17l-.17.15c-.05,0-.08.12-.16.14l0,0a1.73,1.73,0,0,1-.28.35c0,.14-.19.23-.18.39a.1.1,0,0,1-.05.07.26.26,0,0,0-.11.15.35.35,0,0,1-.21.21c-.09,0-.12-.11-.18-.18l-.2-.06-.05,0a1.16,1.16,0,0,0-.28-.25.14.14,0,0,1,0-.06.36.36,0,0,0-.11-.12.16.16,0,0,1-.05-.05.59.59,0,0,0-.21-.21.4.4,0,0,1-.12-.11.56.56,0,0,0-.17-.17c-.1-.08-.17-.19-.28-.26l-.15-.12s-.07-.1-.12-.14l-.33-.33a2.29,2.29,0,0,1-.21-.24,1,1,0,0,0-.29-.26,1.13,1.13,0,0,1-.31-.31l-.16-.18-.4-.42,0-.06a.43.43,0,0,0-.16-.18,1.31,1.31,0,0,1-.17-.17L59.36,18a.69.69,0,0,1-.22-.26.23.23,0,0,0-.08-.09.4.4,0,0,1-.12-.11l-.28-.32,0,0c-.09,0-.12-.09-.17-.14l-.15-.15a1.28,1.28,0,0,0-.23-.24,1.06,1.06,0,0,1-.28-.3.19.19,0,0,1,.08-.3s0,0,.05,0,.19-.19.26-.31a.74.74,0,0,1,.3-.32.19.19,0,0,0,.08-.07,3.3,3.3,0,0,1,.28-.33.87.87,0,0,1,.24-.24c0-.06.09-.08.1-.15s0,0,.07-.06.11-.06.12-.14,0,0,.06-.06a.08.08,0,0,0,0-.07s0,0,0,0,.07,0,.1-.09.06,0,.1,0a.26.26,0,0,1,0-.09.34.34,0,0,1,.09-.06.33.33,0,0,0,.09-.06.58.58,0,0,1,.2-.16.43.43,0,0,0,.14-.15.58.58,0,0,1,.31-.26v-.12a.24.24,0,0,0,.16-.12.26.26,0,0,1,.1-.09.56.56,0,0,0,.11-.11.86.86,0,0,1,.2-.18,1.12,1.12,0,0,0,.18-.14.12.12,0,0,0,0-.06c0-.07.06-.1.11-.14a.36.36,0,0,0,.11-.1.7.7,0,0,1,.13-.15.22.22,0,0,0,.09-.19l0,0a.54.54,0,0,0,.24-.2l0,0a.82.82,0,0,0,.13-.09s.05-.1.11-.12,0,0,0,0,.07-.1.11-.14l.11-.12.08-.09a.54.54,0,0,0,.13-.12A.29.29,0,0,1,63,10.9l.25-.11a.14.14,0,0,1,.1.06s0,.06.07.07a.81.81,0,0,1,.25.17l.11.08.07.08a.74.74,0,0,0,.15.15.7.7,0,0,1,.23.29s.1,0,.13.08,0,0,.07.06a.26.26,0,0,1,.09.1.35.35,0,0,0,.07.08l.08.09a1,1,0,0,0,.18.15.43.43,0,0,1,.17.14,1.25,1.25,0,0,0,.26.25,1,1,0,0,1,.16.14c.05.06.13.09.17.17a1.1,1.1,0,0,1,.07.12.33.33,0,0,0,.14.15.4.4,0,0,1,.17.16.28.28,0,0,0,.11.1.39.39,0,0,1,.15.17c0,.05.06.11.13.11l0,0,.28.26.14.14.22.27a1.4,1.4,0,0,0,.26.24,2.33,2.33,0,0,1,.2.18.85.85,0,0,1,.17.17.65.65,0,0,0,.15.17.75.75,0,0,1,.19.17l.09.16a.16.16,0,0,0,.08.08.68.68,0,0,1,.15.1s.11.06.1.14,0,0,0,0l.07.05a1.79,1.79,0,0,1,.32.25.09.09,0,0,1,0,.1Zm-7.69-.08.1.11a.8.8,0,0,1,.09.1.44.44,0,0,0,.14.13.8.8,0,0,1,.16.14,1.5,1.5,0,0,0,.28.25.8.8,0,0,1,.21.19c.08.11.2.17.25.3l0,0a.14.14,0,0,1,.08.09.16.16,0,0,0,.1.11.14.14,0,0,1,.07.05.36.36,0,0,0,.15.14l.16.12s.07.09.11.12l.15.1a.38.38,0,0,1,.08.09c0,.08.07.09.14,0l.09-.08a.25.25,0,0,1,.15-.09.09.09,0,0,0,.08-.08.18.18,0,0,1,.06-.13s.06-.09.11-.12a1.71,1.71,0,0,0,.21-.2.45.45,0,0,1,.07-.08,1,1,0,0,0,.19-.18l.06-.06.12-.11a2.06,2.06,0,0,1,.23-.21A.69.69,0,0,0,65,17a2.5,2.5,0,0,1,.29-.29,3.74,3.74,0,0,0,.27-.29.1.1,0,0,0,0-.11,1.85,1.85,0,0,0-.13-.22,3.47,3.47,0,0,1-.25-.29l0,0a.36.36,0,0,1-.14-.14.84.84,0,0,0-.2-.19l-.05-.05c-.12-.08-.17-.24-.32-.29L64,14.66a1.79,1.79,0,0,0-.16-.16l-.2-.17-.3-.26,0,0-.16.16a.66.66,0,0,0-.16.21.66.66,0,0,1-.12.16l-.06.06-.23.25-.17.19s0,.06-.07.08a.3.3,0,0,0-.11.1.22.22,0,0,1-.06.06.5.5,0,0,0-.13.11l-.08.06-.07.05a1.63,1.63,0,0,1-.17.12.72.72,0,0,0-.21.23l-.1.15c0,.07-.12,0-.17.07Zm6.14-1.26.06.21.08,0s0,.05.08,0-.07-.06-.08-.12A.24.24,0,0,0,67.27,15.09Zm-3.54-3.48,0,0s0,0,0,0l0,0Zm-4.16,3h0Z"/></g></g></svg>