<svg xmlns="http://www.w3.org/2000/svg" viewBox="0 0 145.17 93.25"><defs><style>.cls-1{fill:#333;}</style></defs><title>logo-main</title><g id="Layer_2" data-name="Layer 2"><g id="Layer_1-2" data-name="Layer 1"><path class="cls-1" d="M101.54,22.92a.7.7,0,0,0,0,.1.26.26,0,0,1-.33.23h0l-.22.4s-.07.1-.06.14,0,.21-.19.21,0,0-.06,0,0,.16-.12.19-.12.1-.18.15l-.05.06,0,.12c-.06.05-.17,0-.22.11s-.12.14-.17.21a.44.44,0,0,0-.07.14c-.05.19-.05.19-.27.29a.14.14,0,0,0-.06,0,2.23,2.23,0,0,1-.39.41A.3.3,0,0,0,99,26a.17.17,0,0,1-.07.13c-.14.08-.18.27-.35.3,0,0,0,0,0,0a.8.8,0,0,1-.26.34c-.13.29-.43.44-.58.7a1,1,0,0,0-.3.37.4.4,0,0,1-.22.19.16.16,0,0,0-.14.15c0,.1-.13.09-.16.2a.9.9,0,0,0,.4.61l.07,0,.43.38v.14h.16a.67.67,0,0,0,.33.32.29.29,0,0,1,.08.07l.2.21a4.92,4.92,0,0,0,.59.51s.06,0,.06,0c0,.19.22.26.31.39s.15.13.16.24a.06.06,0,0,0,0,0c.16.07.21.24.32.36l.33.32.21.17a1.22,1.22,0,0,1,.23.19,1.48,1.48,0,0,0,.26.19l0,.12a.32.32,0,0,0,.24.11l.08.13a.31.31,0,0,0,.19.14l.36.12c0,.12.13.22.14.35s.08.1.12.15-.19,0-.29,0a.85.85,0,0,0,0,.11.52.52,0,0,1-.19.32l-.21.21c-.12.13-.23.28-.36.41a5.19,5.19,0,0,0-.36.47l-.24.29-.4.47a2.36,2.36,0,0,0-.23.3,1.61,1.61,0,0,1-.3.34,1,1,0,0,0-.13.13.36.36,0,0,1-.17.13l-.26.12-.28-.38-.1-.09a1.49,1.49,0,0,1-.55-.69.32.32,0,0,0-.09-.13l-.34-.26,0,0a1.69,1.69,0,0,0-.36-.33A1.83,1.83,0,0,1,97,35c-.09-.11-.24-.17-.26-.33a2.19,2.19,0,0,0-.42-.45.58.58,0,0,1-.2-.25.61.61,0,0,0-.23-.25,2.53,2.53,0,0,1-.47-.35,1.5,1.5,0,0,1-.11-.12,1,1,0,0,0-.37-.38.83.83,0,0,0-.21-.26c-.1-.09-.16-.22-.32-.22l-.24-.22a1.57,1.57,0,0,0-.13-.14s-.12,0-.17-.09a.55.55,0,0,1-.09-.15l-.26.15-.17.34a.11.11,0,0,1,0,0,.59.59,0,0,0-.34.33.34.34,0,0,1-.11.11,2.77,2.77,0,0,0-.26.2,1.91,1.91,0,0,0-.19.26s0,.08-.07.11-.29.29-.46.41a.16.16,0,0,0-.05.21l.2.06s0,0,0,.07a.2.2,0,0,0,.08.23,1.08,1.08,0,0,1,.36.49.17.17,0,0,0,0,.07l.47.49s.07.06.09.06.21.08.31.12a.77.77,0,0,1,.25.2c.23.21.42.44.64.65L95,37l.84.8.11.08S96,38,96,38a.43.43,0,0,0,.18.26,3.58,3.58,0,0,1,.46.42c.1.11.23.2.32.29v.06a.68.68,0,0,1-.43.78l-.18.12a.5.5,0,0,1-.13.09c-.14,0-.23.09-.23.25a1.63,1.63,0,0,1-.19.22.65.65,0,0,0-.2.22.77.77,0,0,1-.12.14c-.09.11-.19.21-.28.33s-.34.37-.51.55a.54.54,0,0,1-.42.18l-.1-.22-.22,0a.49.49,0,0,0-.23-.17.77.77,0,0,1-.25-.2L93.16,41a.84.84,0,0,0-.17-.09.43.43,0,0,0-.29-.39.59.59,0,0,1-.23-.19A4,4,0,0,0,92,40c-.16-.14-.3-.31-.46-.45l-.26-.23c-.13-.12-.25-.23-.37-.35a.84.84,0,0,1-.1-.21s-.06,0-.08,0-.32-.2-.42-.37a1.45,1.45,0,0,0-.22-.27,1.41,1.41,0,0,1-.21-.31.3.3,0,0,0-.19-.18.3.3,0,0,1-.19-.14c-.08-.12-.19-.21-.27-.34s-.2-.14-.31-.19-.14.13-.24.13-.07,0-.09.06a2.39,2.39,0,0,1-.43.45,1.49,1.49,0,0,0-.17.21,2.63,2.63,0,0,1-.4.41,1.28,1.28,0,0,0-.25.28c-.1.15-.19.31-.29.47a.64.64,0,0,0,.14.25,1.78,1.78,0,0,0,.47.4.7.7,0,0,1,.2.18,1.66,1.66,0,0,0,.42.41c.09.06.07.2.19.25a1,1,0,0,1,.23.18l.11.11s0,.07.07.08c.21.06.28.24.36.41l.05.11.22.1,0,.07a.51.51,0,0,0,.05.12,4.18,4.18,0,0,0,.89.86.23.23,0,0,1,.12.17c0,.19.18.29.3.4s.27.19.39.29a2,2,0,0,1,.24.29,1.31,1.31,0,0,0,.3.3,1,1,0,0,1,.16.15c.18.2.18.35,0,.58s-.31.28-.47.41a12.55,12.55,0,0,0-.92.92,1.77,1.77,0,0,1-.41.38,2.18,2.18,0,0,0-.37.35l-.31.27a.24.24,0,0,1-.31,0,1.17,1.17,0,0,0-.43-.53.93.93,0,0,1-.22-.24,2.11,2.11,0,0,0-.57-.57c-.09-.07-.21-.11-.24-.24s-.06-.06-.09-.1l-.79-.74-.06-.06c-.27-.34-.6-.62-.84-1a1.81,1.81,0,0,0-.27-.29c-.22-.21-.37-.49-.65-.64s-.36-.28-.42-.52c-.09-.08-.12-.22-.26-.27s-.25.12-.35.21-.09.11-.14.16-.13.24-.23.33a1.35,1.35,0,0,0-.25.31.57.57,0,0,1-.33.24,1.58,1.58,0,0,0-.32.25c0,.11.16.15,0,.27a.35.35,0,0,0-.27.06v.16a.3.3,0,0,0-.1,0,.13.13,0,0,0-.09.2s0,.06,0,.09c0,.22.1.36.24.48a2.08,2.08,0,0,1,.24.25c.11.14.23.27.32.42a.59.59,0,0,0,.23.18.9.9,0,0,1,.44.56,1.54,1.54,0,0,0,.07.16.39.39,0,0,1,.43.26c.07.18.24.26.36.39s.29.26.45.38.23.2.35.3l.32.29c.25.23.49.48.74.7a3.74,3.74,0,0,1,.34.38,1.52,1.52,0,0,1-.14.6.5.5,0,0,1-.23.26c-.05,0-.12.07-.14.12a1.69,1.69,0,0,1-.33.43s-.09.07-.11.12a.44.44,0,0,1-.29.29s-.05,0-.07.08c-.12.23-.34.39-.46.62,0,0-.06,0-.08.07s-.12.13-.13.2a.19.19,0,0,1-.13.18.26.26,0,0,0-.12.1.4.4,0,0,1-.39.23s0,0-.07.06a.57.57,0,0,0-.06-.14S84.06,52,84,52a1.54,1.54,0,0,1-.21-.17,1.43,1.43,0,0,0-.37-.32c-.07,0-.1-.12-.15-.18S83,51.16,83,51s0,0-.06-.05a3.57,3.57,0,0,1-.69-.63.68.68,0,0,1-.2-.4,1.41,1.41,0,0,1-.66-.46l-.19-.19a1.11,1.11,0,0,1-.23-.3,1,1,0,0,0-.2-.25l-.55-.55s-.09-.11-.14-.12a.5.5,0,0,1-.3-.35.34.34,0,0,0-.28-.22.43.43,0,0,1-.31-.18c-.11,0-.16.16-.29.19s-.08.09-.11.14a1.61,1.61,0,0,0-.07.19c-.07,0-.15,0-.19.1a.4.4,0,0,1-.28.3s-.06.06-.1.09a2.54,2.54,0,0,1-.32.28.33.33,0,0,0-.19.33.09.09,0,0,1,0,0,2.26,2.26,0,0,0-.24.13.11.11,0,0,0,0,.18l.19.09.12-.11a.32.32,0,0,0,.12.29l.4.44a.7.7,0,0,0,.12.11l.65.44a.67.67,0,0,1,.11.11l.17.21a1.26,1.26,0,0,0,.42.37,2.18,2.18,0,0,1,.46.38,1.21,1.21,0,0,1,.21.31c0,.06.08.11.12.17a.39.39,0,0,0,.34.19.81.81,0,0,0,.42.56.88.88,0,0,1,.33.35.36.36,0,0,0,.33.25.29.29,0,0,1,.21.11,1.79,1.79,0,0,0,.53.37l.07,0a.46.46,0,0,1,.28.58.49.49,0,0,0-.19.25.17.17,0,0,1-.06.09c-.14.11-.17.29-.29.42a.31.31,0,0,0-.06.15A1.19,1.19,0,0,1,82,56a1.53,1.53,0,0,0-.16.18l-.27.37-.06.05L81,57a.38.38,0,0,0-.22.37,1.08,1.08,0,0,1,0,.22l-.31.08c-.18-.13-.18-.13-.37-.09l-.21,0a.3.3,0,0,1-.28-.06.73.73,0,0,1-.25-.28.94.94,0,0,0-.18-.26,2,2,0,0,0-.24-.2,3,3,0,0,0-.53-.37.14.14,0,0,1-.07-.07.45.45,0,0,0-.18-.23,4.16,4.16,0,0,1-.32-.29.42.42,0,0,1-.06-.12,1,1,0,0,1-.68-.52s0-.05,0-.07c-.28-.21-.51-.49-.81-.67a4.32,4.32,0,0,1-.59-.47,6.77,6.77,0,0,1-.84-.76,2.9,2.9,0,0,0-.27-.26c-.14,0-.23.17-.39.12s-.1-.19-.17-.29a3.11,3.11,0,0,0-.21-.24h-.06a6.39,6.39,0,0,0-.58.49l-.58.6-.09.1c-.11.12-.22.24-.33.35a3.69,3.69,0,0,0-.4.41,1,1,0,0,1-.3.27.8.8,0,0,0-.3.3.9.9,0,0,1-.29.32.2.2,0,0,0-.06.08,1.37,1.37,0,0,1-.33.43,4.94,4.94,0,0,1-.55.55.26.26,0,0,0-.05.06.85.85,0,0,0-.18.39.28.28,0,0,1-.1,0,.24.24,0,0,0-.24.09,2.16,2.16,0,0,1-.36.33.44.44,0,0,1-.55,0,3.78,3.78,0,0,1-.7-.71,4.85,4.85,0,0,0-.8-.84.32.32,0,0,1-.07-.08,1.57,1.57,0,0,0-.34-.35c-.17-.14-.32-.29-.48-.43a.13.13,0,0,1,0-.07.92.92,0,0,0-.15-.32.15.15,0,0,1,.11-.23c.09,0,.19,0,.27,0a.27.27,0,0,0,.14.06c.05,0,.08,0,.09-.06s-.12,0-.18-.1-.09-.14-.05-.25a.44.44,0,0,1,.18-.26,2,2,0,0,0,.23-.18s.07,0,.07-.08c0-.21.23-.29.37-.4a1.86,1.86,0,0,0,.36-.39c.13-.18.25-.38.38-.56s.19-.31.29-.46a2.62,2.62,0,0,1,.19-.23.29.29,0,0,1,.38-.1h.05a1.46,1.46,0,0,0,.51-.53h.23a4.26,4.26,0,0,1,.4-.46,3.26,3.26,0,0,1,.38-.37,1.86,1.86,0,0,1,.24-.24,1.2,1.2,0,0,0,.24-.25.24.24,0,0,0,0-.06,3.22,3.22,0,0,0-.46-.5,2.57,2.57,0,0,1-.31-.29c-.28-.28-.56-.56-.83-.85a.62.62,0,0,0-.41-.2v-.07l0-.09a1,1,0,0,0-.28.18s0,.05,0,.07c.06.17-.11.2-.17.29a4.87,4.87,0,0,1-.35.45l-.05.06a2.61,2.61,0,0,0-.59.66,1.1,1.1,0,0,1-.16.14l-.76.73c-.06.06-.11.14-.18.2l-.57.54c-.2.06-.24.28-.4.37a2.59,2.59,0,0,0-.34.27,1.85,1.85,0,0,0-.45.49,1.19,1.19,0,0,1-.3.27c-.09.07-.18.13-.21.27s-.11.12-.19.13h-.27a2.23,2.23,0,0,0-.56-.36,1.48,1.48,0,0,1-.34-.26q-.26-.29-.55-.56c-.15-.14-.32-.27-.48-.4a1.67,1.67,0,0,1-.23-.23,2,2,0,0,0-.3-.31,6.71,6.71,0,0,1-.61-.58.28.28,0,0,1,.09-.46,1.14,1.14,0,0,0,.15-.07.28.28,0,0,0,.14-.19.49.49,0,0,1,.25-.34.78.78,0,0,0,.23-.23l.57-.76,0,0a5,5,0,0,0,.35-.38c.09-.11.22-.18.28-.32a.1.1,0,0,1,.06-.05.47.47,0,0,0,.29-.26s0,0,0,0c.21-.08.3-.31.49-.41a.13.13,0,0,0,.06-.05,2.06,2.06,0,0,1,.51-.55.86.86,0,0,0,.22-.38.4.4,0,0,0,.27-.18.58.58,0,0,1,.16-.14c.06,0,.12-.08.11-.17s0-.06.06-.08l.15-.15s0-.06.05-.06.18-.12.22-.24.08-.1.12-.14a.81.81,0,0,0,.12-.15.15.15,0,0,0,0-.13,2,2,0,0,0-.2-.26.61.61,0,0,0-.18-.16c-.1,0-.19-.09-.2-.22a.12.12,0,0,0-.06-.08.5.5,0,0,1-.21-.27c0-.05-.05-.13-.1-.15a2.65,2.65,0,0,1-.52-.42l-.14-.11c-.19.06-.4.09-.51.3a.15.15,0,0,1-.08.06.5.5,0,0,0-.27.26,1.09,1.09,0,0,1-.15.19l-.39.44c-.13.15-.28.28-.4.43a5.23,5.23,0,0,1-.53.53l-.07.08a.87.87,0,0,1-.38.37s0,0-.06.06c-.21.25-.42.5-.64.74s-.23.17-.33.28-.17.23-.27.34A3.43,3.43,0,0,0,59,47a1.67,1.67,0,0,1-.16.21c0,.08.08.15,0,.23l0,.07a1,1,0,0,1-.33-.16l-.37-.28a1.18,1.18,0,0,1-.31-.3.74.74,0,0,0-.16-.14l-.17-.13a8.48,8.48,0,0,1-.69-.64c-.21-.18-.41-.38-.62-.56s-.27-.21-.41-.31a1.12,1.12,0,0,0,0-.21,1,1,0,0,0-.12-.17c0-.05,0-.13.1-.17a6,6,0,0,0,.47-.51.66.66,0,0,0,.2-.39.87.87,0,0,0,.15-.08.59.59,0,0,0,.1-.13,2.48,2.48,0,0,1,.39-.48.32.32,0,0,0,.09-.13,2.71,2.71,0,0,1,.14-.29.43.43,0,0,1,.19-.22.58.58,0,0,0,.22-.2,1.05,1.05,0,0,1,.26-.28.3.3,0,0,0,.11-.12c.06-.15.25-.22.26-.4,0,0,0,0,0,0s.1-.06.13-.12a1.42,1.42,0,0,1,.37-.49,5.64,5.64,0,0,0,.44-.51.3.3,0,0,1,.15-.11.23.23,0,0,0,.13-.12c.06-.14.19-.21.28-.32a1.23,1.23,0,0,0,.33-.57,4.8,4.8,0,0,0-.63-.65l-.27-.22a1.07,1.07,0,0,1-.18-.2,1,1,0,0,0-.4-.31.13.13,0,0,0-.17,0c-.17.25-.4.44-.56.69s-.22.14-.24.28,0,0,0,0c-.18.06-.28.22-.42.33s-.34.4-.56.54a.32.32,0,0,0-.09.1,1,1,0,0,1-.38.33.71.71,0,0,1-.26.4l-.39.37a1.52,1.52,0,0,0-.33.42.64.64,0,0,1-.16.18.76.76,0,0,0-.24.29.26.26,0,0,1-.06.09l-.67.63L54,42.4c-.12.06-.25.09-.33.22s-.08,0-.12,0h-.18l-.06-.13a1,1,0,0,0-.39-.44c-.28-.18-.52-.42-.78-.62l0,0a6.17,6.17,0,0,0-.58-.6c-.08-.09-.15-.2-.23-.3a9,9,0,0,0-.64-.69l-.37-.39a.19.19,0,0,1,0-.23s.06,0,.08,0a.19.19,0,0,0,.27,0,.29.29,0,0,1,.15-.07A.44.44,0,0,0,51,39a1.64,1.64,0,0,1,.37-.37.44.44,0,0,0,.12-.17,1.22,1.22,0,0,1,.26-.3.77.77,0,0,0,.26-.4.22.22,0,0,0,.28-.09v0A3.06,3.06,0,0,1,53,37a.74.74,0,0,0,.11-.11,2.34,2.34,0,0,1,.66-.59.22.22,0,0,0,.06-.08A.51.51,0,0,1,54,36a.31.31,0,0,0,.14-.11c.1-.23.32-.36.44-.58s.12-.11.17-.17a1.51,1.51,0,0,0,.33-.39s.09-.07.16-.12a.4.4,0,0,0-.14-.46,3.38,3.38,0,0,0-.57-.49,1.61,1.61,0,0,1-.34-.35A.66.66,0,0,1,54,33a.3.3,0,0,0-.11-.15l-.53-.43a.37.37,0,0,0-.26.21,1,1,0,0,1-.4.38.43.43,0,0,0-.17.16,1,1,0,0,1-.09.13,4.28,4.28,0,0,0-.4.55.43.43,0,0,1-.22.23,4.41,4.41,0,0,1-.66.64c-.11.22-.36.33-.47.55-.15.06-.18.24-.3.33a3.69,3.69,0,0,0-.33.32l-.19.19c-.25.3-.47.63-.71.94a.41.41,0,0,0-.07.11.55.55,0,0,1-.24.28,2.08,2.08,0,0,0-.22.2,2.86,2.86,0,0,1-.31.26c-.12.08-.18.07-.27-.06a.36.36,0,0,0-.19-.14,2.39,2.39,0,0,1-.53-.36.19.19,0,0,1-.08-.11c0-.18-.18-.29-.24-.45a.17.17,0,0,0-.06-.08,6.35,6.35,0,0,1-.67-.66,1.13,1.13,0,0,0-.47-.54l0,0a1.8,1.8,0,0,0-.49-.53.36.36,0,0,1-.1-.42,1.91,1.91,0,0,0,0-.21.39.39,0,0,1,.27-.34l.15-.06.07,0a.68.68,0,0,1,.41-.18.18.18,0,0,0,.15-.11,1.26,1.26,0,0,1,.56-.52A.35.35,0,0,0,47,33a2.73,2.73,0,0,1,.23-.29c.14-.17.3-.33.43-.51a.38.38,0,0,1,.13-.13.42.42,0,0,0,.26-.3.18.18,0,0,1,.07-.11c.14-.07.19-.23.31-.32s.08-.19.21-.19l.1-.18a.28.28,0,0,0,.29-.18c.07-.15.21-.25.29-.39a.25.25,0,0,1,.1-.09,1.58,1.58,0,0,0,.35-.29.63.63,0,0,0,.13-.16A.26.26,0,0,1,50,29.8a.23.23,0,0,0,.1-.15,1.37,1.37,0,0,1,.09-.21,1.51,1.51,0,0,0-.1-.14,3.54,3.54,0,0,1-.3-.38,2.31,2.31,0,0,0-.35-.37,3.16,3.16,0,0,1-.26-.23c-.07-.09-.21-.12-.25-.24s0,0-.06-.05a1.67,1.67,0,0,1-.44-.39,4.25,4.25,0,0,0-.66-.6s-.05,0-.06-.05c-.09-.18-.28-.25-.41-.39A.93.93,0,0,1,47,26.3a.23.23,0,0,0-.12-.1.86.86,0,0,1-.31-.25,1.66,1.66,0,0,0-.21-.17c-.19-.17-.44-.27-.58-.51,0,0-.08-.07-.12-.11a2.38,2.38,0,0,1-.27-.3,1.74,1.74,0,0,0-.31-.34,4.06,4.06,0,0,0-.41-.3.34.34,0,0,1,0-.58s.08,0,.1-.08a.44.44,0,0,1,.26-.22.17.17,0,0,0,.09-.06,1.87,1.87,0,0,1,.51-.44,1,1,0,0,0,.28-.28c.08-.14.18-.27.28-.4a.47.47,0,0,1,.2-.18.64.64,0,0,0,.31-.25.5.5,0,0,1,.12-.11s.07,0,.09-.06c.14-.21.38-.3.56-.46.09,0,.17.05.24,0a.13.13,0,0,1,.17,0,.7.7,0,0,0,.26.19.13.13,0,0,1,.07.08.66.66,0,0,0,.34.33,2.42,2.42,0,0,1,.45.39,2.28,2.28,0,0,0,.37.31.61.61,0,0,1,.1.09l.25.24.11.12s0,.07.07.08.18.12.25.19a5.8,5.8,0,0,0,.55.51c.08.19.29.25.42.41a1.71,1.71,0,0,0,.43.37,2.11,2.11,0,0,1,.53.48.33.33,0,0,0,.11.08,1.68,1.68,0,0,1,.44.35.65.65,0,0,0,.12.11,1.39,1.39,0,0,1,.36.4,1.69,1.69,0,0,0,.12.18c.08.08.17.15.25.23a2.79,2.79,0,0,1,.59-.48c0-.06,0-.12,0-.18s0-.1.05-.12.23-.28.42-.32a.18.18,0,0,0,.13-.12.36.36,0,0,1,.11-.15c.21-.16.33-.4.55-.55,0,0,0-.09,0-.12a.2.2,0,0,0-.09-.1,1.39,1.39,0,0,1-.29-.28,2,2,0,0,0-.52-.5.22.22,0,0,1-.09-.09c-.07-.13-.22-.19-.26-.34a.11.11,0,0,0-.06-.05,1.34,1.34,0,0,1-.4-.36l-.16-.15c-.11-.1-.25-.18-.29-.35a.14.14,0,0,0-.07-.08,3.36,3.36,0,0,1-.54-.43,7.33,7.33,0,0,1-.58-.53L52,20.81a1,1,0,0,0-.24-.22.89.89,0,0,1-.29-.27.36.36,0,0,0-.19-.15A.84.84,0,0,1,51,20a1,1,0,0,0-.26-.19.62.62,0,0,1-.41-.53c-.16-.09-.35-.15-.38-.4l.64-.69a.55.55,0,0,0,.12-.14.89.89,0,0,1,.27-.32.91.91,0,0,0,.23-.26.89.89,0,0,1,.1-.13,2.8,2.8,0,0,0,.41-.53,1.17,1.17,0,0,1,.25-.28,1.18,1.18,0,0,0,.2-.28c.06-.11.14-.2.2-.31a.22.22,0,0,1,.12-.09.52.52,0,0,1,.33,0,.85.85,0,0,0,.37.56s.1.07.11.12.16.22.27.31a4.26,4.26,0,0,1,.35.34l0,0c.14.18.36.26.5.45a5.1,5.1,0,0,0,.47.49l.09.1a3.43,3.43,0,0,0,.53.53,1,1,0,0,1,.22.23.57.57,0,0,0,.27.26l0,0c.09.12.22.18.32.28a2.29,2.29,0,0,0,.34.3c.08.06.17.11.21.21A.16.16,0,0,0,57,20l.55.43a1,1,0,0,1,.21.21,1.4,1.4,0,0,0,.44.42l.42-.2.06-.05a8.5,8.5,0,0,1,.71-.76c.06-.06.09-.14.14-.19a2.73,2.73,0,0,1,.54-.49,1,1,0,0,0,.26-.27,1.36,1.36,0,0,0,.11-.19s0-.08-.08-.1a.73.73,0,0,1-.26-.27c-.1-.16-.27-.2-.42-.28s-.13,0-.18-.09a4.93,4.93,0,0,0-.64-.62,1,1,0,0,1-.21-.21,1,1,0,0,0-.23-.26c-.26-.2-.49-.45-.75-.66s-.59-.53-.88-.8l-.37-.32-.16-.14c-.08-.07-.14-.17-.25-.19l0,0c-.2-.21-.44-.37-.64-.57s-.24-.36-.43-.48a.08.08,0,0,1,0-.07.29.29,0,0,0-.05-.25.17.17,0,0,1,0-.18,1.27,1.27,0,0,1,.52-.53.27.27,0,0,0,.16-.21.39.39,0,0,1,.23-.28l0,0a.45.45,0,0,0,.26-.58.72.72,0,0,1,0-.12.46.46,0,0,1,.35-.11c.11,0,.19,0,.21-.14a.88.88,0,0,1,.16-.3,1.19,1.19,0,0,0,.09-.14.37.37,0,0,1,.33-.25.36.36,0,0,0,.27-.16.29.29,0,0,1,.29-.12c.11.15.21.29.32.41s.23.22.35.33a2.25,2.25,0,0,1,.28.3.9.9,0,0,1,.08.18c0,.06.13.09.15.15s0,.12.13.09,0,0,0,0,.29.18.35.36.07,0,.11.06l0,.1s0,0,0,0h.1s.09,0,.09,0a.15.15,0,0,0,.14.16.26.26,0,0,1,.13.13,2,2,0,0,0,.55.57c.09.07.11.17.18.23a2.34,2.34,0,0,1,.25.15c.13.13.25.28.38.42a.45.45,0,0,0,.07.08,4.59,4.59,0,0,1,.68.62c.08.08.19.13.23.25s.06,0,.08.07.29.21.35.4a.27.27,0,0,0,.11.11,1.88,1.88,0,0,1,.27.17.36.36,0,0,0,.3,0c.15-.16.29-.31.42-.47s.16-.07.25-.12,0-.1,0-.15a.53.53,0,0,1,.19-.29,1.58,1.58,0,0,0,.34-.34,1.36,1.36,0,0,1,.22-.2.85.85,0,0,0,.13-.13c.07-.1.06-.17,0-.25-.33-.29-.67-.57-1-.88a5.9,5.9,0,0,1-.77-.87.64.64,0,0,0-.13-.13,1.7,1.7,0,0,1-.39-.37.61.61,0,0,0-.12-.11l-.37-.31c-.12-.1-.11-.11-.14-.27l-.9-.78L60.82,10c-.05,0-.09-.13-.15-.15s-.33-.28-.56-.34a.52.52,0,0,0-.21-.33.27.27,0,0,1-.1-.31c0-.05,0-.11,0-.16a.26.26,0,0,1,.16-.2.62.62,0,0,0,.32-.28c.06-.09.16-.12.22-.2a.53.53,0,0,1,.23-.18A.36.36,0,0,0,61,7.65a.25.25,0,0,1,.09-.1.32.32,0,0,0,.14-.36l.16,0a.45.45,0,0,0,.16-.08c.08-.08.16-.17.24-.27l-.08-.19c.11,0,.19-.12.31,0a.2.2,0,0,0,.29-.05c.08-.09.17-.16.26-.24a.49.49,0,0,1,.32-.13l.21,0h.24c.1.16.18.33.29.47s.25.26.36.4a3.37,3.37,0,0,0,.49.42s.07,0,.09.06a1.7,1.7,0,0,0,.43.43c.18.15.35.32.53.46a1.34,1.34,0,0,0,.39.29s.06.06.09.1l.36.44.1.09a1.57,1.57,0,0,1,.14.19,1.57,1.57,0,0,0,.36.47c.09.07.08.2.16.3s.24.18.37.26a2.85,2.85,0,0,1,.35.29s.06.08.1.09a.4.4,0,0,1,.26.24A.56.56,0,0,0,68.5,11l.29-.24a.49.49,0,0,1,.27-.34,2,2,0,0,0,.39-.44.78.78,0,0,1,.43-.38.85.85,0,0,0,.24-.16l.06-.21a1.62,1.62,0,0,0-.58-.62,2.43,2.43,0,0,1-.43-.37,3.14,3.14,0,0,1-.53-.61c-.07-.11-.18-.11-.29-.16a.86.86,0,0,0-.25-.37S68.06,7,68,7a.71.71,0,0,0-.11-.15.73.73,0,0,1-.23-.26l0,0c-.26-.11-.37-.39-.61-.53a.43.43,0,0,1-.14-.19.73.73,0,0,0-.21-.28.68.68,0,0,1-.2-.25,1.22,1.22,0,0,0-.18-.23l-.43-.51-.12-.11s-.08,0-.1-.09A1.66,1.66,0,0,0,65.33,4a.33.33,0,0,1-.13-.36.21.21,0,0,0,0-.21c-.18-.21-.07-.38,0-.56a2.59,2.59,0,0,1,.39-.41.91.91,0,0,0,.31-.37c.18-.13.26-.36.43-.47s.43-.36.66-.53l.25,0a.43.43,0,0,0,.19-.2.28.28,0,0,1,.34-.14.67.67,0,0,1,.37.2,1.12,1.12,0,0,0,.41.31.63.63,0,0,1,.13.09l.36.28a1.22,1.22,0,0,1,.29.28,1.51,1.51,0,0,0,.21.24,2.51,2.51,0,0,1,.41.49c0,.06.12.09.16.14a2.8,2.8,0,0,0,.55.51,1.59,1.59,0,0,1,.4.44A.78.78,0,0,0,71.3,4a1.15,1.15,0,0,1,.29.28.44.44,0,0,0,.14.12,1.66,1.66,0,0,1,.41.38.21.21,0,0,0,.1.08c.15,0,.21.14.27.25a.49.49,0,0,0,.17.2.9.9,0,0,1,.18.17,1.94,1.94,0,0,0,.57.43l.13-.12A1.38,1.38,0,0,1,74,5.46a1.36,1.36,0,0,0,.28-.21l.19-.15c.12-.08.25-.15.26-.32.17-.22.24-.48.39-.71a1.06,1.06,0,0,1,.43-.4.58.58,0,0,0,.28-.28A.73.73,0,0,1,76,3.15a.64.64,0,0,0,.29-.34s.07-.09.11-.11a.65.65,0,0,0,.2-.21,3.09,3.09,0,0,1,.58-.7.25.25,0,0,0,.09-.13.31.31,0,0,1,.19-.24.09.09,0,0,0,.05-.06A.56.56,0,0,1,77.9.94.12.12,0,0,0,78,.89c.06-.15.2-.2.31-.28a1.29,1.29,0,0,0,.1-.23.38.38,0,0,1,.24-.27L78.82,0l.24.08.11.18a1.45,1.45,0,0,0,.34.45.5.5,0,0,1,.12.15c.12.19.29.35.41.53a2.1,2.1,0,0,0,.43.4,1.49,1.49,0,0,1,.33.32.26.26,0,0,0,.3.14.38.38,0,0,1,.33.1c0,.26.08.52.14.78a.94.94,0,0,0,.13.24.49.49,0,0,1-.19.28c-.1.09-.2.18-.29.28a9.07,9.07,0,0,1-.74.72,5.9,5.9,0,0,0-.54.57c-.19.22-.36.46-.56.66a3.61,3.61,0,0,1-.46.52.08.08,0,0,0,0,0c-.06.25-.29.36-.44.53a.17.17,0,0,1-.06.05c-.21.08-.28.27-.39.43a1.66,1.66,0,0,1-.34.41,3.65,3.65,0,0,0-.37.39.5.5,0,0,1-.07.08.62.62,0,0,0-.23.36l0,.14-.19,0a.42.42,0,0,0,0,.12l.21.21a.74.74,0,0,1,.18.22c0,.1.11.14.15.22a.63.63,0,0,0,.08.1c.06.07.18,0,.21.15a.77.77,0,0,0,.15.21v0c0,.16.11.18.21.24l.22.15.16.13.19-.16.18-.13a.19.19,0,0,0,.07-.08c0-.15.17-.23.27-.33a1.33,1.33,0,0,0,.27-.3.15.15,0,0,1,.06-.06c.31-.19.46-.52.7-.78l.13-.14.59-.56s0-.08.06-.12l.22-.24a1.05,1.05,0,0,0,.29-.35.56.56,0,0,1,.12-.14s.05,0,.06-.05a.62.62,0,0,1,.26-.33.3.3,0,0,0,.07-.14.59.59,0,0,1,.22-.3,3.58,3.58,0,0,0,.4-.4l.34-.35.19-.23a.64.64,0,0,0,.28-.15,1.31,1.31,0,0,1,.32-.16.76.76,0,0,0,.09.18,1.17,1.17,0,0,0,.16.1.8.8,0,0,1,.16.15,3,3,0,0,0,.47.48.43.43,0,0,1,.08.11,3.34,3.34,0,0,0,.49.54s.06,0,.09.05a1.1,1.1,0,0,1,.22.2,2,2,0,0,0,.55.54,1.23,1.23,0,0,1,.33.35l.33.49a.29.29,0,0,1-.15.24.5.5,0,0,0-.16.17,2.55,2.55,0,0,1-.54.64,6.09,6.09,0,0,0-.54.49l-.57.58a3.86,3.86,0,0,0-.28.33,5.77,5.77,0,0,1-.63.73,1.2,1.2,0,0,0-.15.16,1.42,1.42,0,0,1-.33.35.46.46,0,0,0-.09.1l-.15.19-.14.16c0,.06-.07.13-.16.13l0,0c-.18.21-.36.42-.54.64a1.47,1.47,0,0,0-.13.25l.08.21-.36.08c0,.16,0,.16.27.2a.53.53,0,0,0,.22.31c.07,0,.11.14.17.22a.46.46,0,0,1,.32.2.48.48,0,0,0,.12.1,1,1,0,0,0,.21.15c.09,0,.12.11.17.16s.22.21.34.31a.3.3,0,0,0,.37,0,1,1,0,0,0,.31-.29.1.1,0,0,1,0,0c.27-.11.38-.39.59-.58s.28-.28.43-.41a2.21,2.21,0,0,0,.31-.37,3.26,3.26,0,0,1,.57-.61,1.28,1.28,0,0,0,.22-.24c.13-.17.28-.33.42-.5s.24-.3.45-.31a.72.72,0,0,1,.31-.44c.2-.31.52-.49.75-.78,0-.06.12-.09.17-.14s.26-.11.4-.09a.12.12,0,0,1,.07,0l.28.28.28.29.42.42a.83.83,0,0,1,.09.15c.17,0,.28.12.41.23a1,1,0,0,0,.41.29l0,0,.49.46a.43.43,0,0,0,.12.1.25.25,0,0,1,.14.19c0,.13.07.26.12.41a1.13,1.13,0,0,1-.28.46,4.92,4.92,0,0,1-.44.39,3.48,3.48,0,0,0-.59.59,8.12,8.12,0,0,1-.62.71l-.29.33a3.53,3.53,0,0,1-.54.53,1.29,1.29,0,0,0-.25.25,7.15,7.15,0,0,1-.48.55,4,4,0,0,0-.53.62.44.44,0,0,1-.12.11s-.09,0-.11.07a2.16,2.16,0,0,1-.39.42,1,1,0,0,0,.21.34c.09.08.14.19.22.27s.19.12.25.2a1.77,1.77,0,0,0,.24.21.84.84,0,0,1,.17.21,1,1,0,0,0,.54.43l.15.06.4-.25s0-.06.06-.09l.08-.11c.16-.2.32-.4.49-.58a3.48,3.48,0,0,1,.32-.28l0,0c.1-.2.28-.33.39-.51a1.3,1.3,0,0,1,.32-.33,6.39,6.39,0,0,0,.74-.71c.12-.13.25-.26.38-.39l.09-.1.5-.57a.24.24,0,0,1,.09-.05.2.2,0,0,0,.13-.16.24.24,0,0,1,.13-.17l.1-.09a.45.45,0,0,0,.15-.44.41.41,0,0,1,0-.1c.19-.22.38-.1.55,0l.14-.09a1,1,0,0,0,.39.66l.45.42.93.9s.08.1.12.15l.11.12c.07.06.14.11.2.18s.16.21.1.45l.12-.07.13-.06.1.23a1,1,0,0,1-.48.47,2,2,0,0,0-.43.36.29.29,0,0,0-.08.28.34.34,0,0,1-.14.36,3,3,0,0,1-.52.43c-.1.14-.29.21-.36.38a.3.3,0,0,1-.07.08l-.54.53a.41.41,0,0,1-.14.08.2.2,0,0,0-.13.12s0,0,0,0c-.18,0-.21.17-.29.29a.89.89,0,0,1-.3.31.52.52,0,0,0-.12.11s-.06.1-.11.12a.65.65,0,0,0-.26.3.64.64,0,0,1-.18.2,2.51,2.51,0,0,0-.6.72.79.79,0,0,0,.25.36,1.06,1.06,0,0,1,.11.08,7.3,7.3,0,0,0,.58.6c0,.18.22.26.3.41a.64.64,0,0,0,.18.16.7.7,0,0,1,.18.16.9.9,0,0,0,.19.16l.16-.12a2.36,2.36,0,0,1,.21-.18,1.39,1.39,0,0,0,.38-.41c.13-.2.25-.42.52-.49a3.23,3.23,0,0,0,.38-.35,1.09,1.09,0,0,0,.15-.34.35.35,0,0,1,.14-.22s0,0,0-.07a1.61,1.61,0,0,1,.38-.45,1.43,1.43,0,0,0,.14-.16s0-.07.07-.08.19-.18.28-.28a2,2,0,0,1,.27-.26.52.52,0,0,0,.19-.22.37.37,0,0,1,.19-.22s0,0,.06-.05.07-.2.17-.23.12-.13.18-.19.09-.18.16-.25a4.21,4.21,0,0,1,.37-.35l.36-.28.13,0s.09.05.13,0c.2,0,.33.1.49.17a.47.47,0,0,1,.1.09l.18.16.15.15a.61.61,0,0,0,.14.13.67.67,0,0,1,.31.33,2.73,2.73,0,0,0,.58.71,7.46,7.46,0,0,0,.53.53.5.5,0,0,1,.11.18.3.3,0,0,0,.24.19l-.06,0ZM63.71,36.43a2.11,2.11,0,0,1,.24.13,1.42,1.42,0,0,1,.22.19,3,3,0,0,0,.72.65,1.8,1.8,0,0,0,.37.38,2.78,2.78,0,0,0,.3.27.54.54,0,0,1,.14.16,1,1,0,0,0,.29.31c.17.11.32.25.48.38a.44.44,0,0,1,.15.18.28.28,0,0,0,.17.16.74.74,0,0,1,.28.2,3.89,3.89,0,0,0,.48.43,3.24,3.24,0,0,0,.38.34c.08,0,.11.16.17.24s.14.13.22.2a1.36,1.36,0,0,1,.22.23.41.41,0,0,0,.17.17.53.53,0,0,1,.22.23c.07.12.13.26.29.31s0,0,.05.06a.67.67,0,0,0,.19.22c.14.12.27.26.4.4a1.83,1.83,0,0,1,.4.44s.06,0,.09.06a2.85,2.85,0,0,1,.5.45s.06.08.09.09l.34.15a.77.77,0,0,1,.49.6c0,.06,0,.12,0,.2l.26.17.55.4,0,0a.49.49,0,0,0,.3.29s.06.06.1.09a1.85,1.85,0,0,0,.36.28.2.2,0,0,1,.08.07c.09.16.26.2.39.3a.77.77,0,0,1,.13-.12,1.77,1.77,0,0,0,.38-.35,2.05,2.05,0,0,0,.36-.39.74.74,0,0,1,.25-.24.53.53,0,0,0,.17-.19l.16,0a.65.65,0,0,1,.22-.48,1.38,1.38,0,0,0,.34-.48.85.85,0,0,1,.27-.33,2.24,2.24,0,0,1,.41-.26,1,1,0,0,0,.31-.24,4.85,4.85,0,0,0,.34-.38.46.46,0,0,1,.22-.19.19.19,0,0,0,.09-.09.41.41,0,0,1,.17-.2.36.36,0,0,0,.14-.16,2,2,0,0,1,.34-.48,4.42,4.42,0,0,0,.51-.7.76.76,0,0,1,.34-.33.45.45,0,0,0,.18-.16l.33-.43a.66.66,0,0,1,.25-.2,1.83,1.83,0,0,0,.54-.36c.06-.06.11-.14.18-.2l.42-.38a.56.56,0,0,0,.07-.11l.07-.11a1,1,0,0,1,.27-.22,3.05,3.05,0,0,0,.44-.36,4.63,4.63,0,0,0,.39-.55.39.39,0,0,1,.2-.17,1.65,1.65,0,0,0,.26-.14c.08,0,.12-.15.23-.18a1.1,1.1,0,0,0,.27-.16s.08,0,.09-.06.16-.15.24-.21.19-.25.34-.34A.36.36,0,0,0,84,35.7c0-.05.08-.1.12-.14l.23-.19.25-.16A1.1,1.1,0,0,0,85,35a.82.82,0,0,1,.38-.27s.07,0,.07-.07.1-.14.15-.21.09-.08.12-.14a.38.38,0,0,1,.16-.21.2.2,0,0,0,.08-.1.67.67,0,0,1,.42-.4.3.3,0,0,0,.15-.11,1.22,1.22,0,0,1,.24-.29,6.19,6.19,0,0,0,.43-.48,2.91,2.91,0,0,1,.67-.66s.08-.06.09-.09a.44.44,0,0,1,.13-.2c.12-.13.25-.26.37-.4a3.25,3.25,0,0,1,.52-.54,3.31,3.31,0,0,0,.27-.27,4.91,4.91,0,0,1,.52-.55l.1-.1c.13-.13.19-.31.36-.4a.09.09,0,0,0,0-.07c0-.18.13-.29.24-.41a1.15,1.15,0,0,0,.09-.13l-.18-.25-.47-.56A.39.39,0,0,0,89.8,28a4.54,4.54,0,0,1-.74-.75c-.19-.19-.33-.43-.51-.63a1.39,1.39,0,0,0-.45-.37.47.47,0,0,1-.25-.27.34.34,0,0,0-.2-.2,1,1,0,0,1-.43-.4,1.21,1.21,0,0,0-.46-.45,2,2,0,0,1-.35-.25.87.87,0,0,0-.29-.2.25.25,0,0,1-.12-.1,2.16,2.16,0,0,0-.47-.48,1.1,1.1,0,0,1-.4-.53s0,0-.07-.07a.83.83,0,0,1-.14-.12s-.07-.09-.11-.12a2.13,2.13,0,0,1-.45-.38,1.12,1.12,0,0,0-.25-.22.5.5,0,0,1-.22-.19.35.35,0,0,0-.11-.12,1.31,1.31,0,0,1-.34-.37,2.67,2.67,0,0,0-.58-.59c-.14-.1-.25-.24-.4-.32a.15.15,0,0,1-.05-.06,1.06,1.06,0,0,0-.32-.34,1.55,1.55,0,0,1-.39-.44,1.44,1.44,0,0,0-.3-.34,2.33,2.33,0,0,0-.38-.3,1.75,1.75,0,0,1-.56-.58.6.6,0,0,0-.17-.2.93.93,0,0,1-.27-.26.53.53,0,0,0-.24-.2.81.81,0,0,1-.36-.31,1.58,1.58,0,0,0-.36-.39,4.51,4.51,0,0,1-.43-.38.47.47,0,0,1-.13-.17.24.24,0,0,0-.17-.15.32.32,0,0,1-.26-.25c0-.05-.06-.11-.12-.09s-.13,0-.18-.08a2.77,2.77,0,0,0-.59-.61.55.55,0,0,1-.11-.11.84.84,0,0,0-.34-.26,2.14,2.14,0,0,1-.38-.2,2.77,2.77,0,0,1-.35-.34.37.37,0,0,1-.06-.15,1.25,1.25,0,0,1,0-.13c-.12,0-.2,0-.22-.15s-.09-.15-.14-.22a1,1,0,0,1-.52-.46,2.09,2.09,0,0,0-.38-.38,3.4,3.4,0,0,0-.61-.39.71.71,0,0,1-.35-.36l-.05-.1a.14.14,0,0,0-.23,0c-.09.08-.16.17-.24.26s-.37.48-.6.69a.92.92,0,0,1-.27.21.65.65,0,0,0-.21.16,1.88,1.88,0,0,1-.45.42,2.19,2.19,0,0,1-.41.39.82.82,0,0,1-.27.21.16.16,0,0,0-.08.07.83.83,0,0,1-.25.24,1.35,1.35,0,0,0-.43.5.56.56,0,0,1-.11.16l-.42.42-.21.21-.13.13a2.51,2.51,0,0,0-.31.3c-.09.12-.23.16-.32.28a1.32,1.32,0,0,1-.37.36c-.22.13-.32.4-.57.49v0c0,.12-.14.16-.22.23a1,1,0,0,1-.33.27.06.06,0,0,0,0,0c0,.17-.21.21-.33.31s-.11.15-.18.19a1.57,1.57,0,0,0-.31.3c-.11.12-.21.28-.4.31,0,0-.05,0-.07.07a.66.66,0,0,1-.1.13,3.59,3.59,0,0,0-.58.52l-.08.07a2.83,2.83,0,0,0-.47.48,2.64,2.64,0,0,1-.38.38s-.07,0-.1,0a.1.1,0,0,0-.09.09c0,.09-.07.12-.13.17a1.83,1.83,0,0,0-.4.32c-.11.14-.27.21-.38.33l0,0c-.09.09-.19.18-.28.28a3.57,3.57,0,0,0-.27.29.27.27,0,0,1-.12.11.64.64,0,0,0-.26.23,1.49,1.49,0,0,1-.34.31,1.1,1.1,0,0,0-.2.18,1.66,1.66,0,0,1-.34.3.22.22,0,0,0-.1.09c0,.13-.16.19-.25.28l-.31.3c-.15.15-.26.35-.48.42,0,0-.05,0-.08.07a3.59,3.59,0,0,1-.33.39,1.19,1.19,0,0,0-.37.38l0,0-.14.13-.4.41s-.08.06-.09.1a.75.75,0,0,1-.29.31.74.74,0,0,0-.11.12l-.14.16-.56.59a3,3,0,0,0-.3.31,6.11,6.11,0,0,1-.57.65c-.16.16-.26.36-.42.52a1.43,1.43,0,0,0,.3.34c.16.13.35.22.42.44l0,0c.21.16.36.4.58.56a1.56,1.56,0,0,1,.18.16c.18.18.31.39.5.57a1.36,1.36,0,0,1,.27.33c.08.14.23.2.3.34S59,32,59,32s.17.22.28.3l.21.17a.75.75,0,0,1,.22.3.39.39,0,0,0,.36.3l.14.23c.08,0,.17,0,.21.06a1.71,1.71,0,0,0,.3.34c.13.16.27.31.41.46s.17.11.23.18a2.09,2.09,0,0,0,.62.51,1.34,1.34,0,0,1,.43.4.89.89,0,0,0,.16.17,2.7,2.7,0,0,0,.46.32c.08,0,.16.08.18.18s.07.08.12.09a.72.72,0,0,1,.15.11C63.6,36.21,63.64,36.33,63.71,36.43Zm37-2.39c.06.13.13.17.19.11a.35.35,0,0,0,.11-.27Zm-2-13,.37.22A.2.2,0,0,0,99,21C98.88,21,98.81,21,98.72,21ZM76.24,51.59c-.1-.2-.11-.21-.3-.22C76,51.52,76.12,51.54,76.24,51.59ZM47.9,21.77c0-.09,0-.18-.07-.24C47.73,21.7,47.73,21.7,47.9,21.77ZM76.75,54.39l.14.15a.07.07,0,0,0,.07,0,.07.07,0,0,0,0-.07C76.92,54.38,76.84,54.37,76.75,54.39Zm-.08-2.46c-.1-.16-.1-.16-.23-.12C76.48,51.89,76.55,51.92,76.67,51.93Zm-23-10.13a.34.34,0,0,0-.1-.07s-.06,0-.06.07a.08.08,0,0,0,.1.07S53.65,41.83,53.68,41.8ZM84.11,10.09c.13,0,.13,0,.18-.05s0,0,0-.06ZM75.55,53.33l0,0,.08.13h0s0,0,0,0Zm-24-34.16h0a.07.07,0,0,0,0,.1l0,0,.06-.07S51.53,19.21,51.53,19.17Zm24.92-4.74c0,.12,0,.12.15.14Zm.24,39.8-.06-.05,0,0s0,.07.06.06Zm19.55-36h0l-.09,0v0h.09Zm-7.36-6.83s0,0,0,0h0l0,.06ZM68.15,16.91l0,0s0,0,0,0l0,0Zm-.89,26.27v0h0v0Zm17.2-21.09,0,0v0l0,0Zm11.45-3.93,0,0v0l0,0Zm-11.8,3.63s0,0,0,0l0,0s0,0,0,0Z"/><path class="cls-1" d="M56.22,43.06a.36.36,0,0,1,.27-.21s.09,0,.16,0a.46.46,0,0,1-.16.29A.25.25,0,0,1,56.22,43.06Z"/><path class="cls-1" d="M78.38,48.35l0,.06a0,0,0,0,1,0,0h0a.33.33,0,0,1,0-.07Z"/><path class="cls-1" d="M82.25,14s0,0-.06.05,0,0,0,0,0,0,0-.05S82.22,14,82.25,14Z"/><path class="cls-1" d="M83,14.72l0,0,0,0,0,0Z"/><path class="cls-1" d="M94.17,41.91l0,0,0,0,0,0Z"/><path class="cls-1" d="M83.64,29.26a.82.82,0,0,1-.17.06.59.59,0,0,0-.39.23l-.32.4a.43.43,0,0,1-.1.09,1.31,1.31,0,0,0-.38.38c-.07.1-.12.23-.26.26s-.17.15-.21.28-.21.16-.25.3,0,0-.07,0a.28.28,0,0,0-.24.16.39.39,0,0,1-.16.18.12.12,0,0,0-.05.06,1.08,1.08,0,0,1-.35.41,1.62,1.62,0,0,0-.27.3c-.14.2-.3.39-.45.58a.48.48,0,0,1-.11.12.74.74,0,0,0-.25.28.43.43,0,0,1-.24.21.56.56,0,0,0-.13.09.69.69,0,0,1-.17.12.33.33,0,0,0-.18.15c-.09.14-.2.28-.3.41a.27.27,0,0,1-.1.09c-.25.1-.38.33-.57.49a7.12,7.12,0,0,0-.52.51,3.32,3.32,0,0,1-.36.24c-.1.09-.18.2-.29.28a.59.59,0,0,0-.24.24c-.16,0-.17.22-.28.31s-.2.19-.3.27-.15.21-.28.25a.12.12,0,0,0-.06.06,3.08,3.08,0,0,1-.5.63c-.08.24-.33.41-.32.7a.18.18,0,0,1-.09.13.46.46,0,0,0-.2.27.62.62,0,0,1-.38.38c-.16,0-.21-.2-.31-.31l-.36-.1-.09-.05a2.07,2.07,0,0,0-.5-.45.25.25,0,0,1-.09-.1.63.63,0,0,0-.2-.22.28.28,0,0,1-.09-.1,1.06,1.06,0,0,0-.38-.38.72.72,0,0,1-.22-.2,1,1,0,0,0-.3-.3c-.18-.13-.3-.33-.49-.46a1.93,1.93,0,0,1-.27-.21c-.08-.07-.13-.17-.21-.25l-.6-.59a4.08,4.08,0,0,1-.37-.42,1.78,1.78,0,0,0-.52-.47,2,2,0,0,1-.55-.55,3.78,3.78,0,0,0-.28-.32L67.58,33a.42.42,0,0,1-.07-.11.77.77,0,0,0-.29-.31,2.33,2.33,0,0,1-.3-.31.81.81,0,0,0-.14-.13,1.22,1.22,0,0,1-.4-.46.4.4,0,0,0-.14-.16.71.71,0,0,1-.21-.2c-.16-.2-.33-.38-.5-.57,0,0,0,0,0,0s-.21-.15-.29-.25-.18-.17-.26-.27a2.28,2.28,0,0,0-.41-.43,1.89,1.89,0,0,1-.49-.53.33.33,0,0,1,.15-.53s.08,0,.09-.05c.12-.22.34-.34.47-.56a1.31,1.31,0,0,1,.53-.57.33.33,0,0,0,.14-.13,5.88,5.88,0,0,1,.51-.59,1.55,1.55,0,0,1,.42-.44c0-.1.17-.14.18-.26s.08-.07.12-.1.2-.11.22-.25.06-.09.11-.11a.14.14,0,0,0,.09-.12s0-.06,0-.06.13-.08.17-.15.11,0,.18,0a.46.46,0,0,1,0-.17.6.6,0,0,1,.16-.1.59.59,0,0,0,.15-.11,1,1,0,0,1,.36-.28.77.77,0,0,0,.25-.27,1,1,0,0,1,.55-.46l0-.22a.44.44,0,0,0,.29-.22.46.46,0,0,1,.17-.17,1,1,0,0,0,.19-.19,1.53,1.53,0,0,1,.35-.33,2,2,0,0,0,.31-.25.21.21,0,0,0,.07-.11c0-.12.1-.18.19-.24a.64.64,0,0,0,.19-.19,1.25,1.25,0,0,1,.23-.27.39.39,0,0,0,.16-.34s0,0,0-.05a1,1,0,0,0,.43-.36l.05-.06a1.46,1.46,0,0,0,.24-.17c.07-.07.1-.17.19-.22s.07,0,.07-.07.12-.17.2-.24a2.3,2.3,0,0,0,.2-.21,1.94,1.94,0,0,1,.14-.16,1,1,0,0,0,.23-.22.52.52,0,0,1,.22-.14l.45-.2a.25.25,0,0,1,.17.11s.08.11.13.13a1.45,1.45,0,0,1,.45.3l.19.14a.64.64,0,0,1,.13.14,1.32,1.32,0,0,0,.26.27,1.25,1.25,0,0,1,.41.51c.07,0,.18,0,.23.14s.08.07.12.1a.47.47,0,0,1,.17.17.62.62,0,0,0,.12.14l.14.16a1.86,1.86,0,0,0,.32.27.77.77,0,0,1,.31.26,2.23,2.23,0,0,0,.47.44,1.72,1.72,0,0,1,.28.25c.09.11.23.17.31.3a2,2,0,0,1,.12.21.59.59,0,0,0,.25.28.72.72,0,0,1,.31.29.51.51,0,0,0,.2.18.7.7,0,0,1,.27.3c0,.1.1.2.23.2s0,0,0,0l.5.46a3,3,0,0,1,.25.24l.4.47a2.49,2.49,0,0,0,.46.42,4.15,4.15,0,0,1,.35.33,1.52,1.52,0,0,1,.3.3,1.15,1.15,0,0,0,.27.29,1.33,1.33,0,0,1,.33.3l.16.28a.29.29,0,0,0,.15.15,1.21,1.21,0,0,1,.27.17c.08.06.19.11.18.25s0,.06.06.09a.5.5,0,0,0,.13.09,3.19,3.19,0,0,1,.57.45.16.16,0,0,1,.06.17C83.69,29.06,83.67,29.15,83.64,29.26Zm-13.7-.14.18.2a1.42,1.42,0,0,1,.16.18.78.78,0,0,0,.25.24,1.42,1.42,0,0,1,.28.25,2.66,2.66,0,0,0,.5.45,1.42,1.42,0,0,1,.38.34c.14.19.36.31.45.53,0,0,0,0,.06,0a.24.24,0,0,1,.13.16.29.29,0,0,0,.18.19.25.25,0,0,1,.13.09.64.64,0,0,0,.27.25,2.32,2.32,0,0,1,.28.21c.07.06.12.15.2.21s.18.11.26.18a.69.69,0,0,1,.14.17c.09.14.13.15.25.08a1.26,1.26,0,0,0,.16-.14.45.45,0,0,1,.27-.17.15.15,0,0,0,.14-.15.33.33,0,0,1,.1-.24c.07-.06.11-.16.19-.22a3.05,3.05,0,0,0,.37-.35.8.8,0,0,1,.13-.14,1.8,1.8,0,0,0,.33-.31l.12-.11.22-.2a3.68,3.68,0,0,1,.42-.38,1.23,1.23,0,0,0,.28-.24,4.46,4.46,0,0,1,.51-.52,6.67,6.67,0,0,0,.49-.51.17.17,0,0,0,0-.2,3.3,3.3,0,0,0-.23-.39,6.18,6.18,0,0,1-.45-.51l0,0a.64.64,0,0,1-.25-.25,1.49,1.49,0,0,0-.35-.34s-.06-.07-.1-.09c-.22-.14-.31-.42-.57-.52L75,26.11a3.18,3.18,0,0,0-.28-.29c-.12-.09-.23-.2-.35-.3s-.36-.31-.54-.46l-.08,0-.28.29a1.18,1.18,0,0,0-.29.38A1.17,1.17,0,0,1,73,26l-.11.11-.4.44-.31.34S72.06,27,72,27a.54.54,0,0,0-.19.18.38.38,0,0,1-.11.11.88.88,0,0,0-.22.19.79.79,0,0,1-.15.11l-.13.09a2.9,2.9,0,0,1-.31.22,1.28,1.28,0,0,0-.38.41,2.72,2.72,0,0,0-.17.27c-.07.12-.21.09-.3.13Zm10.93-2.25.1.37.15,0s.07.1.13,0-.13-.11-.15-.21A.43.43,0,0,0,80.87,26.87Zm-6.3-6.2.09.05s0,0,0-.06a.08.08,0,0,0-.05,0S74.59,20.65,74.56,20.67ZM67.15,26.1h0Z"/><path class="cls-1" d="M0,91.39l1.49-1.78A5.25,5.25,0,0,0,4.91,91c1,0,1.65-.41,1.65-1.08v0c0-.64-.39-1-2.31-1.46C1.95,87.84.46,87.2.46,84.93v0c0-2.08,1.67-3.45,4-3.45A6.63,6.63,0,0,1,8.72,82.9L7.41,84.8a5.38,5.38,0,0,0-3-1.13c-1,0-1.47.44-1.47,1v0c0,.75.49,1,2.47,1.5,2.32.6,3.63,1.44,3.63,3.43v0c0,2.27-1.73,3.55-4.2,3.55A7.28,7.28,0,0,1,0,91.39Z"/><path class="cls-1" d="M17.77,83.93H14.28V81.61h9.49v2.32H20.28v9.13H17.77Z"/><path class="cls-1" d="M28.79,87.36v0a5.92,5.92,0,0,1,6.1-5.92A5.87,5.87,0,0,1,41,87.3v0a5.92,5.92,0,0,1-6.1,5.92A5.87,5.87,0,0,1,28.79,87.36Zm9.54,0v0a3.48,3.48,0,0,0-3.47-3.6,3.42,3.42,0,0,0-3.44,3.57v0a3.48,3.48,0,0,0,3.47,3.6A3.42,3.42,0,0,0,38.33,87.36Z"/><path class="cls-1" d="M47.29,81.61h5.23a4.56,4.56,0,0,1,3.34,1.16,3.6,3.6,0,0,1,1,2.62v0A3.56,3.56,0,0,1,54.39,89l2.8,4.09H54.25l-2.45-3.66h-2v3.66H47.29Zm5.07,5.56c1.23,0,1.93-.65,1.93-1.62v0c0-1.08-.75-1.64-2-1.64h-2.5v3.29Z"/><path class="cls-1" d="M66,88.54l-4.4-6.94h2.94l2.73,4.6,2.78-4.6h2.86l-4.4,6.89v4.56H66Z"/><path class="cls-1" d="M87.6,81.61h5.23a4.56,4.56,0,0,1,3.34,1.16,3.6,3.6,0,0,1,1,2.62v0A3.56,3.56,0,0,1,94.7,89l2.8,4.09H94.55L92.1,89.39h-2v3.66H87.6Zm5.07,5.56c1.23,0,1.93-.65,1.93-1.62v0c0-1.08-.75-1.64-2-1.64h-2.5v3.29Z"/><path class="cls-1" d="M103.34,88.15V81.61h2.52v6.48c0,1.86.93,2.83,2.47,2.83s2.47-.93,2.47-2.75V81.61h2.52v6.46c0,3.47-1.95,5.17-5,5.17S103.34,91.52,103.34,88.15Z"/><path class="cls-1" d="M119.47,87.36v0a5.88,5.88,0,0,1,6-5.92A6.29,6.29,0,0,1,130,83l-1.59,1.91a4.21,4.21,0,0,0-3-1.16,3.44,3.44,0,0,0-3.29,3.57v0A3.43,3.43,0,0,0,125.57,91a4,4,0,0,0,2.37-.69V88.64h-2.54V86.46h5v5a7.43,7.43,0,0,1-4.89,1.82A5.73,5.73,0,0,1,119.47,87.36Z"/><path class="cls-1" d="M136.11,91.39l1.49-1.78A5.25,5.25,0,0,0,141,91c1,0,1.65-.41,1.65-1.08v0c0-.64-.39-1-2.31-1.46-2.31-.59-3.79-1.23-3.79-3.5v0c0-2.08,1.67-3.45,4-3.45a6.63,6.63,0,0,1,4.25,1.46l-1.31,1.9a5.37,5.37,0,0,0-3-1.13c-1,0-1.47.44-1.47,1v0c0,.75.49,1,2.47,1.5,2.32.6,3.63,1.44,3.63,3.43v0c0,2.27-1.73,3.55-4.2,3.55A7.28,7.28,0,0,1,136.11,91.39Z"/></g></g></svg>