<svg xmlns="http://www.w3.org/2000/svg" viewBox="0 0 16.04 10.37"><defs><style>.cls-1{fill:#333;}</style></defs><title>mail</title><g id="Layer_2" data-name="Layer 2"><g id="Layer_1-2" data-name="Layer 1"><g id="_85c7wS" data-name="85c7wS"><path class="cls-1" d="M16,2.67c0,.21,0,.33.05.46q0,3.12,0,6.24a.88.88,0,0,1-1,1H.77l-.2,0L0,9.83V2.68c.31.14.57.23.81.36l6.1,3.18a3.41,3.41,0,0,0,.85.33A1.75,1.75,0,0,0,9,6.3L15.36,3C15.55,2.86,15.74,2.79,16,2.67Z"/><path class="cls-1" d="M0,.22A1,1,0,0,1,.85,0H15.3c.23,0,.46,0,.68.06.14.53-.15.76-.48.95-.49.28-1,.54-1.5.81-1.71.92-3.42,1.85-5.14,2.75a1.86,1.86,0,0,1-1.76,0C6,4,5,3.41,3.92,2.84L.69,1.11A1.07,1.07,0,0,1,0,.22Z"/></g></g></g></svg>