<svg xmlns="http://www.w3.org/2000/svg" viewBox="0 0 181.19 181.26">
	<defs>
		<style>.overlay-2-cls-1{fill:#C0C0C0;}
		</style>
  </defs>
	<title>overlay-icon</title>
	<path class="overlay-2-cls-1" d="M179.06,72a2.19,2.19,0,0,0-.12.32.82.82,0,0,1-1,.73s-.05,0-.08,0l-.69,1.26c-.08.15-.22.32-.2.45.09.51-.14.67-.6.66-.07,0-.13.1-.2.14-.22.13,0,.5-.37.6-.22.05-.38.31-.57.48a1.78,1.78,0,0,0-.16.19l.11.38c-.19.16-.52.11-.69.36s-.38.43-.55.65a1.38,1.38,0,0,0-.21.45c-.16.59-.16.59-.83.9a.45.45,0,0,0-.2.14,7,7,0,0,1-1.23,1.29.94.94,0,0,0-.38.73.54.54,0,0,1-.23.42c-.44.24-.56.85-1.11,1,0,0-.06.09-.08.13a2.52,2.52,0,0,1-.82,1.06c-.4.91-1.34,1.37-1.83,2.21a3.21,3.21,0,0,0-.93,1.17,1.27,1.27,0,0,1-.7.59.52.52,0,0,0-.43.47c0,.31-.41.29-.52.62a2.82,2.82,0,0,0,1.25,1.92c.07.05.15.08.22.14l1.34,1.19v.44l.51,0a2.11,2.11,0,0,0,1,1,.9.9,0,0,1,.26.21c.22.22.44.43.64.67a15.46,15.46,0,0,0,1.84,1.62c.06.05.18.09.19.15.09.61.68.81,1,1.23.18.25.49.4.5.76a.19.19,0,0,0,.09.14c.5.23.65.77,1,1.12s.68.68,1,1a6.61,6.61,0,0,0,.66.54,3.84,3.84,0,0,1,.71.6,4.66,4.66,0,0,0,.82.6l.07.39a1,1,0,0,0,.77.34l.27.42a1,1,0,0,0,.61.43c.38.11.75.25,1.14.37.13.39.42.68.45,1.11,0,.17.25.32.39.49-.31.25-.59-.06-.9.1a2.67,2.67,0,0,0-.1.36,1.63,1.63,0,0,1-.6,1,7.83,7.83,0,0,0-.66.65c-.38.42-.72.88-1.12,1.29a16.32,16.32,0,0,0-1.14,1.47q-.36.46-.74.91c-.42.49-.85,1-1.26,1.47a7.43,7.43,0,0,0-.73.95,5.08,5.08,0,0,1-1,1.08,3.14,3.14,0,0,0-.42.41,1.15,1.15,0,0,1-.53.4c-.26.11-.51.24-.82.38-.3-.4-.59-.81-.89-1.21a1.47,1.47,0,0,0-.3-.29,4.68,4.68,0,0,1-1.73-2.17,1,1,0,0,0-.29-.41c-.35-.29-.71-.55-1.07-.82,0,0-.11-.05-.14-.1a5.32,5.32,0,0,0-1.12-1,5.76,5.76,0,0,1-.77-.78c-.29-.34-.75-.54-.8-1.05a6.9,6.9,0,0,0-1.33-1.4,1.82,1.82,0,0,1-.62-.79,1.93,1.93,0,0,0-.71-.8,8,8,0,0,1-1.48-1.09,4.72,4.72,0,0,1-.34-.38,3.25,3.25,0,0,0-1.16-1.21,2.62,2.62,0,0,0-.67-.82c-.3-.29-.51-.7-1-.69-.25-.23-.51-.45-.75-.69a4.94,4.94,0,0,0-.4-.43c-.15-.12-.37-.15-.52-.27a1.74,1.74,0,0,1-.27-.47l-.81.48c-.18.37-.35.72-.52,1.07a.33.33,0,0,1-.15.15,1.86,1.86,0,0,0-1.07,1,1.06,1.06,0,0,1-.34.35,8.71,8.71,0,0,0-.81.63,6,6,0,0,0-.6.82c-.08.11-.11.26-.21.35-.49.42-.92.91-1.44,1.29a.51.51,0,0,0-.17.65l.62.2c0,.07.06.16,0,.22a.64.64,0,0,0,.25.74,3.38,3.38,0,0,1,1.12,1.54.54.54,0,0,0,.12.22l1.47,1.53c.08.08.21.2.27.17.46-.19.65.26,1,.38a2.42,2.42,0,0,1,.78.61c.71.64,1.33,1.39,2,2s1.39,1.33,2.09,2c.89.82,1.76,1.67,2.65,2.51.1.1.24.15.34.25s.31.29.35.46a1.34,1.34,0,0,0,.56.83,11.24,11.24,0,0,1,1.44,1.32c.33.35.71.64,1,.9l0,.18a2.15,2.15,0,0,1-1.34,2.46c-.2.11-.37.26-.56.38a1.57,1.57,0,0,1-.42.27c-.43.11-.74.3-.73.79a5.14,5.14,0,0,1-.61.69,2.05,2.05,0,0,0-.63.68,2.42,2.42,0,0,1-.38.45c-.3.34-.61.67-.89,1-.48.63-1.07,1.15-1.59,1.73a1.71,1.71,0,0,1-1.33.57l-.32-.68-.68.09a1.54,1.54,0,0,0-.73-.52,2.41,2.41,0,0,1-.77-.62c-.39-.37-.76-.76-1.16-1.12a2.64,2.64,0,0,0-.54-.29,1.34,1.34,0,0,0-.9-1.21,1.85,1.85,0,0,1-.71-.59,12.63,12.63,0,0,0-1.39-1.22c-.51-.45-1-1-1.46-1.41l-.82-.73c-.39-.36-.8-.72-1.16-1.11a2.64,2.64,0,0,1-.32-.66s-.19,0-.26-.06c-.42-.41-1-.62-1.32-1.15a4.55,4.55,0,0,0-.69-.85,4.42,4.42,0,0,1-.66-1,1,1,0,0,0-.61-.55,1,1,0,0,1-.6-.44c-.26-.37-.6-.66-.83-1.07s-.63-.44-1-.6c-.28.1-.42.42-.75.4-.09,0-.21.1-.27.19a7.52,7.52,0,0,1-1.35,1.41,4.67,4.67,0,0,0-.54.65A8.28,8.28,0,0,1,135.3,120a4,4,0,0,0-.79.89c-.32.46-.6,1-.91,1.47a2,2,0,0,0,.44.78,5.59,5.59,0,0,0,1.48,1.26,2.2,2.2,0,0,1,.63.57,5.23,5.23,0,0,0,1.31,1.29c.3.19.22.63.6.79a3.2,3.2,0,0,1,.74.56c.13.11.24.23.36.35s.14.21.23.24c.65.19.88.75,1.14,1.28l.16.34.68.32.11.21a1.59,1.59,0,0,0,.17.38,13.15,13.15,0,0,0,2.81,2.7.74.74,0,0,1,.39.52c.09.59.56.9,1,1.25s.84.58,1.21.92a6.16,6.16,0,0,1,.75.92,4.11,4.11,0,0,0,1,.95,3.08,3.08,0,0,1,.49.47c.58.63.58,1.11-.15,1.83-.46.46-1,.87-1.47,1.3a39.46,39.46,0,0,0-2.88,2.9,5.56,5.56,0,0,1-1.3,1.2,6.86,6.86,0,0,0-1.15,1.11c-.31.29-.65.55-1,.84a.76.76,0,0,1-1,.09,3.68,3.68,0,0,0-1.34-1.67,2.92,2.92,0,0,1-.7-.74,6.62,6.62,0,0,0-1.78-1.8c-.29-.22-.65-.35-.77-.75,0-.12-.19-.2-.3-.3L133,140.16a1.89,1.89,0,0,1-.18-.18c-.85-1.05-1.88-1.94-2.65-3.08a5.69,5.69,0,0,0-.86-.93c-.7-.65-1.15-1.55-2-2-.45-.54-1.12-.89-1.32-1.63-.29-.26-.39-.7-.83-.86-.48,0-.78.37-1.1.68-.16.15-.29.35-.45.51s-.42.76-.71,1a4.25,4.25,0,0,0-.8,1,1.8,1.8,0,0,1-1,.76,5,5,0,0,0-1,.79c0,.34.51.47.12.85a1.1,1.1,0,0,0-.84.18v.51a1,1,0,0,0-.31,0,.4.4,0,0,0-.27.64c.05.09.15.2.14.28-.14.7.33,1.13.74,1.52a6.53,6.53,0,0,1,.76.8c.33.45.72.85,1,1.34a1.85,1.85,0,0,0,.72.57,2.84,2.84,0,0,1,1.37,1.75,4.84,4.84,0,0,0,.23.5,1.24,1.24,0,0,1,1.35.8c.23.57.77.81,1.12,1.23.62.22.92.82,1.41,1.2s.73.63,1.08,1,.67.59,1,.9c.78.74,1.53,1.5,2.33,2.21a11.76,11.76,0,0,1,1.06,1.21,4.79,4.79,0,0,1-.45,1.89,1.57,1.57,0,0,1-.71.82c-.16.1-.37.22-.44.38a5.31,5.31,0,0,1-1,1.34c-.11.13-.28.23-.34.38a1.39,1.39,0,0,1-.91.92c-.09,0-.17.15-.22.25-.37.73-1.07,1.22-1.43,2,0,.09-.19.13-.25.21s-.38.4-.41.62a.6.6,0,0,1-.42.56.82.82,0,0,0-.38.32,1.25,1.25,0,0,1-1.23.72c-.06,0-.12.09-.23.18a1.8,1.8,0,0,0-.2-.43c-.08-.1-.24-.14-.35-.22a4.83,4.83,0,0,1-.66-.54,4.48,4.48,0,0,0-1.15-1c-.2-.11-.32-.38-.49-.57-.34-.37-.83-.6-1-1.14,0-.07-.11-.13-.19-.16a11.23,11.23,0,0,1-2.17-2,2.14,2.14,0,0,1-.64-1.27,4.43,4.43,0,0,1-2.08-1.45c-.19-.21-.41-.4-.6-.6a3.5,3.5,0,0,1-.72-.94,3.07,3.07,0,0,0-.63-.79c-.57-.59-1.16-1.16-1.74-1.74-.14-.14-.27-.34-.44-.39a1.56,1.56,0,0,1-.93-1.11,1.06,1.06,0,0,0-.87-.7,1.36,1.36,0,0,1-1-.57c-.34.12-.5.52-.9.59-.14,0-.26.28-.35.46a5.08,5.08,0,0,0-.23.61c-.23.09-.48,0-.59.3a1.26,1.26,0,0,1-.88.94c-.12,0-.2.18-.31.28a8,8,0,0,1-1,.89,1.05,1.05,0,0,0-.59,1,.29.29,0,0,1,0,.12,7.11,7.11,0,0,0-.76.41.34.34,0,0,0,0,.58,5.91,5.91,0,0,0,.59.3l.39-.35a1,1,0,0,0,.39.9c.42.46.83.93,1.25,1.39a2.19,2.19,0,0,0,.37.34l2,1.37a2.1,2.1,0,0,1,.36.36c.19.21.38.42.55.65a4,4,0,0,0,1.32,1.16,6.84,6.84,0,0,1,1.44,1.18,3.8,3.8,0,0,1,.65,1c.11.2.26.36.37.54a1.21,1.21,0,0,0,1.08.6,2.54,2.54,0,0,0,1.33,1.76,2.78,2.78,0,0,1,1,1.09,1.14,1.14,0,0,0,1,.78.9.9,0,0,1,.66.35,5.61,5.61,0,0,0,1.65,1.16l.23.12a1.46,1.46,0,0,1,.87,1.82,1.54,1.54,0,0,0-.59.78.55.55,0,0,1-.19.28c-.44.35-.55.92-.9,1.33a1,1,0,0,0-.18.47,3.73,3.73,0,0,1-1.25,2,4.81,4.81,0,0,0-.49.58c-.29.39-.56.78-.84,1.17a.71.71,0,0,1-.18.17c-.55.35-1.09.72-1.65,1a1.19,1.19,0,0,0-.69,1.17,3.41,3.41,0,0,1-.11.69l-1,.27c-.55-.4-.55-.4-1.18-.29-.22,0-.45.06-.67.12a1,1,0,0,1-.88-.19,2.29,2.29,0,0,1-.79-.87,2.94,2.94,0,0,0-.57-.83,6.32,6.32,0,0,0-.77-.63,9.58,9.58,0,0,0-1.65-1.16.45.45,0,0,1-.23-.23,1.42,1.42,0,0,0-.58-.71,13.08,13.08,0,0,1-1-.9,1.32,1.32,0,0,1-.19-.37,3.18,3.18,0,0,1-2.13-1.63c0-.07-.07-.16-.13-.21-.88-.66-1.59-1.54-2.54-2.12a13.57,13.57,0,0,1-1.87-1.47,21.3,21.3,0,0,1-2.65-2.38,9.13,9.13,0,0,0-.86-.82c-.43.05-.73.53-1.23.36-.16-.28-.32-.61-.53-.9a9.79,9.79,0,0,0-.65-.76c-.08,0-.15,0-.18,0a20.09,20.09,0,0,0-1.81,1.53c-.6.64-1.22,1.26-1.83,1.89-.1.1-.17.22-.27.33-.35.37-.68.76-1,1.11a11.61,11.61,0,0,0-1.24,1.28,3,3,0,0,1-.93.84,2.52,2.52,0,0,0-1,1,2.82,2.82,0,0,1-.9,1,.62.62,0,0,0-.2.25,4.3,4.3,0,0,1-1,1.34,15.51,15.51,0,0,1-1.74,1.74.81.81,0,0,0-.16.2,2.67,2.67,0,0,0-.56,1.22.89.89,0,0,1-.32,0,.75.75,0,0,0-.75.3,6.79,6.79,0,0,1-1.12,1,1.38,1.38,0,0,1-1.72,0,11.87,11.87,0,0,1-2.19-2.23,15.24,15.24,0,0,0-2.52-2.65,1,1,0,0,1-.23-.25,4.94,4.94,0,0,0-1.07-1.09c-.52-.43-1-.9-1.51-1.36a.39.39,0,0,1-.14-.21,2.88,2.88,0,0,0-.46-1,.48.48,0,0,1,.34-.72c.3-.07.6-.16.86.15a.83.83,0,0,0,.45.2c.16,0,.25-.09.3-.2-.09-.33-.38-.06-.57-.32,0-.19-.28-.43-.16-.77a1.39,1.39,0,0,1,.57-.82,6.18,6.18,0,0,0,.73-.58c.09-.07.21-.15.22-.25.12-.67.73-.92,1.18-1.26a5.84,5.84,0,0,0,1.13-1.24c.42-.57.77-1.18,1.2-1.75s.6-1,.91-1.43a8.23,8.23,0,0,1,.59-.73.9.9,0,0,1,1.2-.31s.11,0,.17,0a4.6,4.6,0,0,0,1.59-1.65h.71a13.38,13.38,0,0,1,1.25-1.46,10.23,10.23,0,0,1,1.2-1.18,5.84,5.84,0,0,1,.77-.76,3.79,3.79,0,0,0,.76-.8.75.75,0,0,0,.07-.2,10.13,10.13,0,0,0-1.45-1.57,8.07,8.07,0,0,1-1-.92c-.89-.87-1.76-1.76-2.62-2.66a2,2,0,0,0-1.28-.62c0-.07,0-.15,0-.22s0-.15-.05-.27a3,3,0,0,0-.87.56c-.06.05-.14.16-.12.21.18.52-.36.63-.55.93a15.29,15.29,0,0,1-1.1,1.4,1,1,0,0,1-.17.19,8.22,8.22,0,0,0-1.86,2.07,3.47,3.47,0,0,1-.51.44c-.8.76-1.61,1.52-2.4,2.28-.2.2-.36.44-.56.64-.59.57-1.19,1.13-1.79,1.7-.62.18-.74.88-1.27,1.17a8.13,8.13,0,0,0-1.07.84,5.83,5.83,0,0,0-1.42,1.55,3.74,3.74,0,0,1-.93.84c-.28.23-.58.42-.65.84s-.34.37-.6.4a7.74,7.74,0,0,1-.85,0,7,7,0,0,0-1.76-1.13,4.67,4.67,0,0,1-1.07-.82q-.83-.91-1.72-1.75c-.48-.45-1-.84-1.5-1.26a5.24,5.24,0,0,1-.71-.73,6.25,6.25,0,0,0-.94-1,21.08,21.08,0,0,1-1.92-1.81.89.89,0,0,1,.3-1.46,3.6,3.6,0,0,0,.46-.21.87.87,0,0,0,.44-.58,1.55,1.55,0,0,1,.77-1.07,2.44,2.44,0,0,0,.72-.71l1.79-2.38.11-.13a15.63,15.63,0,0,0,1.09-1.19c.28-.34.7-.57.87-1a.31.31,0,0,1,.18-.17,1.48,1.48,0,0,0,.91-.83s0-.13.09-.14c.67-.24.93-1,1.55-1.28a.4.4,0,0,0,.19-.16,6.48,6.48,0,0,1,1.59-1.73,2.71,2.71,0,0,0,.69-1.21A1.27,1.27,0,0,0,62,142a1.82,1.82,0,0,1,.49-.46c.19-.14.37-.25.35-.53,0-.08.12-.18.19-.26l.47-.48c.06-.06.1-.18.16-.18.47,0,.57-.38.7-.74.06-.17.24-.3.36-.45a2.54,2.54,0,0,0,.37-.46.47.47,0,0,0,0-.39,6.34,6.34,0,0,0-.61-.81,1.92,1.92,0,0,0-.58-.5c-.33-.15-.6-.28-.64-.69a.38.38,0,0,0-.2-.25,1.56,1.56,0,0,1-.67-.84c-.09-.17-.17-.4-.32-.48a8.34,8.34,0,0,1-1.65-1.33c-.12-.12-.26-.22-.43-.35-.59.2-1.25.29-1.6.94a.48.48,0,0,1-.26.2,1.56,1.56,0,0,0-.84.81,3.42,3.42,0,0,1-.46.59c-.43.45-.82.93-1.24,1.39s-.88.87-1.25,1.36a16.44,16.44,0,0,1-1.67,1.66,1.41,1.41,0,0,0-.22.26,2.73,2.73,0,0,1-1.19,1.18c-.07,0-.12.12-.18.18-.66.78-1.31,1.57-2,2.32-.3.33-.74.54-1,.88s-.52.73-.85,1.05a10.78,10.78,0,0,0-1.86,2.31,5.24,5.24,0,0,1-.52.65c-.1.27.27.46.11.73l-.13.21a3.24,3.24,0,0,1-1-.5c-.38-.29-.77-.59-1.16-.87a3.7,3.7,0,0,1-1-.93,2.31,2.31,0,0,0-.49-.45,6.72,6.72,0,0,0-.54-.41,26.66,26.66,0,0,1-2.17-2c-.67-.56-1.29-1.2-2-1.77-.41-.35-.86-.65-1.29-1a3.53,3.53,0,0,0-.12-.67,3,3,0,0,0-.36-.55c.09-.17.15-.42.31-.54a18.93,18.93,0,0,0,1.49-1.61,2.08,2.08,0,0,0,.64-1.22,2.73,2.73,0,0,0,.48-.26,1.85,1.85,0,0,0,.31-.4,7.81,7.81,0,0,1,1.23-1.51,1,1,0,0,0,.29-.41,8.53,8.53,0,0,1,.44-.9,1.35,1.35,0,0,1,.61-.68,1.83,1.83,0,0,0,.68-.63,3.3,3.3,0,0,1,.81-.87,1,1,0,0,0,.34-.37c.2-.47.78-.68.81-1.26,0,0,.08-.09.13-.09.24,0,.31-.19.4-.37a4.45,4.45,0,0,1,1.16-1.55,17.71,17.71,0,0,0,1.38-1.6,1,1,0,0,1,.46-.35.71.71,0,0,0,.39-.39c.18-.44.58-.67.87-1a3.88,3.88,0,0,0,1-1.8,15.09,15.09,0,0,0-2-2c-.28-.24-.58-.46-.85-.7a3.36,3.36,0,0,1-.57-.62,3.27,3.27,0,0,0-1.27-1,.41.41,0,0,0-.53.14c-.52.78-1.25,1.38-1.75,2.17-.21.33-.68.43-.76.88,0,0-.08.08-.14.09-.57.18-.88.69-1.32,1-.64.52-1.07,1.25-1.77,1.7a1,1,0,0,0-.3.3,3.11,3.11,0,0,1-1.21,1,2.24,2.24,0,0,1-.82,1.25c-.41.39-.82.79-1.24,1.17a4.77,4.77,0,0,0-1,1.33,2,2,0,0,1-.51.56,2.38,2.38,0,0,0-.76.91.82.82,0,0,1-.2.27l-2.11,2a1.62,1.62,0,0,1-.35.24c-.37.2-.8.29-1,.7-.05.09-.25.11-.38.13a4.6,4.6,0,0,1-.56,0c-.06-.11-.14-.25-.2-.4a3.13,3.13,0,0,0-1.21-1.39c-.89-.57-1.64-1.31-2.46-2l-.06-.06a19.41,19.41,0,0,0-1.82-1.9c-.26-.3-.49-.62-.72-.94a28.36,28.36,0,0,0-2-2.18c-.39-.42-.78-.82-1.18-1.23a.6.6,0,0,1-.16-.71c.09,0,.19,0,.24.07a.6.6,0,0,0,.84.09.92.92,0,0,1,.46-.21,1.37,1.37,0,0,0,1.09-.58,5.15,5.15,0,0,1,1.17-1.17,1.38,1.38,0,0,0,.39-.55,3.84,3.84,0,0,1,.83-1,2.42,2.42,0,0,0,.82-1.26.69.69,0,0,0,.89-.28l0-.07a9.63,9.63,0,0,1,1.86-2,2.32,2.32,0,0,0,.35-.36,7.34,7.34,0,0,1,2.08-1.84A.69.69,0,0,0,29,114a1.59,1.59,0,0,1,.68-.72,1,1,0,0,0,.45-.36c.33-.71,1-1.14,1.38-1.82.11-.21.37-.35.54-.54a4.73,4.73,0,0,0,1-1.23c.07-.15.29-.22.51-.37a1.25,1.25,0,0,0-.45-1.45,10.61,10.61,0,0,0-1.8-1.54,5,5,0,0,1-1.06-1.1,2.07,2.07,0,0,1-.63-1,1,1,0,0,0-.35-.46c-.54-.45-1.1-.89-1.66-1.34a1.17,1.17,0,0,0-.82.68,3.06,3.06,0,0,1-1.27,1.2,1.35,1.35,0,0,0-.54.5,3.27,3.27,0,0,1-.29.42,13.46,13.46,0,0,0-1.25,1.71,1.35,1.35,0,0,1-.69.72,13.85,13.85,0,0,1-2.06,2c-.35.69-1.13,1-1.46,1.72-.47.2-.56.74-.93,1a11.6,11.6,0,0,0-1,1c-.2.2-.4.39-.58.61-.8.94-1.48,2-2.24,3a1.29,1.29,0,0,0-.22.36,1.73,1.73,0,0,1-.75.89,6.53,6.53,0,0,0-.68.64,9,9,0,0,1-1,.82c-.38.25-.58.21-.84-.19a1.12,1.12,0,0,0-.61-.43,7.52,7.52,0,0,1-1.67-1.14.58.58,0,0,1-.25-.33c-.08-.56-.58-.9-.74-1.42a.55.55,0,0,0-.2-.25,20,20,0,0,1-2.12-2.08,3.56,3.56,0,0,0-1.49-1.69.16.16,0,0,1-.06-.06,5.65,5.65,0,0,0-1.53-1.67A1.14,1.14,0,0,1,2,108.79a6,6,0,0,0,.14-.66A1.23,1.23,0,0,1,3,107.07c.16,0,.32-.12.48-.18a1.08,1.08,0,0,0,.23-.1A2.14,2.14,0,0,1,5,106.21a.56.56,0,0,0,.46-.33,4,4,0,0,1,1.77-1.64,1.11,1.11,0,0,0,.38-.41,8.58,8.58,0,0,1,.73-.91c.44-.55.94-1,1.35-1.61a1.2,1.2,0,0,1,.42-.41,1.33,1.33,0,0,0,.8-.93.58.58,0,0,1,.23-.34c.44-.23.61-.72,1-1,.23-.17.25-.59.65-.58l.32-.55a.88.88,0,0,0,.91-.58c.22-.48.65-.78.9-1.23a.8.8,0,0,1,.3-.29,5,5,0,0,0,1.11-.91,2,2,0,0,0,.42-.51.81.81,0,0,1,.26-.3.72.72,0,0,0,.31-.48,4.31,4.31,0,0,1,.27-.67,4.73,4.73,0,0,0-.31-.44,11.12,11.12,0,0,1-.95-1.19,7.27,7.27,0,0,0-1.11-1.15,10,10,0,0,1-.82-.72c-.24-.28-.65-.37-.77-.76,0-.07-.12-.13-.19-.16a5.25,5.25,0,0,1-1.38-1.24A13.37,13.37,0,0,0,10,85c-.07,0-.16-.09-.2-.16-.29-.55-.87-.8-1.28-1.22a2.92,2.92,0,0,1-.75-.9.73.73,0,0,0-.37-.33,2.69,2.69,0,0,1-1-.8A5.22,5.22,0,0,0,5.79,81c-.6-.54-1.39-.85-1.81-1.59-.08-.14-.25-.22-.36-.35a7.49,7.49,0,0,1-.84-1,5.48,5.48,0,0,0-1-1.07,12.78,12.78,0,0,0-1.29-1,1.06,1.06,0,0,1,0-1.82c.11-.08.26-.14.32-.25a1.37,1.37,0,0,1,.81-.7.55.55,0,0,0,.28-.18,5.87,5.87,0,0,1,1.6-1.37,3,3,0,0,0,.89-.89c.25-.44.57-.84.87-1.26a1.47,1.47,0,0,1,.62-.56,2,2,0,0,0,1-.79,1.57,1.57,0,0,1,.37-.34c.09-.07.22-.11.28-.2.44-.67,1.19-.94,1.75-1.44.27,0,.52.16.76,0a.41.41,0,0,1,.54.07,2.19,2.19,0,0,0,.8.6.41.41,0,0,1,.23.24,2.08,2.08,0,0,0,1.08,1,7.62,7.62,0,0,1,1.4,1.22,7.18,7.18,0,0,0,1.17,1,1.92,1.92,0,0,1,.31.28l.79.77c.12.12.23.25.34.37s.13.23.21.24c.39.05.55.38.8.61a18.22,18.22,0,0,0,1.73,1.61c.26.6.92.8,1.31,1.29a5.36,5.36,0,0,0,1.36,1.15,6.65,6.65,0,0,1,1.68,1.52,1,1,0,0,0,.34.25,5.29,5.29,0,0,1,1.39,1.1,2,2,0,0,0,.37.35A4.37,4.37,0,0,1,27,81.21a5.31,5.31,0,0,0,.38.55c.25.26.53.48.8.72A8.76,8.76,0,0,1,30.06,81c0-.19.08-.39.14-.58s.07-.31.16-.38c.44-.34.72-.88,1.32-1a.56.56,0,0,0,.41-.39,1.13,1.13,0,0,1,.34-.47c.65-.5,1-1.25,1.71-1.74.07-.05.08-.27,0-.38a.64.64,0,0,0-.27-.31,4.38,4.38,0,0,1-.91-.86,6.27,6.27,0,0,0-1.65-1.57.7.7,0,0,1-.3-.29c-.21-.41-.68-.61-.83-1.06a.35.35,0,0,0-.19-.17,4.22,4.22,0,0,1-1.25-1.14c-.15-.16-.33-.31-.49-.46-.35-.32-.78-.58-.9-1.1a.42.42,0,0,0-.21-.25,10.56,10.56,0,0,1-1.71-1.36,23,23,0,0,1-1.82-1.67,3.14,3.14,0,0,1-.36-.36,3.26,3.26,0,0,0-.74-.69,2.79,2.79,0,0,1-.93-.86,1.14,1.14,0,0,0-.59-.47,2.64,2.64,0,0,1-.89-.64,3.07,3.07,0,0,0-.82-.59,1.94,1.94,0,0,1-1.28-1.66c-.5-.28-1.09-.48-1.2-1.26l2-2.17a1.74,1.74,0,0,0,.37-.45,2.8,2.8,0,0,1,.85-1,2.87,2.87,0,0,0,.73-.82,2.8,2.8,0,0,1,.31-.4,8.81,8.81,0,0,0,1.29-1.67,3.69,3.69,0,0,1,.78-.89,3.72,3.72,0,0,0,.63-.9c.18-.34.45-.64.64-1a.69.69,0,0,1,.39-.3,1.64,1.64,0,0,1,1-.12,2.68,2.68,0,0,0,1.17,1.75c.13.11.3.24.33.38.1.5.51.69.86,1a13.4,13.4,0,0,1,1.09,1.08l.06.06c.44.56,1.13.83,1.57,1.42a16,16,0,0,0,1.48,1.53,3.41,3.41,0,0,1,.27.33,10.8,10.8,0,0,0,1.65,1.68,3,3,0,0,1,.7.73,1.8,1.8,0,0,0,.85.81.34.34,0,0,1,.15.08c.27.37.7.56,1,.9a7.21,7.21,0,0,0,1.07,1c.25.19.53.34.65.65A.5.5,0,0,0,39,63c.58.45,1.17.9,1.74,1.36a3.29,3.29,0,0,1,.67.65,4.41,4.41,0,0,0,1.37,1.32l1.31-.64a.58.58,0,0,0,.19-.16,26.71,26.71,0,0,1,2.23-2.4c.18-.18.27-.44.45-.61A8.58,8.58,0,0,1,48.63,61a3.23,3.23,0,0,0,.82-.84,4.26,4.26,0,0,0,.36-.59c-.08-.1-.14-.26-.25-.32a2.29,2.29,0,0,1-.83-.83c-.31-.5-.86-.62-1.32-.88-.27.07-.42-.08-.57-.27a15.5,15.5,0,0,0-2-1.93,3.23,3.23,0,0,1-.65-.66,3.11,3.11,0,0,0-.73-.8c-.83-.64-1.53-1.42-2.35-2.07-1-.77-1.84-1.68-2.76-2.52-.38-.34-.78-.67-1.16-1-.17-.15-.35-.29-.51-.45s-.42-.54-.79-.61a.31.31,0,0,1-.14-.1c-.63-.65-1.39-1.15-2-1.8-.47-.48-.76-1.13-1.35-1.5a.26.26,0,0,1-.1-.22.91.91,0,0,0-.17-.8.53.53,0,0,1,.1-.56,4,4,0,0,1,1.64-1.67.84.84,0,0,0,.51-.65A1.21,1.21,0,0,1,35,39l.14-.09A1.43,1.43,0,0,0,36,37.14a2.28,2.28,0,0,1,0-.36,1.46,1.46,0,0,1,1.09-.33c.33,0,.6-.14.65-.44a2.78,2.78,0,0,1,.52-1,3.75,3.75,0,0,0,.28-.43,1.17,1.17,0,0,1,1-.78,1.14,1.14,0,0,0,.85-.49.92.92,0,0,1,.93-.37c.36.46.66.9,1,1.3s.73.69,1.1,1a7.07,7.07,0,0,1,.87.93,2.84,2.84,0,0,1,.26.56c.09.19.41.29.46.47s.14.38.42.3c0,0,.11,0,.14.08.34.41.91.58,1.1,1.13,0,.09.22.12.35.19l-.12.32s.07.1.1.1a1.67,1.67,0,0,1,.32,0c.1,0,.27.09.27.15a.48.48,0,0,0,.45.49.82.82,0,0,1,.42.4,6.18,6.18,0,0,0,1.74,1.8c.27.21.33.53.58.71a7.34,7.34,0,0,1,.79.48c.42.41.79.87,1.19,1.32a1.43,1.43,0,0,0,.23.24,14.41,14.41,0,0,1,2.13,1.95c.25.26.6.41.73.79,0,.09.17.13.25.21.4.39.91.67,1.11,1.25a.83.83,0,0,0,.34.34,5.9,5.9,0,0,1,.86.52,1.15,1.15,0,0,0,.95.14c.46-.5.91-1,1.32-1.47.21-.25.51-.22.78-.37,0-.15.06-.31.11-.47a1.65,1.65,0,0,1,.6-.91,5,5,0,0,0,1.08-1.06,4.27,4.27,0,0,1,.7-.62,2.66,2.66,0,0,0,.42-.41c.23-.33.19-.53-.12-.8-1-.91-2.12-1.8-3.13-2.75a18.54,18.54,0,0,1-2.42-2.73,2,2,0,0,0-.41-.41A5.34,5.34,0,0,1,57.13,37a1.9,1.9,0,0,0-.36-.35c-.39-.33-.79-.64-1.17-1s-.35-.34-.44-.86l-2.83-2.44c-.41-.35-.83-.68-1.24-1-.17-.15-.27-.41-.46-.49-.64-.26-1-.87-1.75-1.07a1.63,1.63,0,0,0-.65-1,.84.84,0,0,1-.3-1c0-.16.08-.33.12-.5a.8.8,0,0,1,.51-.64,2,2,0,0,0,1-.87c.18-.29.52-.38.68-.62a1.66,1.66,0,0,1,.72-.56,1.14,1.14,0,0,0,.55-.51.79.79,0,0,1,.27-.32,1,1,0,0,0,.46-1.14,2.67,2.67,0,0,0,.51-.06,1.42,1.42,0,0,0,.52-.26c.27-.25.5-.54.77-.84l-.26-.59c.34-.14.6-.37,1-.1a.62.62,0,0,0,.9-.16c.25-.27.54-.5.81-.75a1.55,1.55,0,0,1,1-.41c.22,0,.45-.06.67-.07s.5,0,.75,0c.32.51.56,1,.9,1.48s.79.81,1.12,1.27a10.58,10.58,0,0,0,1.53,1.32c.08.08.22.11.27.2A5.34,5.34,0,0,0,64.06,25c.57.46,1.09,1,1.66,1.45a4.21,4.21,0,0,0,1.21.92c.12,0,.19.2.28.31l1.12,1.39c.09.11.22.18.31.28a4.94,4.94,0,0,1,.45.6,5,5,0,0,0,1.12,1.48c.3.23.27.61.49.94.48.09.75.56,1.18.83a9,9,0,0,1,1.1.92c.11.09.19.25.31.28a1.27,1.27,0,0,1,.83.76,1.75,1.75,0,0,0,1.1-.55l.92-.74A1.54,1.54,0,0,1,77,32.81a6.33,6.33,0,0,0,1.21-1.37,2.45,2.45,0,0,1,1.36-1.2,2.66,2.66,0,0,0,.76-.51l.17-.64a5.1,5.1,0,0,0-1.84-1.95A7.63,7.63,0,0,1,77.32,26a9.88,9.88,0,0,1-1.66-1.91c-.21-.35-.57-.34-.91-.5A2.71,2.71,0,0,0,74,22.4c-.1-.07-.13-.24-.2-.36a2.22,2.22,0,0,0-.34-.48,2.28,2.28,0,0,1-.73-.81.12.12,0,0,0-.06-.06c-.8-.36-1.16-1.23-1.91-1.66a1.35,1.35,0,0,1-.43-.61,2.31,2.31,0,0,0-.66-.87,2.14,2.14,0,0,1-.63-.78,3.83,3.83,0,0,0-.56-.74q-.68-.81-1.37-1.61a3.41,3.41,0,0,0-.38-.34c-.11-.09-.26-.16-.32-.27a5.2,5.2,0,0,0-1.14-1.24,1,1,0,0,1-.4-1.14.65.65,0,0,0-.13-.65c-.55-.65-.22-1.2.15-1.76a8.16,8.16,0,0,1,1.23-1.29,2.86,2.86,0,0,0,1-1.16c.55-.41.81-1.12,1.36-1.48.74-.49,1.34-1.12,2.07-1.66l.79.13a1.35,1.35,0,0,0,.61-.61A.89.89,0,0,1,73,2.5a2.12,2.12,0,0,1,1.17.64,3.51,3.51,0,0,0,1.29,1,2,2,0,0,1,.42.28c.38.29.75.6,1.13.88a3.84,3.84,0,0,1,.9.89,4.74,4.74,0,0,0,.67.77,7.9,7.9,0,0,1,1.3,1.53c.12.18.37.27.49.45a8.8,8.8,0,0,0,1.72,1.61,5,5,0,0,1,1.24,1.37,2.46,2.46,0,0,0,.73.7,3.61,3.61,0,0,1,.93.86,1.4,1.4,0,0,0,.45.38,5.23,5.23,0,0,1,1.3,1.2.65.65,0,0,0,.33.25c.46.08.65.44.84.78a1.54,1.54,0,0,0,.54.62,2.83,2.83,0,0,1,.56.52,6.09,6.09,0,0,0,1.79,1.36,4.72,4.72,0,0,0,.42-.39,4.35,4.35,0,0,1,1.24-1,4.28,4.28,0,0,0,.89-.65,5.51,5.51,0,0,1,.6-.46c.37-.26.79-.48.81-1,.52-.68.76-1.51,1.21-2.23a3.33,3.33,0,0,1,1.35-1.26,1.81,1.81,0,0,0,.88-.87,2.28,2.28,0,0,1,.65-.77,2,2,0,0,0,.9-1.06c0-.14.21-.27.36-.34a2,2,0,0,0,.63-.66,9.7,9.7,0,0,1,1.83-2.21.8.8,0,0,0,.29-.41,1,1,0,0,1,.61-.75.29.29,0,0,0,.17-.18A1.76,1.76,0,0,1,104.78,3a.37.37,0,0,0,.18-.18c.19-.46.62-.64,1-.87a4.05,4.05,0,0,0,.31-.72A1.2,1.2,0,0,1,107,.33l.68-.33.75.24.34.58a4.55,4.55,0,0,0,1.06,1.42,1.58,1.58,0,0,1,.38.46c.36.61.9,1.09,1.29,1.68a6.59,6.59,0,0,0,1.36,1.27,4.69,4.69,0,0,1,1,1,.82.82,0,0,0,.93.43,1.19,1.19,0,0,1,1,.32c.14.81.26,1.64.44,2.47a3,3,0,0,0,.41.74,1.53,1.53,0,0,1-.59.89c-.31.29-.63.57-.92.89a28.5,28.5,0,0,1-2.31,2.26,18.56,18.56,0,0,0-1.68,1.8c-.6.68-1.13,1.43-1.76,2.07A11.34,11.34,0,0,1,108,20.13a.26.26,0,0,0-.1.13c-.2.78-.93,1.12-1.4,1.68a.53.53,0,0,1-.19.17c-.65.24-.89.84-1.22,1.36a5.2,5.2,0,0,1-1.08,1.3A11.46,11.46,0,0,0,102.83,26a1.57,1.57,0,0,1-.22.26,2,2,0,0,0-.71,1.13c0,.13-.07.27-.12.45l-.6.07a1.3,1.3,0,0,0,.15.39c.2.24.44.44.65.67a2.31,2.31,0,0,1,.57.71c.1.3.35.44.48.68a2,2,0,0,0,.26.31c.18.21.55.09.66.46a2.41,2.41,0,0,0,.48.65s0,0,0,.07c-.08.5.35.57.65.76s.47.32.69.48l.5.4c.2-.17.39-.34.58-.49s.37-.26.55-.4a.6.6,0,0,0,.22-.25c.13-.47.53-.71.83-1a4.17,4.17,0,0,0,.84-.95.48.48,0,0,1,.18-.18c1-.6,1.44-1.65,2.19-2.45.13-.14.27-.29.41-.43.61-.59,1.24-1.16,1.84-1.76.09-.09.11-.26.2-.36a9.92,9.92,0,0,1,.69-.75,3.3,3.3,0,0,0,.91-1.1,1.76,1.76,0,0,1,.38-.45c.06-.06.17-.1.18-.17a1.94,1.94,0,0,1,.83-1,1,1,0,0,0,.23-.44,1.84,1.84,0,0,1,.68-.93,11.26,11.26,0,0,0,1.25-1.25c.36-.36.72-.72,1.06-1.09.19-.2.37-.43.61-.71a2,2,0,0,0,.88-.46,4.11,4.11,0,0,1,1-.49,2.4,2.4,0,0,0,.28.56,3.68,3.68,0,0,0,.49.32,2.5,2.5,0,0,1,.5.46,9.54,9.54,0,0,0,1.49,1.5,1.36,1.36,0,0,1,.26.33,10.51,10.51,0,0,0,1.53,1.68c.07.08.2.1.28.17a3.47,3.47,0,0,1,.69.62,6.4,6.4,0,0,0,1.72,1.71,3.85,3.85,0,0,1,1,1.1c.34.48.66,1,1,1.54a.92.92,0,0,1-.48.75,1.58,1.58,0,0,0-.51.55,8,8,0,0,1-1.69,2,19.14,19.14,0,0,0-1.69,1.55q-.91.89-1.79,1.82a12.14,12.14,0,0,0-.88,1,18.13,18.13,0,0,1-2,2.29,3.76,3.76,0,0,0-.46.5,4.48,4.48,0,0,1-1,1.1,1.43,1.43,0,0,0-.27.32l-.46.6c-.14.17-.3.33-.43.52s-.21.41-.49.42a.23.23,0,0,0-.14.08c-.57.67-1.14,1.33-1.69,2a4.61,4.61,0,0,0-.42.79l.26.65-1.13.26c.11.51.11.51.84.61a1.66,1.66,0,0,0,.7,1c.22.13.35.43.54.69a1.44,1.44,0,0,1,1,.63,1.51,1.51,0,0,0,.38.32,3,3,0,0,0,.65.46c.27.1.37.34.55.51.35.33.7.67,1.07,1a1,1,0,0,0,1.15,0,3.13,3.13,0,0,0,1-.92.3.3,0,0,1,.11-.13c.86-.36,1.2-1.24,1.86-1.81.47-.41.88-.88,1.35-1.29a6.94,6.94,0,0,0,1-1.15,10.26,10.26,0,0,1,1.8-1.93,4,4,0,0,0,.68-.75c.41-.54.87-1,1.31-1.56.57-.2.75-.94,1.41-1a2.26,2.26,0,0,1,1-1.39c.62-1,1.65-1.54,2.34-2.44.14-.17.37-.27.52-.44.36-.41.81-.33,1.26-.3a.39.39,0,0,1,.22.11l.89.89.89.91c.44.44.89.88,1.32,1.33a2.62,2.62,0,0,1,.28.47c.54,0,.89.39,1.27.71a3.19,3.19,0,0,0,1.3.92.35.35,0,0,1,.14.1l1.55,1.46a1.36,1.36,0,0,0,.38.31.77.77,0,0,1,.44.59c.13.4.23.81.37,1.29a3.55,3.55,0,0,1-.88,1.44,15.47,15.47,0,0,1-1.39,1.21,10.93,10.93,0,0,0-1.85,1.85,25.53,25.53,0,0,1-2,2.23c-.3.34-.61.67-.9,1a11.1,11.1,0,0,1-1.69,1.66,4,4,0,0,0-.78.77,22.47,22.47,0,0,1-1.51,1.73,12.58,12.58,0,0,0-1.65,1.93,1.39,1.39,0,0,1-.37.34c-.11.09-.28.12-.35.23a6.78,6.78,0,0,1-1.24,1.3,3.15,3.15,0,0,0,.67,1.08c.27.24.42.6.68.86s.58.37.8.61a5.56,5.56,0,0,0,.75.67,2.64,2.64,0,0,1,.52.67,3.23,3.23,0,0,0,1.69,1.34l.46.19c.39-.24.83-.5,1.25-.78.08-.06.12-.19.18-.28a3.7,3.7,0,0,1,.24-.35c.5-.61,1-1.24,1.52-1.83a10.93,10.93,0,0,1,1-.89s.11-.06.13-.11c.31-.62.88-1,1.24-1.61a4.09,4.09,0,0,1,1-1,20.08,20.08,0,0,0,2.32-2.25c.38-.42.79-.81,1.19-1.22.1-.1.2-.19.3-.3l1.57-1.79a.74.74,0,0,1,.28-.17.63.63,0,0,0,.42-.5.74.74,0,0,1,.4-.52,1.46,1.46,0,0,0,.32-.27,1.41,1.41,0,0,0,.48-1.37,1.29,1.29,0,0,1,0-.33c.61-.7,1.19-.32,1.73,0l.44-.28a3.11,3.11,0,0,0,1.24,2.06c.47.44,1,.87,1.43,1.32q1.47,1.41,2.92,2.83c.14.14.24.31.37.46a4.24,4.24,0,0,0,.33.37c.2.19.44.36.63.56.47.53.49.67.31,1.42l.39-.21.41-.17.31.73a3.1,3.1,0,0,1-1.51,1.46A6.21,6.21,0,0,0,160.88,60a.91.91,0,0,0-.24.87,1.07,1.07,0,0,1-.44,1.12,9.37,9.37,0,0,1-1.62,1.35c-.32.46-.9.67-1.14,1.21a.94.94,0,0,1-.22.25c-.57.55-1.13,1.11-1.71,1.66a1.3,1.3,0,0,1-.43.27.62.62,0,0,0-.42.39s-.06.13-.1.13c-.56.05-.67.54-.92.91a2.79,2.79,0,0,1-.94,1,1.64,1.64,0,0,0-.36.34c-.12.12-.2.3-.34.38a2,2,0,0,0-.82.95,2,2,0,0,1-.57.62,7.9,7.9,0,0,0-1.88,2.28,2.48,2.48,0,0,0,.78,1.13,3.34,3.34,0,0,1,.34.26,22.94,22.94,0,0,0,1.81,1.89c.12.57.68.82.94,1.29a2,2,0,0,0,.56.51,2.2,2.2,0,0,1,.57.5,2.84,2.84,0,0,0,.58.51c.2-.14.36-.25.51-.37a7.41,7.41,0,0,1,.64-.56,4.36,4.36,0,0,0,1.19-1.3c.42-.62.8-1.33,1.62-1.55a10.15,10.15,0,0,0,1.19-1.09,3.41,3.41,0,0,0,.46-1.08,1.11,1.11,0,0,1,.45-.69c.06,0,.09-.14.13-.22a5.05,5.05,0,0,1,1.21-1.41,4.48,4.48,0,0,0,.45-.51c.07-.09.12-.23.21-.26.46-.14.6-.57.87-.88a6.22,6.22,0,0,1,.85-.82,1.64,1.64,0,0,0,.59-.7,1.16,1.16,0,0,1,.59-.7c.07,0,.12-.11.19-.17.25-.2.22-.62.54-.73s.38-.41.57-.6.29-.56.49-.79a13.24,13.24,0,0,1,1.16-1.1c.34-.29.71-.55,1.14-.88l.4.08c.14,0,.28.16.4.13.63-.15,1,.31,1.53.54a1.47,1.47,0,0,1,.32.27l.56.51.48.47a1.92,1.92,0,0,0,.43.39,2.11,2.11,0,0,1,1,1A8.57,8.57,0,0,0,176.27,69a23.45,23.45,0,0,0,1.68,1.66,1.57,1.57,0,0,1,.34.58,1,1,0,0,0,.76.61l-.19.13ZM60.16,114.51a6.65,6.65,0,0,1,.76.4,4.47,4.47,0,0,1,.69.6,9.45,9.45,0,0,0,2.25,2A5.65,5.65,0,0,0,65,118.74a8.75,8.75,0,0,0,.93.85,1.69,1.69,0,0,1,.45.49,3.16,3.16,0,0,0,.91,1c.54.35,1,.79,1.52,1.19a1.37,1.37,0,0,1,.48.58.89.89,0,0,0,.53.5,2.32,2.32,0,0,1,.88.64,12.22,12.22,0,0,0,1.5,1.36,10.2,10.2,0,0,0,1.19,1.08c.24.16.33.52.53.75s.45.42.68.64a4.26,4.26,0,0,1,.68.73,1.3,1.3,0,0,0,.53.53,1.67,1.67,0,0,1,.71.71c.23.38.41.82.91,1,.07,0,.13.11.16.18a2.12,2.12,0,0,0,.6.7c.45.38.84.83,1.25,1.25a5.74,5.74,0,0,1,1.25,1.37c0,.09.17.14.27.2a8.94,8.94,0,0,1,1.58,1.42c.1.1.18.24.3.3.35.17.72.3,1.07.47a2.41,2.41,0,0,1,1.54,1.87c0,.2.07.39.12.63.26.17.55.34.83.54.58.41,1.14.83,1.71,1.25a.33.33,0,0,1,.11.12,1.53,1.53,0,0,0,.94.92c.12,0,.2.2.31.29a5.81,5.81,0,0,0,1.12.89.64.64,0,0,1,.26.21c.29.5.83.62,1.24.94a2.43,2.43,0,0,1,.42-.36,5.57,5.57,0,0,0,1.19-1.08,6.45,6.45,0,0,0,1.14-1.24,2.33,2.33,0,0,1,.79-.75,1.66,1.66,0,0,0,.54-.6l.5-.09a2.05,2.05,0,0,1,.68-1.51,4.33,4.33,0,0,0,1.07-1.5,2.66,2.66,0,0,1,.86-1,7,7,0,0,1,1.29-.83,3,3,0,0,0,1-.74,15.25,15.25,0,0,0,1.08-1.19,1.44,1.44,0,0,1,.68-.6.59.59,0,0,0,.29-.28,1.29,1.29,0,0,1,.55-.62,1.15,1.15,0,0,0,.44-.5,6.21,6.21,0,0,1,1.07-1.52,13.91,13.91,0,0,0,1.61-2.19,2.37,2.37,0,0,1,1.08-1,1.42,1.42,0,0,0,.56-.5l1-1.35a2.08,2.08,0,0,1,.79-.62,5.74,5.74,0,0,0,1.68-1.13c.19-.2.36-.43.56-.63.43-.41.88-.79,1.31-1.2a1.75,1.75,0,0,0,.21-.36c.07-.12.16-.22.23-.34a3.07,3.07,0,0,1,.85-.69,9.6,9.6,0,0,0,1.37-1.13,14.55,14.55,0,0,0,1.21-1.74,1.24,1.24,0,0,1,.63-.54,5.17,5.17,0,0,0,.82-.45c.26-.16.37-.47.72-.56a3.45,3.45,0,0,0,.86-.49c.1-.06.26-.1.28-.18.11-.38.49-.48.75-.67.42-.3.6-.8,1.06-1.06a1.14,1.14,0,0,0,.61-.77c0-.16.24-.3.38-.44s.46-.41.71-.6a8.49,8.49,0,0,1,.77-.52,3.46,3.46,0,0,0,1.19-.78,2.58,2.58,0,0,1,1.21-.86c.09,0,.23-.14.23-.21,0-.36.32-.45.48-.67s.29-.25.37-.45a1.19,1.19,0,0,1,.51-.65.64.64,0,0,0,.25-.33,2.12,2.12,0,0,1,1.31-1.26,1,1,0,0,0,.46-.34,3.85,3.85,0,0,1,.76-.91,19.45,19.45,0,0,0,1.37-1.51,9.14,9.14,0,0,1,2.11-2.08c.11-.07.26-.18.28-.29a1.39,1.39,0,0,1,.42-.63c.38-.42.8-.81,1.15-1.25a10.23,10.23,0,0,1,1.62-1.69,10.4,10.4,0,0,0,.83-.84,15.42,15.42,0,0,1,1.62-1.73,2.81,2.81,0,0,0,.3-.3c.4-.4.61-1,1.13-1.26a.29.29,0,0,0,.11-.22c0-.58.4-.91.74-1.29a3.62,3.62,0,0,0,.28-.39c-.21-.29-.38-.55-.58-.79q-.72-.89-1.47-1.76a1.22,1.22,0,0,0-.29-.18,14.27,14.27,0,0,1-2.33-2.34c-.59-.6-1-1.34-1.59-2a4.37,4.37,0,0,0-1.43-1.17,1.48,1.48,0,0,1-.79-.85,1.07,1.07,0,0,0-.64-.64,3.09,3.09,0,0,1-1.34-1.26,3.82,3.82,0,0,0-1.43-1.4,6.23,6.23,0,0,1-1.11-.79,2.73,2.73,0,0,0-.9-.61.77.77,0,0,1-.39-.31,6.8,6.8,0,0,0-1.48-1.5,3.45,3.45,0,0,1-1.26-1.67c0-.13-.12-.16-.22-.22a2.62,2.62,0,0,1-.44-.38c-.12-.12-.21-.29-.35-.37A6.71,6.71,0,0,1,125,71.34a3.53,3.53,0,0,0-.8-.7,1.58,1.58,0,0,1-.69-.59,1.09,1.09,0,0,0-.34-.38,4.12,4.12,0,0,1-1.07-1.17,8.4,8.4,0,0,0-1.83-1.86c-.43-.3-.77-.74-1.25-1a.49.49,0,0,1-.17-.19,3.34,3.34,0,0,0-1-1.07,4.89,4.89,0,0,1-1.23-1.4,4.53,4.53,0,0,0-1-1.06,7.33,7.33,0,0,0-1.19-.93,5.5,5.5,0,0,1-1.75-1.82,1.88,1.88,0,0,0-.53-.62,2.92,2.92,0,0,1-.85-.81,1.66,1.66,0,0,0-.77-.64,2.54,2.54,0,0,1-1.12-1,5,5,0,0,0-1.13-1.24A14.16,14.16,0,0,1,107,53.69a1.47,1.47,0,0,1-.4-.54.74.74,0,0,0-.54-.48,1,1,0,0,1-.81-.78c0-.16-.18-.34-.37-.28s-.42-.06-.55-.26a8.7,8.7,0,0,0-1.84-1.93,1.73,1.73,0,0,1-.36-.36,2.63,2.63,0,0,0-1.07-.81,6.72,6.72,0,0,1-1.19-.64,8.71,8.71,0,0,1-1.11-1.06,1.15,1.15,0,0,1-.18-.46,3.92,3.92,0,0,1-.07-.4c-.38,0-.63,0-.7-.47,0-.25-.29-.47-.44-.7a3.2,3.2,0,0,1-1.63-1.43,6.57,6.57,0,0,0-1.18-1.19,10.67,10.67,0,0,0-1.92-1.22,2.23,2.23,0,0,1-1.09-1.13,3,3,0,0,0-.16-.3.44.44,0,0,0-.72-.11c-.27.25-.5.54-.76.81-.66.7-1.16,1.52-1.88,2.18a2.89,2.89,0,0,1-.86.67,2,2,0,0,0-.66.5,5.92,5.92,0,0,1-1.43,1.32,6.87,6.87,0,0,1-1.28,1.22,2.59,2.59,0,0,1-.85.66.49.49,0,0,0-.24.23,2.6,2.6,0,0,1-.78.77,4.23,4.23,0,0,0-1.35,1.56,1.77,1.77,0,0,1-.34.49c-.43.45-.87.88-1.31,1.32l-.66.65-.42.41a7.9,7.9,0,0,0-1,.94c-.28.38-.73.5-1,.88a4.14,4.14,0,0,1-1.15,1.12c-.69.42-1,1.25-1.79,1.53,0,0,0,0,0,.07-.08.38-.44.5-.68.73a3,3,0,0,1-1,.86.2.2,0,0,0-.12.11c-.15.53-.67.66-1,1s-.34.46-.57.6a4.94,4.94,0,0,0-1,.95c-.36.39-.65.87-1.25,1-.09,0-.16.15-.23.23a2.07,2.07,0,0,1-.31.4,11.27,11.27,0,0,0-1.82,1.64,2.91,2.91,0,0,1-.27.21,8.89,8.89,0,0,0-1.47,1.52,8.29,8.29,0,0,1-1.2,1.2c-.07.07-.21.06-.32.09a.32.32,0,0,0-.28.28c0,.27-.21.38-.39.52a5.75,5.75,0,0,0-1.26,1c-.34.46-.84.65-1.2,1l-.05.07c-.29.3-.61.55-.88.88a11.23,11.23,0,0,0-.86.92.85.85,0,0,1-.37.34,2,2,0,0,0-.82.72,4.68,4.68,0,0,1-1.06,1,3.47,3.47,0,0,0-.63.56,5.23,5.23,0,0,1-1.06.95.69.69,0,0,0-.31.28c-.15.41-.51.6-.8.87s-.65.62-1,.93c-.47.47-.83,1.1-1.52,1.32-.1,0-.17.15-.24.23a11.29,11.29,0,0,1-1,1.22,3.73,3.73,0,0,0-1.16,1.2s-.1,0-.14.09-.29.26-.43.4L45,83c-.1.1-.25.18-.29.3a2.35,2.35,0,0,1-.92,1,2.32,2.32,0,0,0-.34.38c-.15.17-.29.35-.44.52L41.2,87a9.42,9.42,0,0,0-.94,1,19.22,19.22,0,0,1-1.81,2c-.49.52-.81,1.14-1.3,1.64a4.5,4.5,0,0,0,.93,1.06c.5.41,1.11.7,1.32,1.38a.16.16,0,0,0,.06.06c.67.52,1.12,1.26,1.82,1.75a4.92,4.92,0,0,1,.56.52c.57.55,1,1.24,1.57,1.78a4.28,4.28,0,0,1,.85,1c.24.44.72.63,1,1.06,0,.07.17.11.18.17.1.51.54.68.89,1s.45.35.66.54a2.37,2.37,0,0,1,.69.94,1.24,1.24,0,0,0,1.14.94l.44.73c.25.07.55-.07.67.18a5.39,5.39,0,0,0,.93,1.08c.42.5.85,1,1.29,1.46.21.22.54.34.72.57a6.56,6.56,0,0,0,2,1.62,4.23,4.23,0,0,1,1.34,1.26,2.79,2.79,0,0,0,.52.55,8.5,8.5,0,0,0,1.46,1c.25.14.5.24.56.58,0,.12.23.24.38.3a2.27,2.27,0,0,1,.47.34C59.83,113.81,59.94,114.2,60.16,114.51ZM176.52,107c.19.41.4.53.6.36a1.11,1.11,0,0,0,.35-.84Zm-6.31-40.86,1.16.7a.64.64,0,0,0-.43-.7C170.73,66,170.5,65.87,170.21,66.13Zm-70.67,96c-.31-.64-.34-.66-.93-.7C98.76,161.93,99.17,162,99.54,162.15ZM10.47,68.43c0-.28.07-.55-.22-.75C9.93,68.2,9.93,68.2,10.47,68.43ZM101.14,171c.14.16.28.32.44.46a.22.22,0,0,0,.22,0,.24.24,0,0,0,0-.21C101.7,170.93,101.45,170.91,101.14,171Zm-.24-7.73c-.32-.5-.32-.5-.73-.39C100.3,163.1,100.51,163.19,100.9,163.23ZM28.62,131.39a1.08,1.08,0,0,0-.32-.21s-.19.15-.18.21a.24.24,0,0,0,.31.21C28.49,131.58,28.53,131.49,28.62,131.39ZM124.3,31.71c.41,0,.42,0,.57-.17,0,0,0-.09-.07-.19ZM97.39,167.64l-.11.1c.08.13.15.27.24.4s.11,0,.14,0,.06-.11,0-.13S97.5,167.75,97.39,167.64ZM21.87,60.26l-.13,0a.23.23,0,0,0-.15.32.22.22,0,0,0,.11.09,1,1,0,0,0,.18-.22S21.88,60.38,21.87,60.26Zm78.33-14.9c.1.39.1.39.46.44ZM101,170.47a.93.93,0,0,0-.18-.16s-.11,0-.13.06,0,.21.17.19S100.9,170.51,101,170.47ZM162.39,57.26s0,0-.06,0l-.29.06v.07l.3,0S162.38,57.29,162.39,57.26ZM139.27,35.8s0-.11-.06-.13-.09,0-.14,0l.09.18ZM74.13,53.15s-.09.05-.1.09,0,.09,0,.13a1,1,0,0,0,.14-.13S74.16,53.18,74.13,53.15Zm-2.8,82.57v-.07H71.2v.06Zm54-66.28-.12-.06s0,0,0,.06a.89.89,0,0,0,.09.12Zm36-12.37-.14-.06s0,0,0,0,.05.09.08.09S161.35,57.1,161.38,57.07ZM124.28,68.49s0,.1.08.1.09,0,.14,0-.05-.09-.08-.1S124.33,68.48,124.28,68.49Z"/>
	<path class="overlay-2-cls-1" d="M36.61,135.37a1.14,1.14,0,0,1,.84-.65c.13,0,.3.08.5.15a1.46,1.46,0,0,1-.52.9A.8.8,0,0,1,36.61,135.37Z"/>
	<path class="overlay-2-cls-1" d="M106.29,152a.87.87,0,0,1,.14.18.14.14,0,0,1-.05.13.14.14,0,0,1-.14,0,1,1,0,0,1-.1-.21Z"/>
	<path class="overlay-2-cls-1" d="M118.44,44c-.08.08-.13.16-.19.17s-.1-.07-.15-.11.08-.14.13-.16S118.35,43.94,118.44,44Z"/>
	<path class="overlay-2-cls-1" d="M120.8,46.26l-.08.08a1,1,0,0,1-.05-.14s0,0,.05,0Z"/>
	<path class="overlay-2-cls-1" d="M155.92,131.74s-.07.07-.11.07-.06-.05-.09-.08,0-.05.05,0Z"/>
	<path class="overlay-2-cls-1" d="M122.82,92a2.58,2.58,0,0,1-.52.18,1.85,1.85,0,0,0-1.22.72c-.35.41-.67.84-1,1.25a1.36,1.36,0,0,1-.31.28,4.13,4.13,0,0,0-1.19,1.2c-.21.32-.37.71-.81.81,0,.44-.53.49-.67.87s-.65.49-.78.93c0,.05-.14.1-.21.11a.88.88,0,0,0-.74.5,1.23,1.23,0,0,1-.51.56.36.36,0,0,0-.17.18,3.4,3.4,0,0,1-1.1,1.28,5.09,5.09,0,0,0-.84,1c-.44.62-.93,1.21-1.4,1.81a1.52,1.52,0,0,1-.35.36,2.33,2.33,0,0,0-.79.88,1.35,1.35,0,0,1-.75.66,1.75,1.75,0,0,0-.4.29,2.16,2.16,0,0,1-.54.39,1,1,0,0,0-.56.47c-.3.45-.63.87-1,1.3a.85.85,0,0,1-.31.29c-.78.31-1.19,1-1.78,1.55a22.37,22.37,0,0,0-1.64,1.59,10.43,10.43,0,0,1-1.12.76c-.32.27-.58.63-.92.88a1.86,1.86,0,0,0-.77.76c-.49.14-.54.69-.89,1s-.62.59-.94.86-.47.65-.88.77a.37.37,0,0,0-.18.18,9.67,9.67,0,0,1-1.57,2c-.26.76-1,1.29-1,2.2a.56.56,0,0,1-.28.39,1.46,1.46,0,0,0-.64.86,2,2,0,0,1-1.18,1.18c-.5-.15-.67-.64-1-1l-1.14-.32a.71.71,0,0,1-.28-.17,6.5,6.5,0,0,0-1.58-1.41.77.77,0,0,1-.27-.32,2,2,0,0,0-.63-.68.87.87,0,0,1-.29-.3,3.33,3.33,0,0,0-1.2-1.18,2.26,2.26,0,0,1-.69-.62,3.14,3.14,0,0,0-.94-.95c-.57-.42-1-1-1.54-1.44a6.07,6.07,0,0,1-.85-.67c-.24-.24-.41-.54-.65-.78-.62-.63-1.26-1.22-1.87-1.85a12.81,12.81,0,0,1-1.17-1.33,5.58,5.58,0,0,0-1.63-1.48A6.35,6.35,0,0,1,75.44,107a11.88,11.88,0,0,0-.88-1c-.75-.78-1.48-1.57-2.22-2.36a1.31,1.31,0,0,1-.24-.35,2.41,2.41,0,0,0-.9-1,7.34,7.34,0,0,1-.94-1,2.53,2.53,0,0,0-.44-.39,3.85,3.85,0,0,1-1.26-1.44,1.26,1.26,0,0,0-.43-.5,2.23,2.23,0,0,1-.66-.64c-.5-.62-1-1.21-1.56-1.81,0,0-.07-.11-.12-.12-.49-.05-.66-.48-.93-.79s-.56-.54-.81-.86a7.16,7.16,0,0,0-1.3-1.34,5.93,5.93,0,0,1-1.54-1.68A1,1,0,0,1,61.68,90c.1-.05.24-.08.29-.17.37-.68,1.07-1.08,1.46-1.75a4.13,4.13,0,0,1,1.67-1.78,1,1,0,0,0,.44-.4,18.49,18.49,0,0,1,1.59-1.86,4.87,4.87,0,0,1,1.34-1.37c.11-.32.53-.43.58-.82,0-.12.24-.22.37-.31.3-.2.64-.35.7-.79,0-.13.2-.27.34-.35a.45.45,0,0,0,.28-.39c0-.07.08-.19.13-.19.29,0,.41-.25.54-.48s.33-.15.55,0a1.45,1.45,0,0,1,.15-.52,1.89,1.89,0,0,1,.49-.32,1.84,1.84,0,0,0,.48-.33,3.26,3.26,0,0,1,1.12-.87,2.43,2.43,0,0,0,.79-.86A3.25,3.25,0,0,1,76.72,75l.06-.7a1.37,1.37,0,0,0,.91-.68,1.46,1.46,0,0,1,.54-.53,3.12,3.12,0,0,0,.61-.59,4.81,4.81,0,0,1,1.12-1,6.26,6.26,0,0,0,1-.8.66.66,0,0,0,.23-.35c.05-.39.32-.57.6-.77a2,2,0,0,0,.6-.59,3.93,3.93,0,0,1,.71-.84,1.23,1.23,0,0,0,.49-1.06c.06-.08.09-.15.14-.16A3,3,0,0,0,85,65.76a.78.78,0,0,1,.17-.19A4.59,4.59,0,0,0,86,65c.21-.22.3-.54.61-.69.1,0,.21-.14.23-.23.08-.38.38-.54.64-.76a7.23,7.23,0,0,0,.63-.67,6.1,6.1,0,0,1,.45-.51,3,3,0,0,0,.72-.69,1.62,1.62,0,0,1,.7-.45c.43-.21.87-.39,1.4-.62a.78.78,0,0,1,.54.35c.12.15.25.36.41.41a4.56,4.56,0,0,1,1.41.94c.2.15.41.29.6.46a2,2,0,0,1,.41.43,4.16,4.16,0,0,0,.82.85,3.94,3.94,0,0,1,1.29,1.61c.23.09.56.1.73.42.07.14.26.22.39.32a1.48,1.48,0,0,1,.53.54,2,2,0,0,0,.39.44c.15.16.31.32.45.49a5.85,5.85,0,0,0,1,.86,2.41,2.41,0,0,1,1,.81,7,7,0,0,0,1.47,1.38,5.39,5.39,0,0,1,.89.78c.29.35.73.52,1,.94a6.13,6.13,0,0,1,.38.65,1.86,1.86,0,0,0,.77.87,2.26,2.26,0,0,1,1,.91,1.59,1.59,0,0,0,.62.58,2.2,2.2,0,0,1,.85.93c.15.3.31.62.73.62,0,0,.09.06.13.1l1.56,1.44a9.32,9.32,0,0,1,.79.76l1.24,1.48a7.83,7.83,0,0,0,1.44,1.32,13.06,13.06,0,0,1,1.09,1,4.79,4.79,0,0,1,.94.94A3.62,3.62,0,0,0,117,85a4.17,4.17,0,0,1,1,.94c.18.28.35.58.51.88a.9.9,0,0,0,.47.46,3.8,3.8,0,0,1,.86.54c.26.2.6.35.57.78,0,.09.1.2.18.27a1.57,1.57,0,0,0,.41.3,10,10,0,0,1,1.8,1.41.5.5,0,0,1,.18.54C123,91.36,122.9,91.63,122.82,92Zm-43.08-.44.56.62a4.45,4.45,0,0,1,.5.57,2.46,2.46,0,0,0,.8.75,4.46,4.46,0,0,1,.89.78,8.37,8.37,0,0,0,1.57,1.42,4.46,4.46,0,0,1,1.19,1.07c.44.6,1.14,1,1.42,1.68,0,.07.13.11.2.15a.76.76,0,0,1,.42.51.9.9,0,0,0,.57.59.78.78,0,0,1,.4.29,2,2,0,0,0,.85.79,7.29,7.29,0,0,1,.89.65c.23.2.39.48.62.67s.57.36.83.57a2.15,2.15,0,0,1,.43.52c.27.43.4.48.79.24a4,4,0,0,0,.51-.45,1.42,1.42,0,0,1,.85-.52.48.48,0,0,0,.43-.46,1,1,0,0,1,.32-.75c.22-.2.35-.51.59-.69a9.6,9.6,0,0,0,1.15-1.11,2.53,2.53,0,0,1,.4-.43,5.65,5.65,0,0,0,1-1l.36-.35L99,97a11.56,11.56,0,0,1,1.31-1.19,3.87,3.87,0,0,0,.88-.77,14,14,0,0,1,1.6-1.64,21,21,0,0,0,1.53-1.6.53.53,0,0,0,.09-.63,10.38,10.38,0,0,0-.74-1.22,19.42,19.42,0,0,1-1.4-1.6.3.3,0,0,0-.13-.11,2,2,0,0,1-.77-.77,4.69,4.69,0,0,0-1.09-1.06c-.11-.08-.19-.21-.3-.28-.68-.45-1-1.33-1.79-1.62-.86-.82-1.72-1.64-2.57-2.46a10,10,0,0,0-.88-.92c-.39-.29-.74-.62-1.09-.95-.55-.5-1.12-1-1.68-1.44a.82.82,0,0,0-.26-.09l-.88.91a3.72,3.72,0,0,0-.91,1.2,3.68,3.68,0,0,1-.67.87c-.11.13-.25.23-.36.36l-1.26,1.37-1,1.07c-.13.15-.24.34-.4.43a1.69,1.69,0,0,0-.61.57,1.2,1.2,0,0,1-.36.35,2.77,2.77,0,0,0-.71.61,2.47,2.47,0,0,1-.47.35l-.41.28a9.13,9.13,0,0,1-1,.7A4,4,0,0,0,81.54,89a8.56,8.56,0,0,0-.55.85c-.22.37-.65.27-.94.41Zm34.35-7.07.31,1.16.46.16c.14,0,.2.3.42.12-.14-.22-.4-.34-.47-.66A1.35,1.35,0,0,0,114.09,84.46ZM94.28,65l.28.16c0-.06.09-.14.08-.19a.26.26,0,0,0-.17-.14S94.37,64.89,94.28,65ZM71,82s0,0-.06,0,0,0-.06,0,0,0,.06,0S71,82,71,82Z"/>
</svg>