<svg xmlns="http://www.w3.org/2000/svg" viewBox="0 0 13 16.89"><defs><style>.cls-1{fill:#333;}</style></defs><title>pint</title><g id="Layer_2" data-name="Layer 2"><g id="Layer_1-2" data-name="Layer 1"><g id="QYPFqV"><path class="cls-1" d="M5.38,11.12c-.47,2-.9,4.08-2.55,5.77-.05-.46-.09-.8-.13-1.14a12.16,12.16,0,0,1,.5-4.27Q3.63,9.76,4,8A1.25,1.25,0,0,0,4,7.47a3.57,3.57,0,0,1,.22-2.79,1.61,1.61,0,0,1,1.33-.9A1.17,1.17,0,0,1,6.88,5a14.06,14.06,0,0,1-.42,2.2c-.1.45-.27.89-.38,1.34A1.55,1.55,0,0,0,8,10.47,3.17,3.17,0,0,0,10.15,8.3a7,7,0,0,0,.48-3.54A3.25,3.25,0,0,0,8.39,1.92,4.88,4.88,0,0,0,2.61,3.71,4.31,4.31,0,0,0,2,7.2a1.51,1.51,0,0,0,.31.69c.52.52.27,1.06.11,1.6-.09.3-.31.27-.54.17A2.66,2.66,0,0,1,.43,8.13a5.5,5.5,0,0,1,1.22-6C3.93-.44,8.73-.75,11.21,1.57A5.12,5.12,0,0,1,13,5.09,7,7,0,0,1,11,10.82a4,4,0,0,1-4.23,1.13A7.92,7.92,0,0,1,5.38,11.12Z"/></g></g></g></svg>