<svg xmlns="http://www.w3.org/2000/svg" viewBox="0 0 127.26 40.56"><title>script-story-rugs</title><g id="Layer_2" data-name="Layer 2"><g id="Layer_1-2" data-name="Layer 1"><path d="M112.86,20.78a28.93,28.93,0,0,0,1.08-3.29,3.7,3.7,0,0,1,.27-.78h-.07c.48-.94,1-1.7,1.51-2.54l0-.71-1-.9a1.3,1.3,0,0,0-.28-.13,1.38,1.38,0,0,0-.33.3,3.61,3.61,0,0,1-1.49,1.5.89.89,0,0,0-.45.58c0,.11-.16.19-.24.29l-.61.14a14.43,14.43,0,0,1-3.13,2.07c-.8.36-1.55.84-2.34,1.24-.52.26-1.07.46-1.62.67-.1,0-.23,0-.33,0a.32.32,0,0,1,.07-.47c.22-.19.55-.3.69-.53A14.59,14.59,0,0,1,106.64,16a3.22,3.22,0,0,1,1-.73A3.36,3.36,0,0,0,109,14a2.19,2.19,0,0,0-1.32-1.63,29.42,29.42,0,0,1-2.33,1.95,13.94,13.94,0,0,0-2.29,2.17c-.68.74-1.24,1.58-1.87,2.4a3.88,3.88,0,0,0-.27,1.06,6,6,0,0,0,.32,1.28l.8.75a5.07,5.07,0,0,0,2.73-.72,5.58,5.58,0,0,1,1.78-.89c.37-.19.72-.39,1.09-.57a6.9,6.9,0,0,1,1.32-.71c.37-.09.6-.52,1-.65a5.6,5.6,0,0,0,1.25-.73c.12,1-.8,1.62-.75,2.62-.36.31-.77.62-1.11,1A17.93,17.93,0,0,0,107.83,23a15.27,15.27,0,0,1-2.61,2.6A7,7,0,0,1,103,28a3.76,3.76,0,0,1-1,1.41,4.25,4.25,0,0,0-.57.68c-.4.59-.79,1.19-1.19,1.77l-1.37,2a2.36,2.36,0,0,0-.44.75A6.58,6.58,0,0,1,97.81,36a2.86,2.86,0,0,0-.28,2.63,2.45,2.45,0,0,0,1.29,1.94,4.72,4.72,0,0,1,.9-.43c1.37-.34,2.25-1.43,3.34-2.18a.83.83,0,0,0,.18-.18c.3-.4.59-.81.9-1.2a4.48,4.48,0,0,0,.86-1.19,1.14,1.14,0,0,1,.33-.38,6.77,6.77,0,0,0,1.16-1.63,10.17,10.17,0,0,1,.79-1.28c.71-.85.94-2,1.68-2.81.1-.63.58-1.14.69-1.74a10.27,10.27,0,0,1,.83-1.8c.13-.35.21-.72.31-1.08a2.8,2.8,0,0,1,.19-.59,14.27,14.27,0,0,0,.94-2.41A2.35,2.35,0,0,0,112.86,20.78Zm-5.74,7.79c-.64,1.08-1.3,2.15-1.88,3.26-.22.42-.57.72-.82,1.11a18.88,18.88,0,0,1-3.37,3.73,12.87,12.87,0,0,1-1.52,1c-.33-.22-.12-.49-.18-.71.61-1,1.22-2.09,1.91-3.08l2.14-3.07.05-.25a3.38,3.38,0,0,0,.67-.55c.8-1.12,1.76-2.12,2.62-3.19a10.73,10.73,0,0,1,1.42-1.24A8.92,8.92,0,0,1,107.12,28.58Z"/><path d="M104.27,15.1a7.78,7.78,0,0,0-1,.74c-.65.61-1.48,1-2.1,1.58s-1.33,1-1.93,1.56c-.36.12-.67.25-1,.34a.31.31,0,0,1-.42-.16A7.43,7.43,0,0,1,99,16.56a3,3,0,0,0,.6-2.46A6.4,6.4,0,0,0,98.31,13c-.52.32-1,.61-1.5.94s-1.1.63-1.37,1.27c-.06.14-.25.21-.38.32A9.26,9.26,0,0,1,94,16.4a9.11,9.11,0,0,1-1.26.54s-.06.06-.1.08c-.78.49-1.56,1-2.34,1.46-.08,0-.22,0-.34,0a1.08,1.08,0,0,1,0-.28,8.91,8.91,0,0,1,1.86-2.67,5.26,5.26,0,0,0,1.4-2.14,2.92,2.92,0,0,0-1.19-1.62,2.17,2.17,0,0,0-1,.06,9.7,9.7,0,0,1-2.65.71c-.11,0-.22.11-.34.16L87,13.16l-.42,2.33a6.33,6.33,0,0,0,.89-.21,11.49,11.49,0,0,0,1.42-.48,1.54,1.54,0,0,1,.5-.05c0,.12,0,.21,0,.26-.49.77-.81,1.64-1.36,2.38a2.38,2.38,0,0,0-.26.43c-.35.75-.69,1.51-1,2.16a3.63,3.63,0,0,0,.24,2c.05.17.27.3.41.43l.82,0c.92-.53,1.74-1,2.61-1.44s1.59-.92,2.38-1.39L95.66,18a2.18,2.18,0,0,1-.12,1.47,10.65,10.65,0,0,0,.62,2l1.43.61c1.11.12,2-.63,2.85-.8.66-.53,1.24-1,1.77-1.43a5,5,0,0,0,1.26-1.41,1.72,1.72,0,0,1,.74-.66c.28-.16.54-.33.81-.5A3.18,3.18,0,0,0,104.27,15.1Z"/><path d="M115.55,22c.22.58.09,1.26.6,1.75a4.27,4.27,0,0,0,1.85.92,13.07,13.07,0,0,1,2.08-.38c.64-.36,1.42-.45,2-.87a6.64,6.64,0,0,0,1.7-1.23c.06-.16.11-.35.19-.52a2.92,2.92,0,0,0,.06-2A6.8,6.8,0,0,0,122.51,17a3.57,3.57,0,0,1-.62-.93.79.79,0,0,1-.07-.11,2.75,2.75,0,0,1-.09-1.69h0a.72.72,0,0,1,.07-.33l0-.05-.33.16.49-.91.19-.15a.68.68,0,0,1,.13-.11,5.71,5.71,0,0,1,2.88-1.45c0,.11,0,.24-.06.31a5.54,5.54,0,0,1-1.29,1.08.46.46,0,0,1,.1.53l-.14.34a.54.54,0,0,1,.15.18A1.55,1.55,0,0,1,124,14h0c.12.34.93.18,1.24.18h.05c.54-.37,1-.79,1.55-1.17a3.28,3.28,0,0,0,.37-1.9,3.18,3.18,0,0,0-1.09-1.6l-1.54-.3-.67.2a4.37,4.37,0,0,0-2.15,1.08c-.55.09-.56.64-.91.91a3.73,3.73,0,0,0-1.29,2l0,.65a13.51,13.51,0,0,1,.79,2.54h.08a2.83,2.83,0,0,0,.83,1.57c.37.51.79,1,1.19,1.5l-.11.87a4.85,4.85,0,0,1-1.52,1.13,14.81,14.81,0,0,1-2,1.14,2.44,2.44,0,0,0-.94-.25.54.54,0,0,1-.54-.39l0-1a4.51,4.51,0,0,0,.74-.83c.18-.35.56-.44.8-.7a2,2,0,0,0,0-.47,4,4,0,0,0-.21-.54l-.15-.41-.76,0-1.08.92a2.16,2.16,0,0,0-.93,1.71c0,.15-.11.29-.14.44A1.67,1.67,0,0,0,115.55,22Z"/><path d="M.3,20.7a18,18,0,0,1,2.55-2.35c1-.63,1.92-1.3,2.87-2a4.26,4.26,0,0,0-.9-1.2,8.68,8.68,0,0,1-2.11-3.1,3.93,3.93,0,0,1-.18-2.56c.07-.23.11-.47.15-.68A7.77,7.77,0,0,1,4.48,7.13C5.14,6.52,6,6.33,6.72,5.8a14.15,14.15,0,0,0,2.35-.72A4.81,4.81,0,0,1,11.32,6c.65.55.59,1.41.91,2.11a2.27,2.27,0,0,1,0,1c0,.19-.13.38-.11.56a2.78,2.78,0,0,1-.87,2.25c-.4.43-.78.87-1.13,1.27l-.88.06L9,12.77a5.24,5.24,0,0,1-.3-.65,2.72,2.72,0,0,1,0-.59c.24-.35.67-.51.84-1a5.56,5.56,0,0,1,.75-1.12l-.09-1.31a.63.63,0,0,0-.67-.42,2.66,2.66,0,0,1-1.12-.2A16.91,16.91,0,0,0,6.2,9.16a5.7,5.7,0,0,0-1.62,1.59l0,1.1c.53.58,1.07,1.14,1.56,1.73a3.64,3.64,0,0,1,1.15,1.86c.26,0,.49,0,.61-.1A7.46,7.46,0,0,1,10.13,14a2,2,0,0,0,.5-.3A18.88,18.88,0,0,1,13.94,12a3.89,3.89,0,0,1,1.33-.3,3.56,3.56,0,0,1,1.69-1,4.87,4.87,0,0,0,1.36-.8A11.82,11.82,0,0,1,19.8,9c.33-.2.66-.42,1-.61a2.54,2.54,0,0,0,1.3-1.7,20.51,20.51,0,0,1,1.11-3,5.3,5.3,0,0,1,1.12-2A2.64,2.64,0,0,0,24.68,1L26,0l1.45,1.24.07,1.06a26.7,26.7,0,0,1-2.35,4.65A9.59,9.59,0,0,1,23.86,8.7c-.25.26-.34.58-.58.82-.08.08-.1.23-.18.42l1.66-.12,1.47-.11a5.25,5.25,0,0,1,3.1.4l1.12.93.16,2.28A19.11,19.11,0,0,1,27.8,17c-.49.61-1,1.18-1.54,1.78a2,2,0,0,0-.22.5c.16.06.27.13.34.11a11.83,11.83,0,0,0,3.72-1.53,3.51,3.51,0,0,1,1-.33c.35-.43.56-1.08,1.2-1.35a2.94,2.94,0,0,0,.5-3.13c0-.09-.07-.18-.12-.34.11-.16.23-.37.38-.56s.33-.36.51-.55A15,15,0,0,0,36,11.24a13.69,13.69,0,0,0,2.48,0A4.5,4.5,0,0,1,41.75,13c.23.31.44.63.66.94l-.2,1.29c-.25.51-.47,1.06-.77,1.55a16.89,16.89,0,0,1-1,1.36c.2,0,.35,0,.44,0a20.16,20.16,0,0,1,3.07-1.67,11.06,11.06,0,0,1,1.81-1.47,7.28,7.28,0,0,0,1.87-1.36,3,3,0,0,0,.74-1.08,1.33,1.33,0,0,1,1-.86,5.21,5.21,0,0,1,1.54,1.24l.06.9a13.55,13.55,0,0,1-1,1.77,9.27,9.27,0,0,0-.92,1.64A13.89,13.89,0,0,0,47.81,21,9.89,9.89,0,0,0,48,23.2a4.08,4.08,0,0,0,.39.94c.43-.16.83-.29,1-.76.06-.17.25-.41.38-.41.59,0,.7-.61,1.11-.84a4.7,4.7,0,0,0,1-.81,17.72,17.72,0,0,1,2.43-1.84c.59-.42,1.14-.9,1.71-1.35a9,9,0,0,1,.93-.69,6,6,0,0,0,.91-.72,31.58,31.58,0,0,0,3-3.12.77.77,0,0,1,.89.14,2.61,2.61,0,0,1,.83,1.19,3.4,3.4,0,0,1-1.33,1.84,5.46,5.46,0,0,0-.64.59,9.19,9.19,0,0,1-1.26,1.21,5.8,5.8,0,0,0-.93,1,15.27,15.27,0,0,1-1.61,1.21,21.42,21.42,0,0,0-3.16,2.34c-.71.58-1.41,1.18-2.1,1.8a4.23,4.23,0,0,1-.77.41L49,27c-.18.58.25,1.1.15,1.69a9.12,9.12,0,0,0,0,1.58A7,7,0,0,1,47.72,33a10.35,10.35,0,0,1-1.95,2.14c-.66.48-1.24,1.1-1.94,1.53a24,24,0,0,1-3,1.46,10.84,10.84,0,0,0-1.79.56,2.85,2.85,0,0,0-1.44.57,2.09,2.09,0,0,1-1.38-.93l-.11-1.58a21.16,21.16,0,0,1,2-2.67c.35-.33.68-.68,1-1l3.72-3.72.56-.15.15-.24c.19-.28.32-.66.59-.82a15.25,15.25,0,0,0,2.33-2.37,1.72,1.72,0,0,0-.12-1.17A8.26,8.26,0,0,1,45.64,21a13.62,13.62,0,0,1,.28-1.71c0-.09.05-.2,0-.26-.19-.34.21-.64.06-1a1.26,1.26,0,0,0-.13-.17l-.8.53c-.36.24-.71.52-1.09.73s-.56.72-1.09.66a14,14,0,0,1-3,1.76,3.81,3.81,0,0,0-.61.51l-1,.07c-.95-.26-1.08-1.21-1.62-1.9a4.06,4.06,0,0,1,1-2.62c.82-1.09,1.6-2.21,2.4-3.33a1.81,1.81,0,0,0-1.25-.4c-1.17.1-2.34.17-3.49.25l-.64.4c-.18.37,0,.77-.1,1.21-.32.65-.63,1.36-1,2a2.93,2.93,0,0,1-.81,1c-.64.43-1.06,1.14-1.87,1.35-.21.06-.38.3-.56.45l-.77.13a2.9,2.9,0,0,1-1.43.92c-.75.15-1.45.64-2.43.39-.06,0-.26-.18-.47-.3s-.43-.22-.65-.32A4,4,0,0,1,24,18.87c.19-.47.43-1.16.76-1.81a8.79,8.79,0,0,1,2-2.67,11.42,11.42,0,0,0,1.32-1.72c.09-.12,0-.36,0-.58a6.07,6.07,0,0,0-2.08.07c-.3.28-.72.09-1.07.27a2.84,2.84,0,0,1-1,.14l-1.11.08-.69.43a1.37,1.37,0,0,0-.12.24,62.48,62.48,0,0,1-2.23,7.06,2.7,2.7,0,0,0-.2.54,3.41,3.41,0,0,1-1.26,2l-.47,0-.77-.91L16.49,20a4.26,4.26,0,0,1,.6-.44,3.5,3.5,0,0,1,.68-.2,2.31,2.31,0,0,0,.35-.49c.56-1.54,1.11-3.09,1.66-4.63l-.31-.15a4.14,4.14,0,0,0-1.79,2.4l-.46.1a3.87,3.87,0,0,1-1.35-2.4.64.64,0,0,0-.74,0,9.35,9.35,0,0,0-2.35,1.09,4.71,4.71,0,0,1-.68.54c-.9.48-1.81.92-2.71,1.38l-.89.48.12,1.7A4.74,4.74,0,0,1,7.4,22c-.37.38-.32,1.07-.94,1.24a5,5,0,0,1-2.34,1.6l-.75.32L1.56,25A4,4,0,0,1,.1,23.11,4.4,4.4,0,0,1,.3,20.7Zm47,7.92a21.38,21.38,0,0,0-2.8,2.73,3.4,3.4,0,0,1-.55.47,26.7,26.7,0,0,0-3.72,3.49c-.13.14-.23.33,0,.5a3.57,3.57,0,0,0,.93-.35c.89-.67,1.89-1.16,2.81-1.77a9.35,9.35,0,0,0,3.24-4.15A5,5,0,0,0,47.34,28.61Zm-41-9.83-1.3.85A8.55,8.55,0,0,0,2.45,22.1c-.06.09,0,.25,0,.39A7,7,0,0,0,5.9,20Z"/><path d="M114.74,11.3c-.92-.69-2.53-.48-3.58-.29a8.73,8.73,0,0,0-4,1.94.52.52,0,0,0-.08.77,6.94,6.94,0,0,0-.57.73c-.47.69.66,1.33,1.13.64.1-.15.22-.29.34-.43a.64.64,0,0,0,.51-.17,5,5,0,0,1,2.92-1.32c.63,0,1.16.24,1,1a1.9,1.9,0,0,1-.09.27l-.19.23a3.2,3.2,0,0,0-.68,1.32.66.66,0,0,0,.71.8.63.63,0,0,0,.95.42C114.73,16.21,116.8,12.85,114.74,11.3Z"/><path d="M89,26.46c-3.57-2.85-6-6.38-9-9.62a7.2,7.2,0,0,0,1.12-1.32,11.54,11.54,0,0,0,1.59-5.07c.2-2,.48-6.73-.93-8.43a2.16,2.16,0,0,0-2.67-.83.91.91,0,0,0-1.44.41c-.13.43-.27.86-.41,1.29a7,7,0,0,0-.55,1c-2.84,6.24-7.08,17.32-9.24,23.82-.3.9,1.24,1.45,1.58.55,2.52-6.68,7.44-17.31,9.58-24.12a2.89,2.89,0,0,1,2.12.82q.21,1.4.31,2.8a13.62,13.62,0,0,1-1.87,7.62c-.08.16-.15.31-.22.45a1.8,1.8,0,0,0-2.63-.17.9.9,0,0,0-.33,1c.36,1.82,1.5,1.84,2.63,1.22.22,1,1.08,1.71,2.12,3a48.44,48.44,0,0,0,7.15,6.92C88.72,28.4,89.84,27.14,89,26.46Z"/></g></g></svg>