<svg xmlns="http://www.w3.org/2000/svg" viewBox="0 0 153.37 49.79"><defs><style>.cls-1{fill:#333;}</style></defs><title>script-your-life</title><g id="Layer_2" data-name="Layer 2"><g id="Layer_1-2" data-name="Layer 1"><path class="cls-1" d="M114.93.05A2.85,2.85,0,0,1,116.4,2.9a12.46,12.46,0,0,0-1.26,2.65,24.44,24.44,0,0,1-1.69,3.67,9.41,9.41,0,0,0-.53,1c-.92,2-2.14,3.78-3.17,5.69a4.16,4.16,0,0,1-.75.86c-.92.94-1.86,1.86-2.74,2.74a4.51,4.51,0,0,0,.83,2.88,3.25,3.25,0,0,0,.93-.12,7.57,7.57,0,0,0,2.45-1.84l.94-1,.14-.53c.27-.29.52-.58.79-.85a3.52,3.52,0,0,0,1.09-1.79,1.74,1.74,0,0,1,.91-1.13h.55l.8.73.26,1.54-1.17,3.18c0,.14.11.35.18.55s.13.3.21.49l.76.37a5.77,5.77,0,0,0,2-.22,6.39,6.39,0,0,0,1.85-.6,25.1,25.1,0,0,0,3.12-1.4c.64-.41,1.3-.79,2.06-1.24,1.07-1.36,2.22-2.81,3.36-4.27a21.17,21.17,0,0,1,2.38-2.71c.92-1.51,2.4-2.54,3.39-4a5.5,5.5,0,0,1,1.08-1,22.72,22.72,0,0,1,3-2.49c.33-.19.67-.36,1-.54l.89.1.71,1.23V6.26a12.51,12.51,0,0,1-1,2,24,24,0,0,1-3.41,4.17c-.58.49-1.21.92-1.74,1.48a33.82,33.82,0,0,0-3.15,3.34,3.43,3.43,0,0,1-.82.63c0,.38.17.45.35.58a5.75,5.75,0,0,1,1.34,1.81c.29.46.58.91.89,1.39a3.08,3.08,0,0,0,.86,0,27.15,27.15,0,0,0,4-1.27c.83-.39,1.72-.66,2.57-1,.45-.18.89-.4,1.37-.61.08-2,1.21-3.48,2.33-5.05l1.33-.92h1.71c1.16.89,1.16.89,1.95,3v1.51c-.28,1.19-1.19,1.79-1.9,2.58a1.17,1.17,0,0,0,1.09.11,13.29,13.29,0,0,1,4.34-.59,1.33,1.33,0,0,1,.31.08.61.61,0,0,1,.09.75c-.13.3-.3.58-.49.93a5.71,5.71,0,0,1-2.5,1,11.34,11.34,0,0,1-2.64.79,7.19,7.19,0,0,1-4.32-.43,7.79,7.79,0,0,1-1-.62,25.25,25.25,0,0,0-3.1,1.15,22,22,0,0,1-2.86,1.14c-.43.12-.85.17-1.27.25a4.23,4.23,0,0,0-.72.27,11.52,11.52,0,0,0-.48,2.27,9.5,9.5,0,0,1-.93,2.93,20,20,0,0,1-2.23,3.4c-.27.4-.84.48-1.09,1s-.67.66-1,1.05a5.23,5.23,0,0,1-1.14.91c-.39.29-.8.57-1.18.87a2.16,2.16,0,0,1-1,.52,2.69,2.69,0,0,0-.89.41,14.12,14.12,0,0,1-4.38,1.79c-.95-.33-2.14-.27-2.92-1.42a9.32,9.32,0,0,0-.47-1.56,2.24,2.24,0,0,1-.23-1.43,18.91,18.91,0,0,1,.59-2.69,53.2,53.2,0,0,1,2.44-5.17c.46-.92,1-1.79,1.58-2.67a3.28,3.28,0,0,0,.6-1.36,1.37,1.37,0,0,0-.48,0c-.49.23-1,.51-1.46.72a5.71,5.71,0,0,1-5-.17c-.34-.17-.65-.39-.9-.55a4.25,4.25,0,0,1-.8-1.71L108.87,25h-2.13c-1.29-1-1.72-2.39-2.28-3.83a7.83,7.83,0,0,0-1.82,1.3,10.79,10.79,0,0,1-2.33,1.85l-.83.1a8.37,8.37,0,0,1-2.85,1.45,2.79,2.79,0,0,1-1.45.07c-.48-.09-.94-.26-1.48-.41a2.75,2.75,0,0,1-.72-1.7,9,9,0,0,0-.22-1.18,2.11,2.11,0,0,1,.76-1.18,1.2,1.2,0,0,1,1.39.37L95,22.91a1.19,1.19,0,0,0,.41.16,3.07,3.07,0,0,0,1-.1,12.63,12.63,0,0,0,1.81-.75,28.57,28.57,0,0,0,5-3.33l.51-.4c.39-2,.67-3.72,1.11-5.45A8.07,8.07,0,0,1,106,10.17a5.73,5.73,0,0,0,.52-1.36,3.9,3.9,0,0,1,.31-.75c.29-.46.78-.85.91-1.34a5.73,5.73,0,0,1,.76-1.42,13.19,13.19,0,0,1,.87-1.37,12.85,12.85,0,0,1,1.27-1.49,13.6,13.6,0,0,1,1.87-1.6A3,3,0,0,1,114.93.05Zm11.43,20.8c-.15.21-.45.59-.72,1a17.33,17.33,0,0,1-1,1.64,17.85,17.85,0,0,0-1.65,2.62c-.51.89-.92,1.83-1.51,2.67a26.43,26.43,0,0,0-2.34,4.82,10.56,10.56,0,0,0-.54,2.63l.32.62a2.59,2.59,0,0,0,1.63,0,34.57,34.57,0,0,0,3.59-1.52,18.72,18.72,0,0,0,4.43-3.58,14.21,14.21,0,0,0,2.72-4,5.48,5.48,0,0,0,.59-3.48,5.12,5.12,0,0,1-2.54-3.43c-.06-.21,0-.44-.07-.65a.74.74,0,0,0-.59-.67Zm-19.7-5a16.6,16.6,0,0,0,2.57-2.89c.51-.83,1.15-1.58,1.71-2.38a7.66,7.66,0,0,0,1.6-2.81,2.45,2.45,0,0,1,.35-.73,16.86,16.86,0,0,0,1.49-3.77c0-.05-.11-.15-.17-.23s-.13,0-.16,0a13.71,13.71,0,0,0-3.62,4c-.24.48-.68.85-.94,1.32A35.18,35.18,0,0,0,107,13.61,2.83,2.83,0,0,0,106.65,15.83Zm39.09.49c.13.4-.51.61-.14,1l.83-.4c.57-1,.57-1,.32-1.15Z"/><path class="cls-1" d="M40.54,26.1l-1.15-.45A2.33,2.33,0,0,1,38.94,24a11.09,11.09,0,0,1,1.78-2.32,10.12,10.12,0,0,0,1.09-1.42A33.74,33.74,0,0,0,44,17.43a3.12,3.12,0,0,0,.16-.51,2.31,2.31,0,0,0-1.62,0,4.9,4.9,0,0,0-1.9.9c-.35.37-1,.18-1.3.64a7.76,7.76,0,0,1-.93.93,1,1,0,0,1-.25.21,10.91,10.91,0,0,0-2.34,1.71c-.72.58-1.38,1.22-2.09,1.8s-1.3,1-2,1.52l-.65.15c-1,1.27-2.61,1.79-4.11,2.54l-.78-.29c-.05-.35-.08-.67-.15-1a7.62,7.62,0,0,0-.25-.75,1.13,1.13,0,0,0,.08-.91c-.32,0-.51.17-.69.36a26.94,26.94,0,0,1-4,3.36,4.05,4.05,0,0,0-.48.45,20.42,20.42,0,0,1-2,1.72,5.92,5.92,0,0,0-1.36,1.15,7.61,7.61,0,0,1-1.49,1.25l-1.41,1.11c-.09.07-.15.17-.25.22-1.54.79-2.12,2.26-2.67,3.76-.37,1-.76,2-1.14,3a1.82,1.82,0,0,1-.2.45C8.91,43,7.88,44.89,6.45,46.47c-.29.32-.47.73-.75,1.06A6.63,6.63,0,0,1,3,49.4c-.4.16-.83.25-1.33.39l-.84-.37C.21,48.75.37,47.79,0,47.1c.13-.56.22-1,.35-1.51a5.69,5.69,0,0,1,1.05-2C2.71,42,4.17,40.49,5.61,39c1.27-1.3,2.73-2.36,4-3.65.46-.47.94-.92,1.39-1.36.33-.9.67-1.76,1-2.63.22-.66.39-1.35.59-2a6.4,6.4,0,0,0,.66-2c0-.1.09-.19.14-.29.86-1.76,1.38-3.65,2.13-5.46a13.75,13.75,0,0,1,1.12-2.51,5.92,5.92,0,0,0,.5-1.33c-.14-.28-.35-.32-.54-.15A23,23,0,0,1,13.46,20a53.73,53.73,0,0,1-5.4,3.35C6.73,23.92,5.37,24.46,4,25l-1.11-.52-.94-1.79c.25-.91.55-1.9.78-2.89a13.08,13.08,0,0,1,2-4.41,1.32,1.32,0,0,0,.15-.29C5.45,13.7,6.34,12.45,7,11.07,7.55,9.9,8.27,8.8,8.94,7.62h.73a2.87,2.87,0,0,1-.1,3.25c-1.09,1.82-2.08,3.7-3.06,5.58a28.49,28.49,0,0,0-1.45,2.71c-.35.91-.7,1.82-1,2.73a2.72,2.72,0,0,0-.07.63c1.24.07,2.22-.57,3.69-1.15a18.59,18.59,0,0,0,3.49-2.11c1.31-.88,2.56-1.84,3.84-2.76.22-.16.46-.3.69-.44s.29-.16.42-.25c1.14-.83,2.3-1.64,3.41-2.51a5.83,5.83,0,0,0,.84-1.07h1L22,13.29a7,7,0,0,1-1,2.23,16.4,16.4,0,0,0-1.87,3.23c-.52,1.25-1.19,2.45-1.79,3.67a5.73,5.73,0,0,0-.87,2.27c0,.2-.19.39-.28.58a34,34,0,0,0-2,5.32c-.08.29-.47.52-.23.89a2.72,2.72,0,0,0,1.64-.92c.89-.8,1.82-1.54,2.74-2.29s1.8-1.6,2.74-2.35c2-1.64,3.92-3.46,6.1-4.93a5.94,5.94,0,0,0,2.06-2.31,2.79,2.79,0,0,1,.42-.69c.93-1,1.45-2.32,2.53-3.2A22.46,22.46,0,0,1,36,12.15,1.9,1.9,0,0,1,36.53,14c-.22.24-.49.52-.74.81-.79.9-1.61,1.78-2.34,2.73a3.9,3.9,0,0,1-1,1,10,10,0,0,0-1.32,1.23c-.44.41-.9.81-1.21,1.09-.3.91-1,1.46-.88,2.31.38.16.64-.12.87-.26.83-.52,1.6-1.13,2.44-1.64a6,6,0,0,0,1.27-1,4.29,4.29,0,0,1,1.3-1,1.64,1.64,0,0,0,.85-.72,1.23,1.23,0,0,1,.49-.42,9.61,9.61,0,0,0,2.21-1.68,1,1,0,0,1,.26-.2,38.22,38.22,0,0,1,3.84-1.81,3.25,3.25,0,0,1,2.68,0,2.7,2.7,0,0,0,.47.13L46.43,16c.24,1-.32,1.92-.59,2.92.21,0,.4.1.49,0a6,6,0,0,1,1.89-.94,5.51,5.51,0,0,0,1.46-.73c1.16-.72,2.44-1.18,3.71-1.82l.88.42.43,1.25c-.21.55-.42,1.17-.7,1.76A3.67,3.67,0,0,1,53.28,20a17,17,0,0,0-1.73,2.57,1.53,1.53,0,0,0-.3,1.68,1.07,1.07,0,0,0,.94.06,2.2,2.2,0,0,0,.59-.29l5.77-3.69a26.15,26.15,0,0,1,3.25-2.48c.87-.65,1.81-1.21,2.71-1.82a10.7,10.7,0,0,1,2.11-.86,1.88,1.88,0,0,1,.73,0c.62.25.6.84.9,1.19A4.17,4.17,0,0,1,67.55,19a2.13,2.13,0,0,0-.25.59c-.31,1.09-.6,2.19-.89,3.25.13.79.71,1.22,1.33,1.75l3.43.72.83-.27.51.51a2.75,2.75,0,0,1-.8,1.41c-1.28.17-2.65,0-4.1.07A8.44,8.44,0,0,1,64.78,25l-.42-1.26a4.56,4.56,0,0,0,.22-2.38c-.08-.84.56-1.56.26-2.47a11,11,0,0,0-3.59,2.39,5.92,5.92,0,0,0-1,.48c-1.68,1.21-3.3,2.5-5,3.64a17.4,17.4,0,0,1-3.29,1.77,2.46,2.46,0,0,1-1.71.09c-.57-.46-.62-1.18-1-1.72,0-.27,0-.54,0-.81a6.93,6.93,0,0,1,.69-3.49c.21-.5.39-1,.57-1.51,0,0,0-.09-.07-.16a1.22,1.22,0,0,0-1.15.41c-1.35,1.13-3,1.75-4.42,2.78-1.06.77-2.17,1.45-3.23,2.22A7.57,7.57,0,0,0,40.54,26.1ZM9.28,38.44l-.51-.18a41.94,41.94,0,0,0-7.11,8,2.75,2.75,0,0,0,0,.47,2.4,2.4,0,0,0,.15.42c.2,0,.41.06.52,0a13.89,13.89,0,0,0,1.72-1.24A17.77,17.77,0,0,0,8,40.94C8.49,40.17,8.84,39.3,9.28,38.44Z"/></g></g></svg>