<svg xmlns="http://www.w3.org/2000/svg" viewBox="0 0 17.3 17.31"><defs><style>.cls-1{fill:#333;fill-rule:evenodd;}</style></defs><title>social-inst</title><g id="Layer_2" data-name="Layer 2"><g id="Layer_1-2" data-name="Layer 1"><path class="cls-1" d="M3.71.24s0-.13.14-.14C6.25-.07,9.51,0,12.13.1c.46,0,1-.06,1.4,0,0,0,0,.14.14.14a2,2,0,0,1,.56.14,2.68,2.68,0,0,1,.56.14c.1,0,.2.24.28.28s.24,0,.28,0c.21.25.68.72,1,1.12.06.08.24.21.28.28s0,.25,0,.28a1,1,0,0,1,.28.42c0,.05,0,.25,0,.28s.07.29.14.56c0,.12.12.14.14.28a48,48,0,0,1,0,5.9,20.15,20.15,0,0,1-.14,3.79,2.56,2.56,0,0,1-.28,1,3.5,3.5,0,0,1-.14.43c-.14.11-.16.29-.28.42s-.24.08-.28.14,0,.24,0,.28a4.87,4.87,0,0,1-.7.42c-.07,0,0,.14-.14.14s-.12,0-.14,0c-.2.13-.32.38-.42.42s-.49.09-.7.14a31.47,31.47,0,0,1-5.34.14,26.2,26.2,0,0,1-5.48-.14,4.44,4.44,0,0,1-1-.42c-.1-.07-.19-.22-.28-.28a7.6,7.6,0,0,1-.7-.42c-.1-.09-.05-.33-.14-.42s-.25-.09-.28-.14-.19-.48-.28-.71c0,0-.12-.54-.14-.56A3.6,3.6,0,0,1,.06,12.6c-.12-1.95,0-4.7,0-6.74A11.41,11.41,0,0,1,.2,3.47c.07-.34.27-.6.28-.84a2.11,2.11,0,0,1,.42-.7,4.11,4.11,0,0,1,.7-.7c.11-.1.17-.35.28-.42s.37,0,.56-.14,0-.13.14-.14.48-.2.85-.28C3.52.22,3.62.26,3.71.24ZM15.23,3.19s0-.23,0-.28-.21-.2-.28-.28-.54-.55-.56-.56-.37,0-.7-.14c0,0,0-.13,0-.14s-.37,0-.42,0-.13-.14-.14-.14c-.85-.14-2.6,0-4.36,0a29.64,29.64,0,0,0-4.92.14A2.49,2.49,0,0,0,2,3.19a1.43,1.43,0,0,0-.14.28c0,.12-.13.11-.14.14-.16.67.11,1.49,0,2.25,1.73-.27,4,.43,4.91-.14.09-.05.18-.23.28-.28a5.26,5.26,0,0,1,2.67-.28c.51.08.91.57,1.68.7,1.21.21,2.57-.15,4.21,0C15.5,5.11,15.62,3.51,15.23,3.19ZM1.75,7.41c.22,2.42-.53,6.08.56,7.3a2.55,2.55,0,0,0,1,.71c.14,0,.09.12.14.14A11,11,0,0,0,6,15.69H8.63c1.32,0,4.74.28,5.2-.28,0,0,.23,0,.28,0s0-.12,0-.14.23,0,.28,0a14.77,14.77,0,0,0,1-1.12,4.74,4.74,0,0,0,.14-1.54c.06-1.85,0-3.29,0-5.19H12.42a5.17,5.17,0,0,1,.14,2.95,1.12,1.12,0,0,1-.14.42,8.79,8.79,0,0,1-.7,1.12A4.15,4.15,0,0,1,7.64,13c-.18,0-.3-.11-.42-.14s-.19,0-.28-.15-.23,0-.28,0-.17-.2-.28-.28A4.25,4.25,0,0,1,5,10.78,4.85,4.85,0,0,1,5,7.41ZM7.5,8a1.79,1.79,0,0,0-.42.84,1.65,1.65,0,1,0,3.23,0A2.61,2.61,0,0,0,9.89,8c-.19-.19-.48-.33-.56-.42s-.82-.15-.7-.14v.14A1.59,1.59,0,0,0,7.5,8Z"/><path class="cls-1" d="M13.89,2.88a3.21,3.21,0,0,1,0,1.81H12.08V2.88A3.09,3.09,0,0,1,13.89,2.88Z"/></g></g></svg>