<svg xmlns="http://www.w3.org/2000/svg" viewBox="0 0 13.75 17.87">
	<defs>
	  <style>.pint-cls-1{fill:#333;}</style>
  </defs>
  <title>social-pint</title>
	<path class="pint-cls-1" d="M5.69,11.76c-.5,2.11-1,4.32-2.7,6.1-.06-.49-.1-.85-.14-1.21a12.87,12.87,0,0,1,.53-4.51q.45-1.82.87-3.66a1.32,1.32,0,0,0-.06-.58,3.78,3.78,0,0,1,.23-3A1.7,1.7,0,0,1,5.82,4,1.24,1.24,0,0,1,7.28,5.31a14.88,14.88,0,0,1-.44,2.33c-.11.48-.28.94-.4,1.41a1.64,1.64,0,0,0,2,2,3.36,3.36,0,0,0,2.32-2.3A7.46,7.46,0,0,0,11.25,5,3.43,3.43,0,0,0,8.87,2a5.17,5.17,0,0,0-6.12,1.9,4.56,4.56,0,0,0-.65,3.69,1.59,1.59,0,0,0,.33.73c.55.55.29,1.12.12,1.69-.09.32-.33.29-.57.18A2.81,2.81,0,0,1,.45,8.6,5.82,5.82,0,0,1,1.74,2.21c2.42-2.67,7.49-3,10.12-.54a5.41,5.41,0,0,1,1.87,3.72,7.43,7.43,0,0,1-2,6.06,4.27,4.27,0,0,1-4.47,1.19A8.38,8.38,0,0,1,5.69,11.76Z"/>
</svg>