<svg xmlns="http://www.w3.org/2000/svg" viewBox="0 0 16.12 13.82"><defs><style>.cls-1{fill:#333;fill-rule:evenodd;}</style></defs><title>twit</title><g id="Layer_2" data-name="Layer 2"><g id="Layer_1-2" data-name="Layer 1"><path class="cls-1" d="M4.55,13.82c0-.07-.08-.05-.13-.06a9,9,0,0,1-2.57-.39A5,5,0,0,1,0,12.42a6.56,6.56,0,0,0,4.86-1.58A3.3,3.3,0,0,1,1.62,8.6,1.94,1.94,0,0,0,3,8.42a3.37,3.37,0,0,1-2.8-3.2,7.79,7.79,0,0,0,1.42.35c.07-.31-.38-.4-.56-.58C.38,4.22-.26,2.27.63,1A9.59,9.59,0,0,0,7.8,4.35,3.43,3.43,0,0,1,10.62,0l.74,0c.21.08.82.15,1.15.3s.77.67,1.17.7c.71,0,1.19-.64,1.93-.74a3.94,3.94,0,0,1-.89,1.44c-.1.1-.56.21-.33.35a12.24,12.24,0,0,0,1.73-.53c-.24.27-.38.59-.64.89s-.88.6-1,1a5.46,5.46,0,0,0,0,1.14,9.8,9.8,0,0,1-2.62,6.21,9.72,9.72,0,0,1-6.16,3Z"/></g></g></svg>